<svg width="36" height="43" viewBox="0 0 36 43" fill="none" xmlns="http://www.w3.org/2000/svg">
<g clip-path="url(#clip0_308_650)">
<path d="M6.65135 27.4753C7.13459 35.1526 13.2145 34.5653 18.9695 34.7056C20.6666 34.7451 22.3814 34.6329 24.0763 34.5647C25.2263 34.5161 26.4791 34.1985 27.1547 33.3018C27.4918 32.7868 27.7054 32.2055 27.7797 31.6005C28.3061 28.7292 28.1828 25.7556 28.225 22.85C28.2745 19.3284 28.3052 15.8097 28.351 12.2887C28.3582 11.7659 28.3869 3.60805 28.6345 3.61131C21.9679 3.56142 15.2675 2.24224 8.61005 2.50771C5.42709 2.63499 6.2442 5.27178 6.20067 7.55527C6.15808 10.6945 6.17338 13.8335 6.24655 16.9725C6.30838 19.6958 6.41362 22.4249 6.56227 25.1598C6.60088 25.8918 6.60639 26.6809 6.65135 27.4753Z" fill="#F7A32D"/>
<path d="M8.41922 9.7213C8.41922 9.7213 11.5309 11.2594 18.4822 11.02C25.4334 10.7805 26.4594 9.73731 26.4594 9.73731C26.4594 9.73731 26.7061 18.7773 26.1079 22.39C26.1079 22.39 19.2739 25.4474 8.66177 22.1828C8.27897 18.0396 8.19792 13.8755 8.41922 9.7213Z" fill="#D88121"/>
<g style="mix-blend-mode:multiply">
<path d="M27.1546 33.302C27.4917 32.787 27.7053 32.2057 27.7796 31.6007C28.3061 28.7293 28.1827 25.7558 28.2249 22.8502C28.2744 19.3286 28.3052 15.8099 28.3509 12.2889C28.3581 11.7661 28.3869 3.60822 28.6344 3.61149C27.1163 3.60433 25.597 3.5191 24.0816 3.41091C23.7483 3.6232 23.4819 3.91991 23.3115 4.26858C23.1411 4.61725 23.0734 5.00444 23.1156 5.3878C23.1514 6.99962 23.6435 8.61644 23.843 10.2145C24.0692 12.1879 24.1115 14.1769 23.9694 16.1576C23.8076 18.4329 23.3997 20.6857 22.7524 22.8792C22.1289 24.9679 21.2445 27.0665 19.6302 28.572C17.8666 30.227 15.3803 31.0269 12.924 31.1367C11.0097 31.1861 9.0985 30.9573 7.25468 30.4578C8.99259 34.9964 14.1062 34.5898 18.9819 34.7114C20.679 34.7509 22.3938 34.6386 24.0887 34.5704C25.23 34.5157 26.4808 34.2096 27.1546 33.302Z" fill="#E8E8E8"/>
</g>
<path d="M19.9097 32.9642C20.5178 32.5002 21.2212 32.1485 21.7544 31.6027C22.4707 30.8766 22.8913 29.8001 23.857 29.4239C24.1713 29.322 24.5051 29.2882 24.8345 29.325C25.1638 29.3617 25.4808 29.4681 25.7628 29.6365C26.3253 29.976 26.8144 30.4172 27.2034 30.936C27.5183 31.3789 27.8905 31.7811 28.3111 32.1329C28.9814 32.6281 29.8664 32.8042 30.5144 33.3289C30.7371 33.4971 30.907 33.7218 31.005 33.9778C31.0539 34.1061 31.0708 34.2436 31.0545 34.3794C31.0382 34.5151 30.9891 34.6453 30.9112 34.7593C30.7318 34.9593 30.4971 35.1057 30.2345 35.1814C29.1432 35.6184 28.0062 35.9405 26.8434 36.1422C24.699 36.4794 22.5 36.2488 20.4807 35.4748C20.0406 35.3063 19.0861 35.0587 18.8881 34.5967C18.6331 34.0204 19.5039 33.2711 19.9097 32.9642Z" fill="white"/>
<path d="M32.4778 33.3726C32.588 33.3252 32.7102 33.3101 32.8293 33.3291C32.9483 33.348 33.059 33.4002 33.1476 33.4792C33.2363 33.5582 33.2991 33.6605 33.3282 33.7735C33.3573 33.8865 33.3515 34.0053 33.3115 34.1152C32.8543 35.4431 32.1837 36.6913 30.946 37.3431C29.9611 37.8637 28.793 37.8941 27.677 37.9129L22.1814 38.0279C21.1657 38.0465 20.1143 38.0593 19.1949 37.6462C18.0765 37.1476 17.0408 35.8468 16.5856 34.604C16.5505 34.5078 16.5416 34.4045 16.5597 34.3041C16.5778 34.2036 16.6222 34.1093 16.6888 34.0302C16.7554 33.951 16.8419 33.8897 16.94 33.852C17.0381 33.8143 17.1446 33.8016 17.2493 33.815C19.985 34.1486 22.9313 34.7598 25.675 34.593C27.139 34.507 28.2991 34.5225 29.7329 34.2249C30.6647 33.9942 31.5814 33.7096 32.4778 33.3726Z" fill="#9F4A4A"/>
<g style="mix-blend-mode:multiply">
<path d="M32.4777 33.3726C32.2089 33.4763 31.9169 33.5799 31.6275 33.6755C31.5262 34.0551 31.357 34.4146 31.1275 34.7379C30.4307 35.6495 29.4421 36.3141 28.3147 36.6287C27.1888 36.9389 26.0245 37.1003 24.8537 37.1082C22.5937 37.1899 20.3306 37.1119 18.0825 36.8748C18.4047 37.1916 18.781 37.4526 19.1948 37.6463C20.1143 38.0593 21.1656 38.0465 22.1813 38.0279L27.6624 37.9189C28.7784 37.9 29.9454 37.8624 30.9314 37.349C32.1691 36.6972 32.8398 35.449 33.2969 34.1211C33.3365 34.0125 33.3426 33.8951 33.3145 33.7831C33.2864 33.6712 33.2254 33.5695 33.1387 33.4904C33.0521 33.4112 32.9436 33.358 32.8263 33.3371C32.709 33.3162 32.5879 33.3285 32.4777 33.3726Z" fill="#E8E8E8"/>
</g>
<path d="M28.6344 3.61139C28.6327 5.70219 24.7853 7.38405 18.4618 7.37876C12.1383 7.37347 6.1339 5.68366 6.13321 3.57832C6.13253 1.47299 12.0993 0.217196 18.4216 0.215212C24.7438 0.213228 28.6344 1.50969 28.6344 3.61139Z" fill="#FFB966"/>
</g>
<defs>
<clipPath id="clip0_308_650">
<rect width="36" height="43" fill="white"/>
</clipPath>
</defs>
</svg>
