<svg width="24" height="16" viewBox="0 0 24 16" fill="none" xmlns="http://www.w3.org/2000/svg">
<g clip-path="url(#clip0_430_614)">
<path fill-rule="evenodd" clip-rule="evenodd" d="M24 11.9025C24 14.1653 18.6303 15.9999 12.0006 15.9999C5.37093 15.9999 0 14.1653 0 11.9025C0 9.63974 5.36969 7.80521 12.0006 7.80521C18.6316 7.80521 24 9.63974 24 11.9025Z" fill="#E2CAB3"/>
<path fill-rule="evenodd" clip-rule="evenodd" d="M24 11.4506C24 13.7134 18.6303 15.548 12.0006 15.548C5.37093 15.548 0 13.7134 0 11.4506C0 9.18784 5.36969 7.3533 12.0006 7.3533C18.6316 7.3533 24 9.18784 24 11.4506Z" fill="white"/>
<path fill-rule="evenodd" clip-rule="evenodd" d="M24 11.3858C24 13.5778 18.6303 15.3545 12.0006 15.3545C5.37093 15.3545 0 13.5778 0 11.3858C0 9.19379 5.36969 7.41824 12.0006 7.41824C18.6316 7.41824 24 9.19497 24 11.3858Z" fill="#E7D8C8"/>
<path fill-rule="evenodd" clip-rule="evenodd" d="M23.4681 11.3859C23.4681 12.9502 18.8727 14.2173 13.2045 14.2173C7.5364 14.2173 2.9397 12.9502 2.9397 11.3859C2.9397 9.82148 7.53515 8.55441 13.2045 8.55441C18.8739 8.55441 23.4681 9.82266 23.4681 11.3859Z" fill="#E2CAB3"/>
<path d="M22.6027 11.4873C22.3841 10.5199 21.3202 10.1105 20.4798 10.0456C19.9615 10.0067 19.4433 10.1105 18.9263 10.1377C18.639 10.1532 18.3509 10.1421 18.0659 10.1046C17.7512 10.0633 17.4503 9.95597 17.1331 9.93119C16.5824 9.88872 16.0367 10.0692 15.5234 10.258C14.9203 10.481 14.3171 10.6839 13.699 10.8561C12.4797 11.2071 11.2235 11.4314 9.95268 11.5251C9.43578 11.5695 8.91555 11.5667 8.39922 11.5168C8.03708 11.4743 7.67993 11.3988 7.31779 11.3587C6.68342 11.2915 5.98036 11.3705 5.72437 12.0748C5.53244 12.0742 5.34316 12.1171 5.17241 12.1999C4.91392 12.3049 4.56801 12.4913 4.43439 12.7615C4.15592 13.3266 5.05877 13.5484 5.39344 13.6085C5.71188 13.6652 6.03281 13.6852 6.35249 13.7171C6.79705 13.7619 7.1542 13.9613 7.53008 14.2043C8.47789 14.8166 9.74289 14.8567 10.8218 14.7859C11.417 14.7438 12.0053 14.6397 12.5763 14.4757C13.1795 14.3058 13.8001 14.4084 14.4095 14.5063C14.933 14.6108 15.4766 14.5798 15.983 14.4167C16.4925 14.2456 16.9345 13.933 17.3703 13.6191C17.8786 13.2534 18.4568 13.231 19.0549 13.185C19.6446 13.1504 20.2297 13.0655 20.8032 12.9313C21.2846 12.8164 21.7534 12.6584 22.2031 12.4594C22.5852 12.2695 22.6926 11.9156 22.6027 11.4873Z" fill="#EEBE30"/>
<path d="M19.1959 10.6461C19.1959 12.1704 15.7705 13.5873 11.6459 13.5873C7.52119 13.5873 4.06836 12.0654 4.06836 10.5411C4.06836 9.01685 7.52119 8.0636 11.6459 8.0636C15.7705 8.0636 19.1959 9.12185 19.1959 10.6461Z" fill="#E3AC8A"/>
<path d="M19.1135 10.3522C19.1135 11.8765 15.7705 13.1117 11.6459 13.1117C7.52119 13.1117 4.177 11.8765 4.177 10.3522C4.177 8.82795 7.52119 7.59155 11.6459 7.59155C15.7705 7.59155 19.1135 8.82795 19.1135 10.3522Z" fill="#DA840D"/>
<path d="M17.0782 10.0904C17.0782 11.2218 14.5981 12.1373 11.5374 12.1373C8.47668 12.1373 5.99414 11.2218 5.99414 10.0904C5.99414 8.95899 8.47793 8.04349 11.5374 8.04349C14.5969 8.04349 17.0782 8.96606 17.0782 10.0904Z" fill="#F0A508"/>
<path d="M7.80837 10.8454C7.80837 10.9634 7.66726 11.066 7.49243 11.066C7.3176 11.066 7.17773 10.9669 7.17773 10.8454C7.17773 10.7239 7.31885 10.6248 7.49243 10.6248C7.66601 10.6248 7.80837 10.7239 7.80837 10.8454Z" fill="#DA840D"/>
<path d="M7.17786 9.91707C7.17615 9.94957 7.16439 9.98088 7.14403 10.0071C7.12367 10.0334 7.09561 10.0534 7.06333 10.0647C7.03104 10.0761 6.99595 10.0782 6.96239 10.0709C6.92883 10.0636 6.89828 10.0471 6.87452 10.0236C6.85076 10 6.83484 9.97037 6.82873 9.93835C6.82261 9.90632 6.82657 9.87331 6.84012 9.84339C6.85366 9.81347 6.8762 9.78796 6.90493 9.77002C6.93367 9.75208 6.96734 9.7425 7.00178 9.74246C7.02551 9.74292 7.0489 9.74781 7.07062 9.75685C7.09233 9.76589 7.11194 9.7789 7.1283 9.79513C7.14467 9.81136 7.15748 9.83049 7.16598 9.85142C7.17449 9.87235 7.17852 9.89466 7.17786 9.91707Z" fill="#DA840D"/>
<path d="M9.36576 11.1132C9.36977 11.1705 9.35543 11.2277 9.32462 11.2772C9.2938 11.3268 9.24793 11.3665 9.19295 11.3911C9.13798 11.4157 9.07643 11.4241 9.01632 11.4153C8.9562 11.4065 8.90028 11.3808 8.85582 11.3415C8.81136 11.3023 8.78042 11.2513 8.767 11.1953C8.75358 11.1392 8.7583 11.0806 8.78056 11.0271C8.80283 10.9736 8.84159 10.9277 8.89183 10.8953C8.94208 10.8629 9.00147 10.8455 9.06231 10.8454C9.10086 10.8441 9.13928 10.85 9.1754 10.8628C9.21152 10.8756 9.24461 10.895 9.27279 10.9198C9.30098 10.9447 9.32369 10.9746 9.33965 11.0078C9.3556 11.0409 9.36447 11.0767 9.36576 11.1132Z" fill="#DA840D"/>
<path d="M8.70637 10.0504C8.70637 10.1235 8.6202 10.1837 8.51531 10.1837C8.41041 10.1837 8.323 10.1235 8.323 10.0504C8.323 9.97725 8.40916 9.91708 8.51531 9.91708C8.62145 9.91708 8.70637 9.97607 8.70637 10.0504Z" fill="#DA840D"/>
<path d="M10.6371 10.6828C10.6416 10.7199 10.6342 10.7573 10.6157 10.7903C10.5972 10.8233 10.5685 10.8501 10.5335 10.8673C10.4984 10.8845 10.4587 10.8913 10.4195 10.8867C10.3803 10.8821 10.3435 10.8663 10.314 10.8415C10.2846 10.8167 10.2637 10.784 10.2544 10.7478C10.245 10.7115 10.2475 10.6734 10.2615 10.6386C10.2756 10.6037 10.3005 10.5737 10.333 10.5525C10.3655 10.5313 10.404 10.52 10.4435 10.52C10.4919 10.5177 10.5394 10.5335 10.5756 10.564C10.6118 10.5944 10.6339 10.6371 10.6371 10.6828Z" fill="#DA840D"/>
<path d="M10.7105 11.6656C10.7105 11.7411 10.6181 11.8024 10.5032 11.8024C10.3883 11.8024 10.2959 11.7411 10.2959 11.6656C10.2959 11.5901 10.3896 11.5287 10.5032 11.5287C10.6168 11.5287 10.7105 11.5901 10.7105 11.6656Z" fill="#DA840D"/>
<path d="M9.88418 10.2013C9.88197 10.2288 9.87128 10.2549 9.85345 10.2767C9.83561 10.2984 9.81142 10.3147 9.78387 10.3236C9.75631 10.3324 9.72661 10.3334 9.69845 10.3265C9.6703 10.3195 9.64492 10.3049 9.62547 10.2845C9.60601 10.264 9.59335 10.2386 9.58904 10.2114C9.58473 10.1842 9.58897 10.1565 9.60123 10.1315C9.61349 10.1066 9.63323 10.0856 9.658 10.0712C9.68277 10.0567 9.71148 10.0495 9.74057 10.0503C9.78054 10.0531 9.81783 10.0703 9.84462 10.0985C9.8714 10.1266 9.88558 10.1635 9.88418 10.2013Z" fill="#DA840D"/>
<path d="M12.0344 10.4881C12.0344 10.5636 11.9445 10.6249 11.8334 10.6249C11.7222 10.6249 11.6323 10.5636 11.6323 10.4881C11.6323 10.4126 11.7222 10.3524 11.8334 10.3524C11.9445 10.3524 12.0344 10.4126 12.0344 10.4881Z" fill="#DA840D"/>
<path d="M12.0344 11.1945C12.0344 11.2393 11.9445 11.2759 11.8334 11.2759C11.7222 11.2759 11.6323 11.2393 11.6323 11.1945C11.6323 11.1496 11.7222 11.1131 11.8334 11.1131C11.9445 11.1131 12.0344 11.1496 12.0344 11.1945Z" fill="#DA840D"/>
<path d="M13.3942 10.7357C13.3942 10.7959 13.313 10.8454 13.2118 10.8454C13.1107 10.8454 13.0308 10.7959 13.0308 10.7357C13.0308 10.6755 13.1119 10.6248 13.2118 10.6248C13.3117 10.6248 13.3942 10.6743 13.3942 10.7357Z" fill="#DA840D"/>
<path d="M13.177 11.524C13.1856 11.5608 13.1818 11.5991 13.1663 11.6338C13.1508 11.6684 13.1242 11.6977 13.0904 11.7175C13.0565 11.7373 13.0169 11.7466 12.9772 11.7443C12.9374 11.7419 12.8994 11.728 12.8684 11.7044C12.8374 11.6807 12.815 11.6486 12.8041 11.6124C12.7933 11.5762 12.7946 11.5377 12.8079 11.5022C12.8212 11.4668 12.8459 11.4361 12.8784 11.4144C12.911 11.3928 12.9499 11.3812 12.9897 11.3813C13.0345 11.3773 13.0791 11.39 13.1141 11.4166C13.1491 11.4433 13.1717 11.4819 13.177 11.524Z" fill="#DA840D"/>
<path d="M14.6905 11.295C14.6828 11.3302 14.6646 11.3625 14.6381 11.3883C14.6116 11.4141 14.5779 11.4323 14.541 11.4407C14.504 11.4491 14.4653 11.4475 14.4292 11.436C14.3932 11.4244 14.3614 11.4035 14.3375 11.3756C14.3136 11.3476 14.2985 11.3139 14.2941 11.2782C14.2897 11.2425 14.296 11.2064 14.3125 11.174C14.3289 11.1416 14.3547 11.1142 14.387 11.0952C14.4192 11.0761 14.4565 11.066 14.4945 11.0661C14.5524 11.0724 14.6054 11.0999 14.6421 11.1427C14.6788 11.1855 14.6962 11.2402 14.6905 11.295Z" fill="#DA840D"/>
<path d="M14.5818 10.264C14.5818 10.3112 14.5181 10.3489 14.4394 10.3489C14.3608 10.3489 14.2983 10.3112 14.2983 10.264C14.2983 10.2168 14.362 10.1802 14.4394 10.1802C14.5169 10.1802 14.5818 10.2215 14.5818 10.264Z" fill="#DA840D"/>
<path d="M15.7808 10.5151C15.7808 10.698 15.6947 10.8455 15.5898 10.8455C15.4849 10.8455 15.3975 10.698 15.3975 10.5151C15.3975 10.3323 15.4836 10.1836 15.5898 10.1836C15.6959 10.1836 15.7808 10.3323 15.7808 10.5151Z" fill="#DA840D"/>
<path d="M16.2613 10.1789C16.2613 10.2024 16.2514 10.2249 16.2339 10.2415C16.2163 10.2581 16.1925 10.2674 16.1676 10.2674C16.1428 10.2674 16.119 10.2581 16.1014 10.2415C16.0838 10.2249 16.074 10.2024 16.074 10.1789C16.074 10.1554 16.0838 10.1329 16.1014 10.1163C16.119 10.0997 16.1428 10.0904 16.1676 10.0904C16.1924 10.0907 16.216 10.1001 16.2335 10.1167C16.251 10.1332 16.261 10.1555 16.2613 10.1789Z" fill="#DA840D"/>
<path d="M13.1121 9.89701C13.1121 9.98077 12.9947 10.0504 12.8511 10.0504C12.7075 10.0504 12.5901 9.98077 12.5901 9.89701C12.5901 9.81325 12.7062 9.74246 12.8511 9.74246C12.9959 9.74246 13.1121 9.81207 13.1121 9.89701Z" fill="#DA840D"/>
<path d="M8.21569 9.10168C8.21569 9.15358 8.12453 9.19606 8.01214 9.19606C7.89975 9.19606 7.80859 9.15358 7.80859 9.10168C7.80859 9.04977 7.89975 9.00729 8.01214 9.00729C8.12453 9.00729 8.21569 9.04977 8.21569 9.10168Z" fill="#DA840D"/>
<path d="M9.41446 8.91192C9.41446 8.965 9.31082 9.00748 9.18344 9.00748C9.05607 9.00748 8.95117 8.965 8.95117 8.91192C8.95117 8.85883 9.05482 8.81754 9.18344 8.81754C9.31206 8.81754 9.41446 8.86001 9.41446 8.91192Z" fill="#DA840D"/>
<path d="M10.9228 9.14415C10.9228 9.21847 10.7829 9.27982 10.6093 9.27982C10.4358 9.27982 10.2959 9.21847 10.2959 9.14415C10.2959 9.06982 10.437 9.00729 10.6093 9.00729C10.7817 9.00729 10.9228 9.06864 10.9228 9.14415Z" fill="#DA840D"/>
<path d="M12.0343 8.91189C12.0346 8.93089 12.0288 8.94953 12.0178 8.96542C12.0068 8.98132 11.991 8.99375 11.9725 9.00113C11.9539 9.00851 11.9335 9.0105 11.9138 9.00685C11.894 9.0032 11.8759 8.99407 11.8617 8.98064C11.8474 8.9672 11.8378 8.95007 11.8339 8.93142C11.8301 8.91277 11.8322 8.89346 11.84 8.87596C11.8478 8.85845 11.8609 8.84354 11.8778 8.83313C11.8946 8.82271 11.9143 8.81728 11.9344 8.81751C11.9609 8.81751 11.9863 8.82746 12.0051 8.84516C12.0238 8.86286 12.0343 8.88686 12.0343 8.91189Z" fill="#DA840D"/>
<path d="M11.8333 9.65853C11.8333 9.70454 11.7384 9.74229 11.6198 9.74229C11.5011 9.74229 11.4075 9.70454 11.4075 9.65853C11.4075 9.61252 11.5024 9.57477 11.6198 9.57477C11.7371 9.57477 11.8333 9.61252 11.8333 9.65853Z" fill="#DA840D"/>
<path d="M13.5029 8.87039C13.5024 8.89779 13.4932 8.92441 13.4767 8.94689C13.4601 8.96936 13.4368 8.98667 13.4098 8.9966C13.3827 9.00653 13.3532 9.00864 13.3249 9.00266C13.2966 8.99667 13.2708 8.98287 13.2509 8.963C13.2309 8.94314 13.2176 8.9181 13.2128 8.8911C13.2079 8.86409 13.2117 8.83632 13.2235 8.81134C13.2354 8.78635 13.2549 8.76527 13.2796 8.75079C13.3042 8.7363 13.3328 8.72907 13.3618 8.73C13.3808 8.73046 13.3995 8.73445 13.4169 8.74176C13.4343 8.74906 13.45 8.75953 13.4631 8.77257C13.4762 8.78561 13.4865 8.80096 13.4933 8.81774C13.5001 8.83453 13.5034 8.85242 13.5029 8.87039Z" fill="#DA840D"/>
<path d="M14.2982 9.42748C14.2982 9.45107 14.2245 9.46995 14.1321 9.46995C14.0397 9.46995 13.9673 9.45107 13.9673 9.42748C13.9673 9.40388 14.041 9.38501 14.1321 9.38501C14.2233 9.38501 14.2982 9.40388 14.2982 9.42748Z" fill="#DA840D"/>
<path d="M14.8166 9.149C14.8197 9.16143 14.8187 9.17446 14.8136 9.18629C14.8085 9.19812 14.7996 9.20815 14.7881 9.21499C14.7767 9.22182 14.7633 9.22511 14.7498 9.22441C14.7363 9.2237 14.7234 9.21904 14.7128 9.21106C14.7023 9.20308 14.6946 9.19218 14.6909 9.1799C14.6873 9.16761 14.6877 9.15454 14.6923 9.14251C14.6968 9.13048 14.7052 9.1201 14.7163 9.1128C14.7274 9.1055 14.7406 9.10166 14.7542 9.10181C14.769 9.10047 14.7838 9.10465 14.7955 9.11345C14.8071 9.12226 14.8147 9.13501 14.8166 9.149Z" fill="#DA840D"/>
<path d="M14.2983 9.42735C14.2954 9.45293 14.2847 9.47718 14.2676 9.49717C14.2504 9.51715 14.2275 9.53202 14.2016 9.53997C14.1757 9.54793 14.1479 9.54863 14.1216 9.542C14.0953 9.53536 14.0715 9.52168 14.0533 9.50259C14.035 9.4835 14.023 9.45983 14.0186 9.43442C14.0143 9.40902 14.0178 9.38298 14.0288 9.35943C14.0398 9.33588 14.0578 9.31584 14.0805 9.30173C14.1033 9.28761 14.1299 9.28002 14.1572 9.27988C14.1767 9.28078 14.1958 9.28532 14.2135 9.29323C14.2312 9.30113 14.247 9.31225 14.2601 9.32595C14.2732 9.33965 14.2833 9.35566 14.2899 9.37306C14.2964 9.39046 14.2993 9.40891 14.2983 9.42735Z" fill="#DA840D"/>
<path d="M15.1001 9.19129C15.1001 9.23966 15.0226 9.27977 14.9265 9.27977C14.8303 9.27977 14.7542 9.23966 14.7542 9.19129C14.7542 9.14292 14.8316 9.10162 14.9265 9.10162C15.0214 9.10162 15.1001 9.14174 15.1001 9.19129Z" fill="#DA840D"/>
<path d="M19.1959 9.5136C19.1959 11.0367 15.7705 12.4548 11.6459 12.4548C7.52119 12.4548 4.06836 10.9317 4.06836 9.4086C4.06836 7.88552 7.52119 6.93109 11.6459 6.93109C15.7705 6.93109 19.1959 7.98934 19.1959 9.5136Z" fill="#E3AC8A"/>
<path d="M19.1135 9.2187C19.1135 10.743 15.7705 11.9782 11.6459 11.9782C7.52119 11.9782 4.177 10.743 4.177 9.2187C4.177 7.69444 7.52119 6.45923 11.6459 6.45923C15.7705 6.45923 19.1135 7.69444 19.1135 9.2187Z" fill="#DA840D"/>
<path d="M11.5373 11.0048C14.5974 11.0048 17.0781 10.0883 17.0781 8.95788C17.0781 7.82741 14.5974 6.91098 11.5373 6.91098C8.47727 6.91098 5.99658 7.82741 5.99658 8.95788C5.99658 10.0883 8.47727 11.0048 11.5373 11.0048Z" fill="#F0A508"/>
<path d="M7.80837 9.71308C7.80837 9.83106 7.66726 9.9337 7.49243 9.9337C7.3176 9.9337 7.17773 9.8346 7.17773 9.71308C7.17773 9.59156 7.31885 9.49246 7.49243 9.49246C7.66601 9.49246 7.80837 9.59038 7.80837 9.71308Z" fill="#DA840D"/>
<path d="M7.17801 8.78328C7.17702 8.81596 7.16587 8.84765 7.14594 8.87438C7.126 8.90111 7.09817 8.92169 7.06592 8.93356C7.03368 8.94543 6.99844 8.94806 6.96462 8.94112C6.9308 8.93418 6.8999 8.91797 6.87577 8.89453C6.85164 8.87109 6.83536 8.84145 6.82896 8.80932C6.82256 8.77719 6.82633 8.74398 6.83979 8.71386C6.85325 8.68374 6.87581 8.65803 6.90465 8.63995C6.93349 8.62187 6.96732 8.61223 7.00193 8.61221C7.04919 8.61314 7.09416 8.63161 7.12711 8.66363C7.16006 8.69564 7.17834 8.73863 7.17801 8.78328Z" fill="#DA840D"/>
<path d="M9.36576 9.98055C9.36977 10.0379 9.35543 10.0951 9.32462 10.1446C9.2938 10.1942 9.24793 10.2339 9.19295 10.2585C9.13798 10.2831 9.07643 10.2915 9.01632 10.2827C8.9562 10.2739 8.90028 10.2482 8.85582 10.2089C8.81136 10.1697 8.78042 10.1187 8.767 10.0627C8.75358 10.0066 8.7583 9.94802 8.78056 9.89453C8.80283 9.84104 8.84159 9.7951 8.89183 9.76269C8.94208 9.73027 9.00147 9.71287 9.06231 9.71274C9.14007 9.71051 9.2156 9.73741 9.27244 9.78758C9.32929 9.83775 9.36283 9.90711 9.36576 9.98055Z" fill="#DA840D"/>
<path d="M8.70637 8.91767C8.70637 8.99081 8.6202 9.05098 8.51531 9.05098C8.41041 9.05098 8.323 8.99081 8.323 8.91767C8.323 8.84452 8.40916 8.78317 8.51531 8.78317C8.62145 8.78317 8.70637 8.84806 8.70637 8.91767Z" fill="#DA840D"/>
<path d="M10.6371 9.55615C10.6416 9.59321 10.6342 9.6307 10.6157 9.66365C10.5972 9.69661 10.5685 9.72347 10.5335 9.74068C10.4984 9.75789 10.4587 9.76463 10.4195 9.76002C10.3803 9.75541 10.3435 9.73965 10.314 9.71485C10.2846 9.69004 10.2637 9.65735 10.2544 9.62111C10.245 9.58488 10.2475 9.5468 10.2615 9.51194C10.2756 9.47707 10.3005 9.44706 10.333 9.42588C10.3655 9.4047 10.404 9.39335 10.4435 9.39334C10.4919 9.39107 10.5394 9.40687 10.5756 9.43732C10.6118 9.46778 10.6339 9.51045 10.6371 9.55615Z" fill="#DA840D"/>
<path d="M10.7105 10.5316C10.7105 10.6071 10.6181 10.6685 10.5032 10.6685C10.3883 10.6685 10.2959 10.6071 10.2959 10.5316C10.2959 10.4561 10.3896 10.3959 10.5032 10.3959C10.6168 10.3959 10.7105 10.4561 10.7105 10.5316Z" fill="#DA840D"/>
<path d="M9.88378 9.06738C9.8818 9.09487 9.87131 9.1212 9.85361 9.14309C9.83591 9.16498 9.81179 9.18147 9.78424 9.19051C9.75669 9.19954 9.72694 9.20071 9.69869 9.19389C9.67044 9.18706 9.64494 9.17253 9.62536 9.15211C9.60579 9.13169 9.59301 9.10628 9.58861 9.07904C9.58422 9.05181 9.5884 9.02395 9.60064 8.99895C9.61288 8.97394 9.63263 8.95289 9.65744 8.93842C9.68225 8.92394 9.71102 8.91669 9.74017 8.91755C9.78003 8.91998 9.81732 8.93699 9.84413 8.96496C9.87094 8.99293 9.88516 9.02967 9.88378 9.06738Z" fill="#DA840D"/>
<path d="M12.0344 9.35533C12.0344 9.43083 11.9445 9.49218 11.8334 9.49218C11.7222 9.49218 11.6323 9.43083 11.6323 9.35533C11.6323 9.27982 11.7222 9.21848 11.8334 9.21848C11.9445 9.21848 12.0344 9.27982 12.0344 9.35533Z" fill="#DA840D"/>
<path d="M12.0344 10.0621C12.0344 10.1069 11.9445 10.1435 11.8334 10.1435C11.7222 10.1435 11.6323 10.1069 11.6323 10.0621C11.6323 10.0173 11.7222 9.98071 11.8334 9.98071C11.9445 9.98071 12.0344 10.0173 12.0344 10.0621Z" fill="#DA840D"/>
<path d="M13.3942 9.60218C13.3942 9.66353 13.313 9.71308 13.2118 9.71308C13.1107 9.71308 13.0308 9.66353 13.0308 9.60218C13.0308 9.54083 13.1119 9.49246 13.2118 9.49246C13.3117 9.49246 13.3942 9.54201 13.3942 9.60218Z" fill="#DA840D"/>
<path d="M13.177 10.3899C13.1858 10.4267 13.1823 10.4651 13.167 10.4998C13.1517 10.5346 13.1253 10.564 13.0915 10.584C13.0577 10.604 13.0181 10.6136 12.9783 10.6114C12.9385 10.6092 12.9004 10.5954 12.8693 10.5719C12.8382 10.5484 12.8155 10.5163 12.8046 10.4801C12.7936 10.4439 12.7948 10.4053 12.808 10.3698C12.8212 10.3342 12.8458 10.3035 12.8784 10.2817C12.9109 10.26 12.9498 10.2483 12.9897 10.2483C13.0343 10.244 13.079 10.2564 13.114 10.2829C13.149 10.3094 13.1717 10.3478 13.177 10.3899Z" fill="#DA840D"/>
<path d="M14.6905 10.161C14.6827 10.1959 14.6646 10.228 14.6384 10.2536C14.6121 10.2792 14.5787 10.2972 14.542 10.3056C14.5053 10.314 14.4669 10.3124 14.4311 10.301C14.3954 10.2896 14.3638 10.2689 14.34 10.2412C14.3162 10.2136 14.3011 10.1801 14.2966 10.1447C14.2921 10.1094 14.2983 10.0735 14.3144 10.0413C14.3306 10.0091 14.3561 9.98183 14.3879 9.96273C14.4198 9.94364 14.4567 9.93345 14.4944 9.93335C14.5521 9.93959 14.6049 9.96691 14.6416 10.0095C14.6782 10.052 14.6958 10.1064 14.6905 10.161Z" fill="#DA840D"/>
<path d="M14.5818 9.13485C14.5818 9.18086 14.5181 9.21861 14.4394 9.21861C14.3608 9.21861 14.2983 9.18086 14.2983 9.13485C14.2983 9.08884 14.362 9.05109 14.4394 9.05109C14.5169 9.05109 14.5818 9.08412 14.5818 9.13485Z" fill="#DA840D"/>
<path d="M15.7808 9.38142C15.7808 9.56428 15.6947 9.71293 15.5898 9.71293C15.4849 9.71293 15.3975 9.56428 15.3975 9.38142C15.3975 9.19856 15.4836 9.05109 15.5898 9.05109C15.6959 9.05109 15.7808 9.2021 15.7808 9.38142Z" fill="#DA840D"/>
<path d="M16.2613 9.04612C16.261 9.0695 16.251 9.09183 16.2335 9.10835C16.216 9.12488 16.1924 9.1343 16.1676 9.13461C16.1491 9.13461 16.131 9.12942 16.1156 9.1197C16.1002 9.10997 16.0882 9.09615 16.0811 9.07999C16.074 9.06382 16.0722 9.04603 16.0758 9.02886C16.0794 9.0117 16.0883 8.99593 16.1014 8.98356C16.1145 8.97118 16.1312 8.96276 16.1494 8.95934C16.1675 8.95593 16.1864 8.95768 16.2035 8.96438C16.2206 8.97107 16.2352 8.98241 16.2455 8.99697C16.2558 9.01152 16.2613 9.02862 16.2613 9.04612Z" fill="#DA840D"/>
<path d="M13.1121 8.76329C13.1121 8.84824 12.9947 8.91784 12.8511 8.91784C12.7075 8.91784 12.5901 8.84824 12.5901 8.76329C12.5901 8.67835 12.7062 8.60992 12.8511 8.60992C12.9959 8.60992 13.1121 8.67835 13.1121 8.76329Z" fill="#DA840D"/>
<path d="M8.21569 7.96804C8.21569 8.02113 8.12453 8.0636 8.01214 8.0636C7.89975 8.0636 7.80859 8.02113 7.80859 7.96804C7.80859 7.91495 7.89975 7.87366 8.01214 7.87366C8.12453 7.87366 8.21569 7.91613 8.21569 7.96804Z" fill="#DA840D"/>
<path d="M9.41446 7.77914C9.41446 7.83105 9.31082 7.87352 9.18344 7.87352C9.05607 7.87352 8.95117 7.83105 8.95117 7.77914C8.95117 7.72723 9.05482 7.68475 9.18344 7.68475C9.31206 7.68475 9.41446 7.72723 9.41446 7.77914Z" fill="#DA840D"/>
<path d="M10.9228 8.01051C10.9228 8.08602 10.7829 8.14737 10.6093 8.14737C10.4358 8.14737 10.2959 8.08602 10.2959 8.01051C10.2959 7.93501 10.437 7.87366 10.6093 7.87366C10.7817 7.87366 10.9228 7.93501 10.9228 8.01051Z" fill="#DA840D"/>
<path d="M12.0343 7.77911C12.0346 7.79811 12.0288 7.81675 12.0178 7.83264C12.0068 7.84854 11.991 7.86097 11.9725 7.86834C11.9539 7.87572 11.9335 7.87772 11.9138 7.87407C11.894 7.87042 11.8759 7.86129 11.8617 7.84786C11.8474 7.83442 11.8378 7.81729 11.8339 7.79864C11.8301 7.77999 11.8322 7.76068 11.84 7.74317C11.8478 7.72566 11.8609 7.71075 11.8778 7.70034C11.8946 7.68993 11.9143 7.6845 11.9344 7.68473C11.9609 7.68473 11.9863 7.69467 12.0051 7.71237C12.0238 7.73007 12.0343 7.75408 12.0343 7.77911Z" fill="#DA840D"/>
<path d="M11.8333 8.52607C11.8333 8.57208 11.7384 8.60984 11.6198 8.60984C11.5011 8.60984 11.4075 8.57208 11.4075 8.52607C11.4075 8.48006 11.5024 8.44113 11.6198 8.44113C11.7371 8.44113 11.8333 8.47888 11.8333 8.52607Z" fill="#DA840D"/>
<path d="M13.5027 7.73792C13.5029 7.76546 13.4944 7.79245 13.4783 7.81539C13.4621 7.83834 13.4391 7.8562 13.4121 7.86668C13.3851 7.87716 13.3555 7.87977 13.3269 7.87418C13.2984 7.8686 13.2722 7.85507 13.2519 7.83533C13.2316 7.8156 13.2179 7.79057 13.2128 7.76345C13.2076 7.73634 13.2111 7.70839 13.2229 7.68319C13.2347 7.658 13.2542 7.63671 13.2789 7.62208C13.3036 7.60744 13.3324 7.60012 13.3615 7.60106C13.3994 7.60168 13.4355 7.61641 13.4619 7.64205C13.4883 7.66768 13.503 7.70214 13.5027 7.73792Z" fill="#DA840D"/>
<path d="M14.2982 8.2947C14.2982 8.31712 14.2245 8.33599 14.1321 8.33599C14.0397 8.33599 13.9673 8.31712 13.9673 8.2947C13.9673 8.27228 14.041 8.25223 14.1321 8.25223C14.2233 8.25223 14.2982 8.2711 14.2982 8.2947Z" fill="#DA840D"/>
<path d="M14.8169 8.02236C14.8197 8.0348 14.8184 8.04778 14.8131 8.05948C14.8078 8.07118 14.7988 8.08104 14.7873 8.08768C14.7758 8.09432 14.7624 8.09741 14.7489 8.09653C14.7355 8.09565 14.7227 8.09084 14.7122 8.08277C14.7018 8.07469 14.6943 8.06376 14.6908 8.05147C14.6872 8.03919 14.6878 8.02617 14.6924 8.01422C14.6971 8.00226 14.7055 7.99197 14.7166 7.98476C14.7278 7.97755 14.741 7.97379 14.7544 7.97399C14.7695 7.97267 14.7845 7.97701 14.7962 7.98606C14.8079 7.99511 14.8153 8.00816 14.8169 8.02236Z" fill="#DA840D"/>
<path d="M14.2983 8.29481C14.2954 8.3204 14.2847 8.34464 14.2676 8.36463C14.2504 8.38461 14.2275 8.39948 14.2016 8.40743C14.1757 8.41539 14.1479 8.41609 14.1216 8.40946C14.0953 8.40283 14.0715 8.38914 14.0533 8.37005C14.035 8.35096 14.023 8.32729 14.0186 8.30189C14.0143 8.27648 14.0178 8.25044 14.0288 8.22689C14.0398 8.20335 14.0578 8.18331 14.0805 8.16919C14.1033 8.15507 14.1299 8.14748 14.1572 8.14734C14.1767 8.14825 14.1958 8.15278 14.2135 8.16069C14.2312 8.16859 14.247 8.17972 14.2601 8.19341C14.2732 8.20711 14.2833 8.22312 14.2899 8.24052C14.2964 8.25792 14.2993 8.27637 14.2983 8.29481Z" fill="#DA840D"/>
<path d="M15.1001 8.05762C15.1001 8.10717 15.0226 8.14728 14.9265 8.14728C14.8303 8.14728 14.7542 8.10717 14.7542 8.05762C14.7542 8.00807 14.8316 7.96796 14.9265 7.96796C15.0214 7.96796 15.1001 8.00807 15.1001 8.05762Z" fill="#DA840D"/>
<path d="M19.3145 7.48904C19.3145 9.01212 15.8879 10.4302 11.7633 10.4302C7.6386 10.4302 4.18701 8.90712 4.18701 7.38287C4.18701 5.85861 7.6386 4.91125 11.7633 4.91125C15.8879 4.91125 19.3145 5.96479 19.3145 7.48904Z" fill="#E3AC8A"/>
<path d="M19.2309 7.19653C19.2309 8.72079 15.8867 9.95601 11.762 9.95601C7.63735 9.95601 4.29565 8.71843 4.29565 7.19653C4.29565 5.67463 7.63859 4.43469 11.7633 4.43469C15.8879 4.43469 19.2309 5.66991 19.2309 7.19653Z" fill="#DA840D"/>
<path d="M17.1967 6.93339C17.1967 8.0636 14.7154 8.98028 11.6559 8.98028C8.59644 8.98028 6.1189 8.0636 6.1189 6.93339C6.1189 5.80317 8.59644 4.88531 11.6559 4.88531C14.7154 4.88531 17.1967 5.80199 17.1967 6.93339Z" fill="#F0A508"/>
<path d="M7.92576 7.68851C7.92576 7.80649 7.7859 7.90913 7.61108 7.90913C7.43625 7.90913 7.29639 7.81003 7.29639 7.68851C7.29639 7.567 7.4375 7.4679 7.61732 7.4679C7.79714 7.4679 7.92576 7.56582 7.92576 7.68851Z" fill="#DA840D"/>
<path d="M7.29633 6.75878C7.29486 6.79124 7.28336 6.82259 7.26325 6.84895C7.24314 6.8753 7.21531 6.89552 7.18317 6.9071C7.15104 6.91868 7.11602 6.92112 7.08244 6.91412C7.04886 6.90711 7.01818 6.89096 6.9942 6.86767C6.97022 6.84439 6.95399 6.81497 6.9475 6.78306C6.94101 6.75116 6.94455 6.71815 6.95769 6.68813C6.97084 6.6581 6.993 6.63237 7.02144 6.6141C7.04988 6.59584 7.08337 6.58585 7.11775 6.58536C7.14158 6.58551 7.16514 6.59013 7.18706 6.59896C7.20898 6.60779 7.22882 6.62064 7.24544 6.63678C7.26205 6.65292 7.27511 6.67201 7.28384 6.69296C7.29258 6.7139 7.29682 6.73628 7.29633 6.75878Z" fill="#DA840D"/>
<path d="M9.49078 7.95629C9.49453 8.01338 9.48005 8.07022 9.4492 8.11943C9.41836 8.16865 9.37258 8.20799 9.3178 8.23233C9.26301 8.25668 9.20175 8.26492 9.14195 8.25598C9.08215 8.24705 9.02657 8.22135 8.98242 8.18222C8.93826 8.14309 8.90756 8.09233 8.8943 8.03652C8.88104 7.98071 8.88583 7.92242 8.90805 7.86921C8.93026 7.81601 8.96889 7.77033 9.01891 7.73811C9.06893 7.70588 9.12804 7.68859 9.18858 7.68848C9.26621 7.68626 9.34161 7.71319 9.39825 7.76339C9.4549 7.81359 9.48817 7.88296 9.49078 7.95629Z" fill="#DA840D"/>
<path d="M8.82502 6.89201C8.82502 6.96634 8.73886 7.0265 8.63271 7.0265C8.52657 7.0265 8.44165 6.96634 8.44165 6.89201C8.44165 6.81769 8.52782 6.7587 8.63271 6.7587C8.73761 6.7587 8.82502 6.81887 8.82502 6.89201Z" fill="#DA840D"/>
<path d="M10.7555 7.52572C10.7601 7.56278 10.7526 7.60027 10.7341 7.63322C10.7156 7.66618 10.6869 7.69304 10.6519 7.71025C10.6168 7.72746 10.5771 7.7342 10.5379 7.72959C10.4987 7.72498 10.4619 7.70922 10.4325 7.68442C10.403 7.65961 10.3821 7.62692 10.3728 7.59069C10.3634 7.55445 10.3659 7.51637 10.3799 7.48151C10.394 7.44664 10.4189 7.41663 10.4514 7.39545C10.4839 7.37427 10.5225 7.36293 10.5619 7.36292C10.6104 7.36065 10.6578 7.37644 10.694 7.4069C10.7302 7.43735 10.7523 7.48003 10.7555 7.52572Z" fill="#DA840D"/>
<path d="M10.8291 8.50733C10.8291 8.58283 10.7367 8.64418 10.6218 8.64418C10.507 8.64418 10.4146 8.58283 10.4146 8.50733C10.4146 8.43182 10.507 8.37637 10.6218 8.37637C10.7367 8.37637 10.8291 8.433 10.8291 8.50733Z" fill="#DA840D"/>
<path d="M10.0028 7.04307C10.0028 7.08031 9.98712 7.11602 9.95925 7.14234C9.93138 7.16867 9.89358 7.18346 9.85417 7.18346C9.81476 7.18346 9.77696 7.16867 9.74909 7.14234C9.72122 7.11602 9.70557 7.08031 9.70557 7.04307C9.70557 7.00584 9.72122 6.97013 9.74909 6.9438C9.77696 6.91747 9.81476 6.90268 9.85417 6.90268C9.89358 6.90268 9.93138 6.91747 9.95925 6.9438C9.98712 6.97013 10.0028 7.00584 10.0028 7.04307Z" fill="#DA840D"/>
<path d="M12.1528 7.33096C12.1528 7.40647 12.0629 7.46782 11.9518 7.46782C11.8406 7.46782 11.7507 7.40647 11.7507 7.33096C11.7507 7.25546 11.8406 7.19647 11.9518 7.19647C12.0629 7.19647 12.1528 7.25546 12.1528 7.33096Z" fill="#DA840D"/>
<path d="M12.1528 8.03758C12.1528 8.08241 12.0629 8.11898 11.9518 8.11898C11.8406 8.11898 11.7507 8.08241 11.7507 8.03758C11.7507 7.99275 11.8406 7.95618 11.9518 7.95618C12.0629 7.95618 12.1528 7.99275 12.1528 8.03758Z" fill="#DA840D"/>
<path d="M13.5128 7.57761C13.5128 7.63896 13.4317 7.68851 13.3305 7.68851C13.2294 7.68851 13.1482 7.63896 13.1482 7.57761C13.1482 7.51627 13.2306 7.4679 13.3305 7.4679C13.4304 7.4679 13.5128 7.51745 13.5128 7.57761Z" fill="#DA840D"/>
<path d="M13.2954 8.36553C13.3045 8.4025 13.3012 8.44121 13.2859 8.4763C13.2707 8.5114 13.2442 8.54115 13.2103 8.56141C13.1763 8.58168 13.1365 8.59147 13.0964 8.58942C13.0563 8.58738 13.0179 8.57359 12.9865 8.54999C12.955 8.52638 12.9321 8.49412 12.921 8.45767C12.9098 8.42123 12.9109 8.3824 12.9241 8.34658C12.9374 8.31075 12.9621 8.2797 12.9948 8.25773C13.0276 8.23576 13.0667 8.22396 13.1069 8.22396C13.1517 8.21931 13.1967 8.23157 13.232 8.25808C13.2673 8.2846 13.2901 8.32322 13.2954 8.36553Z" fill="#DA840D"/>
<path d="M14.8092 8.14028C14.8001 8.17467 14.781 8.20597 14.7541 8.23064C14.7271 8.25531 14.6934 8.27236 14.6567 8.27987C14.6201 8.28738 14.5819 8.28504 14.5466 8.27312C14.5112 8.26121 14.4801 8.24019 14.4568 8.21244C14.4334 8.18469 14.4187 8.15132 14.4144 8.11611C14.4101 8.0809 14.4163 8.04525 14.4323 8.01319C14.4483 7.98113 14.4735 7.95394 14.505 7.9347C14.5365 7.91547 14.5731 7.90494 14.6106 7.90433C14.6403 7.9071 14.669 7.91545 14.6951 7.9289C14.7212 7.94235 14.7442 7.96062 14.7628 7.98262C14.7813 8.00463 14.7949 8.02992 14.8029 8.057C14.8109 8.08408 14.813 8.1124 14.8092 8.14028Z" fill="#DA840D"/>
<path d="M14.7002 7.11028C14.7002 7.15629 14.6365 7.19405 14.5579 7.19405C14.4792 7.19405 14.4167 7.15629 14.4167 7.11028C14.4167 7.06427 14.4792 7.02652 14.5579 7.02652C14.6365 7.02652 14.7002 7.06427 14.7002 7.11028Z" fill="#DA840D"/>
<path d="M15.8992 7.35686C15.8992 7.53972 15.8131 7.68837 15.7069 7.68837C15.6008 7.68837 15.5159 7.53972 15.5159 7.35686C15.5159 7.17399 15.602 7.02652 15.7069 7.02652C15.8118 7.02652 15.8992 7.17399 15.8992 7.35686Z" fill="#DA840D"/>
<path d="M16.3787 7.02183C16.3784 7.03905 16.3728 7.05581 16.3625 7.07001C16.3522 7.08421 16.3377 7.09521 16.3208 7.10164C16.3038 7.10807 16.2853 7.10963 16.2675 7.10613C16.2496 7.10263 16.2333 7.09422 16.2205 7.08197C16.2077 7.06971 16.199 7.05416 16.1955 7.03725C16.1921 7.02035 16.194 7.00286 16.201 6.98698C16.208 6.97109 16.2199 6.95753 16.235 6.94798C16.2502 6.93844 16.268 6.93335 16.2862 6.93335C16.3109 6.93366 16.3344 6.94312 16.3517 6.95968C16.369 6.97624 16.3787 6.99857 16.3787 7.02183Z" fill="#DA840D"/>
<path d="M13.2295 6.73873C13.2295 6.82367 13.1133 6.8921 12.9697 6.8921C12.8261 6.8921 12.7087 6.82367 12.7087 6.73873C12.7087 6.65378 12.8249 6.58536 12.9697 6.58536C13.1146 6.58536 13.2295 6.65378 13.2295 6.73873Z" fill="#DA840D"/>
<path d="M8.33437 5.94465C8.33437 5.99656 8.24321 6.03903 8.13082 6.03903C8.01843 6.03903 7.92603 5.99656 7.92603 5.94465C7.92603 5.89274 8.01718 5.84909 8.13082 5.84909C8.24446 5.84909 8.33437 5.89156 8.33437 5.94465Z" fill="#DA840D"/>
<path d="M9.53287 5.75484C9.53287 5.80793 9.42923 5.84922 9.3006 5.84922C9.17198 5.84922 9.06958 5.80793 9.06958 5.75484C9.06958 5.70175 9.17323 5.66046 9.3006 5.66046C9.42798 5.66046 9.53287 5.70293 9.53287 5.75484Z" fill="#DA840D"/>
<path d="M11.0414 5.98594C11.0414 6.06145 10.9016 6.1228 10.728 6.1228C10.5544 6.1228 10.4146 6.06145 10.4146 5.98594C10.4146 5.91044 10.5557 5.84909 10.728 5.84909C10.9003 5.84909 11.0414 5.91044 11.0414 5.98594Z" fill="#DA840D"/>
<path d="M12.1532 5.75464C12.1504 5.778 12.1387 5.79958 12.1201 5.81526C12.1016 5.83093 12.0776 5.8396 12.0527 5.8396C12.0278 5.8396 12.0038 5.83093 11.9852 5.81526C11.9667 5.79958 11.9549 5.778 11.9521 5.75464C11.9549 5.73127 11.9667 5.70969 11.9852 5.69402C12.0038 5.67834 12.0278 5.66968 12.0527 5.66968C12.0776 5.66968 12.1016 5.67834 12.1201 5.69402C12.1387 5.70969 12.1504 5.73127 12.1532 5.75464Z" fill="#DA840D"/>
<path d="M11.9517 6.50036C11.9517 6.54755 11.8568 6.5853 11.7382 6.5853C11.6196 6.5853 11.5247 6.54755 11.5247 6.50036C11.5247 6.45317 11.6208 6.4166 11.7382 6.4166C11.8556 6.4166 11.9517 6.45435 11.9517 6.50036Z" fill="#DA840D"/>
<path d="M13.6215 5.71332C13.6218 5.74067 13.6134 5.76747 13.5975 5.79032C13.5816 5.81318 13.5589 5.83105 13.5322 5.84168C13.5056 5.85231 13.4761 5.85521 13.4477 5.85002C13.4193 5.84483 13.3931 5.83178 13.3726 5.81252C13.352 5.79326 13.338 5.76867 13.3322 5.74186C13.3265 5.71506 13.3293 5.68724 13.3403 5.66195C13.3514 5.63666 13.3701 5.61503 13.3941 5.59981C13.4182 5.58459 13.4465 5.57647 13.4754 5.57647C13.4946 5.57615 13.5137 5.57947 13.5315 5.58622C13.5493 5.59297 13.5654 5.60302 13.5791 5.61577C13.5927 5.62853 13.6034 5.64373 13.6107 5.66048C13.618 5.67724 13.6217 5.6952 13.6215 5.71332Z" fill="#DA840D"/>
<path d="M14.4169 6.27041C14.4169 6.29282 14.3419 6.3117 14.2508 6.3117C14.1596 6.3117 14.0859 6.29282 14.0859 6.27041C14.0859 6.24799 14.1596 6.22794 14.2508 6.22794C14.3419 6.22794 14.4169 6.25271 14.4169 6.27041Z" fill="#DA840D"/>
<path d="M14.9352 5.99201C14.9313 6.00483 14.9231 6.0161 14.9119 6.02413C14.9006 6.03216 14.8869 6.0365 14.8727 6.0365C14.8586 6.0365 14.8449 6.03216 14.8336 6.02413C14.8224 6.0161 14.8142 6.00483 14.8103 5.99201C14.8142 5.97919 14.8224 5.96791 14.8336 5.95988C14.8449 5.95185 14.8586 5.94751 14.8727 5.94751C14.8869 5.94751 14.9006 5.95185 14.9119 5.95988C14.9231 5.96791 14.9313 5.97919 14.9352 5.99201Z" fill="#DA840D"/>
<path d="M14.4169 6.27024C14.414 6.29583 14.4034 6.32008 14.3862 6.34006C14.3691 6.36005 14.3461 6.37491 14.3202 6.38287C14.2943 6.39082 14.2665 6.39152 14.2402 6.38489C14.2139 6.37826 14.1902 6.36457 14.1719 6.34548C14.1537 6.3264 14.1416 6.30272 14.1373 6.27732C14.133 6.25192 14.1365 6.22587 14.1475 6.20233C14.1585 6.17878 14.1764 6.15874 14.1992 6.14462C14.222 6.13051 14.2486 6.12292 14.2758 6.12277C14.2953 6.12368 14.3145 6.12822 14.3321 6.13612C14.3498 6.14403 14.3656 6.15515 14.3788 6.16885C14.3919 6.18255 14.402 6.19855 14.4085 6.21595C14.4151 6.23335 14.4179 6.2518 14.4169 6.27024Z" fill="#DA840D"/>
<path d="M15.2185 6.03322C15.2185 6.08277 15.1411 6.12288 15.0449 6.12288C14.9488 6.12288 14.8713 6.08277 14.8713 6.03322C14.8713 5.98366 14.9488 5.94473 15.0449 5.94473C15.1411 5.94473 15.2185 5.98366 15.2185 6.03322Z" fill="#DA840D"/>
<path d="M19.3145 6.18774C19.3145 7.71199 15.8879 9.12889 11.7633 9.12889C7.6386 9.12889 4.18701 7.607 4.18701 6.08274C4.18701 4.55848 7.6386 3.60522 11.7633 3.60522C15.8879 3.60522 19.3145 4.66348 19.3145 6.18774Z" fill="#E3AC8A"/>
<path d="M19.2309 5.89875C19.2309 7.42183 15.8867 8.65822 11.762 8.65822C7.63735 8.65822 4.29565 7.41711 4.29565 5.89875C4.29565 4.38039 7.63859 3.13809 11.7633 3.13809C15.8879 3.13809 19.2309 4.36505 19.2309 5.89875Z" fill="#DA840D"/>
<path d="M17.1967 5.63206C17.1967 6.76228 14.7154 7.67895 11.6559 7.67895C8.59644 7.67895 6.1189 6.76228 6.1189 5.63206C6.1189 4.50184 8.59644 3.58398 11.6559 3.58398C14.7154 3.58398 17.1967 4.50066 17.1967 5.63206Z" fill="#F0A508"/>
<path d="M7.92576 6.38718C7.92576 6.50516 7.7859 6.6078 7.61108 6.6078C7.43625 6.6078 7.29639 6.5087 7.29639 6.38718C7.29639 6.26567 7.4375 6.16656 7.61108 6.16656C7.78465 6.16656 7.92576 6.26567 7.92576 6.38718Z" fill="#DA840D"/>
<path d="M7.29633 5.45748C7.29486 5.48994 7.28336 5.52129 7.26325 5.54765C7.24314 5.57401 7.21531 5.59422 7.18317 5.60581C7.15104 5.61739 7.11602 5.61982 7.08244 5.61282C7.04886 5.60581 7.01818 5.58967 6.9942 5.56638C6.97022 5.54309 6.95399 5.51367 6.9475 5.48177C6.94101 5.44986 6.94455 5.41685 6.95769 5.38683C6.97084 5.3568 6.993 5.33107 7.02144 5.31281C7.04988 5.29454 7.08337 5.28455 7.11775 5.28406C7.14158 5.28421 7.16514 5.28883 7.18706 5.29766C7.20898 5.30649 7.22882 5.31934 7.24544 5.33548C7.26205 5.35162 7.27511 5.37071 7.28384 5.39166C7.29258 5.4126 7.29682 5.43498 7.29633 5.45748Z" fill="#DA840D"/>
<path d="M9.18477 6.92264C9.35167 6.92264 9.48697 6.80274 9.48697 6.65483C9.48697 6.50693 9.35167 6.38702 9.18477 6.38702C9.01787 6.38702 8.88257 6.50693 8.88257 6.65483C8.88257 6.80274 9.01787 6.92264 9.18477 6.92264Z" fill="#DA840D"/>
<path d="M8.82502 5.59207C8.82502 5.66522 8.73886 5.72539 8.63271 5.72539C8.52657 5.72539 8.44165 5.66286 8.44165 5.59207C8.44165 5.52129 8.52782 5.45758 8.63271 5.45758C8.73761 5.45758 8.82502 5.51775 8.82502 5.59207Z" fill="#DA840D"/>
<path d="M10.7555 6.22442C10.7601 6.26148 10.7526 6.29897 10.7341 6.33192C10.7156 6.36488 10.6869 6.39174 10.6519 6.40895C10.6168 6.42616 10.5771 6.4329 10.5379 6.42829C10.4987 6.42368 10.4619 6.40792 10.4325 6.38312C10.403 6.35831 10.3821 6.32562 10.3728 6.28939C10.3634 6.25315 10.3659 6.21507 10.3799 6.18021C10.394 6.14534 10.4189 6.11533 10.4514 6.09415C10.4839 6.07297 10.5225 6.06163 10.5619 6.06162C10.6104 6.05935 10.6578 6.07514 10.694 6.1056C10.7302 6.13605 10.7523 6.17873 10.7555 6.22442Z" fill="#DA840D"/>
<path d="M10.8291 7.20574C10.8291 7.28125 10.7367 7.34259 10.6218 7.34259C10.507 7.34259 10.4146 7.28125 10.4146 7.20574C10.4146 7.13024 10.507 7.07007 10.6218 7.07007C10.7367 7.07007 10.8291 7.13142 10.8291 7.20574Z" fill="#DA840D"/>
<path d="M10.0026 5.74284C10.0004 5.77006 9.98987 5.79608 9.97227 5.81773C9.95467 5.83938 9.93077 5.85571 9.9035 5.86473C9.87623 5.87375 9.84676 5.87506 9.81872 5.8685C9.79067 5.86194 9.76525 5.8478 9.74558 5.82781C9.72591 5.80782 9.71283 5.78284 9.70795 5.75593C9.70307 5.72903 9.70659 5.70136 9.7181 5.67632C9.7296 5.65128 9.74858 5.62995 9.77272 5.61495C9.79685 5.59994 9.82509 5.59191 9.85399 5.59183C9.89484 5.59336 9.9334 5.6101 9.96124 5.63839C9.98908 5.66668 10.0039 5.70423 10.0026 5.74284Z" fill="#DA840D"/>
<path d="M12.1528 6.0297C12.1528 6.1052 12.0629 6.16655 11.9518 6.16655C11.8406 6.16655 11.7507 6.1052 11.7507 6.0297C11.7507 5.95419 11.8406 5.89874 11.9518 5.89874C12.0629 5.89874 12.1528 5.95419 12.1528 6.0297Z" fill="#DA840D"/>
<path d="M12.1528 6.73625C12.1528 6.78108 12.0629 6.81765 11.9518 6.81765C11.8406 6.81765 11.7507 6.78108 11.7507 6.73625C11.7507 6.69142 11.8406 6.65485 11.9518 6.65485C12.0629 6.65485 12.1528 6.69142 12.1528 6.73625Z" fill="#DA840D"/>
<path d="M13.5128 6.27628C13.5128 6.33763 13.4317 6.38718 13.3305 6.38718C13.2294 6.38718 13.1482 6.33763 13.1482 6.27628C13.1482 6.21494 13.2306 6.16656 13.3305 6.16656C13.4304 6.16656 13.5128 6.21612 13.5128 6.27628Z" fill="#DA840D"/>
<path d="M13.2954 7.06438C13.3045 7.10135 13.3012 7.14006 13.2859 7.17515C13.2707 7.21025 13.2442 7.23999 13.2103 7.26026C13.1763 7.28053 13.1365 7.29032 13.0964 7.28827C13.0563 7.28622 13.0179 7.27244 12.9865 7.24884C12.955 7.22523 12.9321 7.19297 12.921 7.15652C12.9098 7.12008 12.9109 7.08125 12.9241 7.04543C12.9374 7.0096 12.9621 6.97855 12.9948 6.95658C13.0276 6.93462 13.0667 6.92281 13.1069 6.92281C13.1517 6.91816 13.1967 6.93042 13.232 6.95694C13.2673 6.98345 13.2901 7.02207 13.2954 7.06438Z" fill="#DA840D"/>
<path d="M14.8092 6.84255C14.8001 6.87695 14.781 6.90825 14.754 6.93292C14.7271 6.95759 14.6934 6.97464 14.6567 6.98215C14.62 6.98966 14.5819 6.98732 14.5465 6.9754C14.5112 6.96349 14.4801 6.94247 14.4568 6.91472C14.4334 6.88697 14.4187 6.8536 14.4144 6.81839C14.4101 6.78317 14.4163 6.74752 14.4323 6.71546C14.4483 6.6834 14.4735 6.65622 14.505 6.63698C14.5365 6.61774 14.5731 6.60721 14.6106 6.6066C14.6403 6.60921 14.6691 6.61746 14.6953 6.63086C14.7216 6.64426 14.7446 6.66253 14.7632 6.68457C14.7817 6.70661 14.7954 6.73197 14.8033 6.75912C14.8112 6.78627 14.8132 6.81465 14.8092 6.84255Z" fill="#DA840D"/>
<path d="M14.7002 5.80917C14.7002 5.85636 14.6365 5.89411 14.5579 5.89411C14.4792 5.89411 14.4167 5.85636 14.4167 5.80917C14.4167 5.76198 14.4792 5.7254 14.5579 5.7254C14.6365 5.7254 14.7002 5.76316 14.7002 5.80917Z" fill="#DA840D"/>
<path d="M15.8992 6.05574C15.8992 6.2386 15.8131 6.38725 15.7069 6.38725C15.6008 6.38725 15.5159 6.2386 15.5159 6.05574C15.5159 5.87287 15.602 5.7254 15.7069 5.7254C15.8118 5.7254 15.8992 5.87405 15.8992 6.05574Z" fill="#DA840D"/>
<path d="M16.3787 5.72072C16.3784 5.73793 16.3728 5.7547 16.3625 5.7689C16.3522 5.7831 16.3377 5.7941 16.3208 5.80053C16.3039 5.80696 16.2853 5.80852 16.2675 5.80502C16.2496 5.80152 16.2333 5.79311 16.2205 5.78086C16.2077 5.7686 16.199 5.75304 16.1955 5.73614C16.1921 5.71924 16.194 5.70175 16.201 5.68586C16.208 5.66998 16.2199 5.65641 16.235 5.64687C16.2502 5.63733 16.268 5.63223 16.2863 5.63223C16.2985 5.63223 16.3106 5.63453 16.3219 5.63899C16.3332 5.64345 16.3434 5.64999 16.352 5.65822C16.3606 5.66645 16.3674 5.67622 16.372 5.68695C16.3766 5.69767 16.3788 5.70915 16.3787 5.72072Z" fill="#DA840D"/>
<path d="M13.2295 5.43743C13.2295 5.52237 13.1133 5.59198 12.9697 5.59198C12.8261 5.59198 12.7087 5.52237 12.7087 5.43743C12.7087 5.35248 12.8249 5.28406 12.9697 5.28406C13.1146 5.28406 13.2295 5.35248 13.2295 5.43743Z" fill="#DA840D"/>
<path d="M8.33437 4.64348C8.33437 4.69539 8.24321 4.73786 8.13082 4.73786C8.01843 4.73786 7.92603 4.69539 7.92603 4.64348C7.92603 4.59157 8.01718 4.5491 8.13082 4.5491C8.24446 4.5491 8.33437 4.59157 8.33437 4.64348Z" fill="#DA840D"/>
<path d="M9.53287 4.45345C9.53287 4.50654 9.42923 4.54901 9.3006 4.54901C9.17198 4.54901 9.06958 4.50654 9.06958 4.45345C9.06958 4.40036 9.17323 4.35907 9.3006 4.35907C9.42798 4.35907 9.53287 4.40154 9.53287 4.45345Z" fill="#DA840D"/>
<path d="M11.0414 4.68478C11.0414 4.76028 10.9016 4.82163 10.728 4.82163C10.5544 4.82163 10.4146 4.76028 10.4146 4.68478C10.4146 4.60927 10.5557 4.5491 10.728 4.5491C10.9003 4.5491 11.0414 4.60927 11.0414 4.68478Z" fill="#DA840D"/>
<path d="M12.153 4.45352C12.1532 4.47252 12.1475 4.49116 12.1364 4.50705C12.1254 4.52294 12.1096 4.53537 12.0911 4.54275C12.0726 4.55013 12.0521 4.55212 12.0324 4.54847C12.0127 4.54482 11.9945 4.5357 11.9803 4.52226C11.9661 4.50883 11.9564 4.49169 11.9526 4.47305C11.9487 4.4544 11.9508 4.43509 11.9586 4.41758C11.9664 4.40007 11.9796 4.38516 11.9964 4.37475C12.0132 4.36434 12.033 4.3589 12.0531 4.35914C12.0796 4.35914 12.105 4.36908 12.1237 4.38678C12.1424 4.40448 12.153 4.42849 12.153 4.45352Z" fill="#DA840D"/>
<path d="M11.9517 5.20021C11.9517 5.24622 11.8568 5.28397 11.7382 5.28397C11.6196 5.28397 11.5247 5.24622 11.5247 5.20021C11.5247 5.1542 11.6208 5.11526 11.7382 5.11526C11.8556 5.11526 11.9517 5.15302 11.9517 5.20021Z" fill="#DA840D"/>
<path d="M13.6215 4.41225C13.6218 4.4396 13.6134 4.4664 13.5975 4.48926C13.5816 4.51211 13.5589 4.52999 13.5322 4.54061C13.5056 4.55124 13.4761 4.55415 13.4477 4.54895C13.4193 4.54376 13.3931 4.53071 13.3726 4.51145C13.352 4.4922 13.338 4.4676 13.3322 4.4408C13.3265 4.41399 13.3293 4.38617 13.3403 4.36088C13.3514 4.33559 13.3701 4.31396 13.3941 4.29874C13.4182 4.28352 13.4465 4.2754 13.4754 4.2754C13.4946 4.27524 13.5135 4.27866 13.5313 4.28547C13.549 4.29228 13.5651 4.30234 13.5787 4.31506C13.5923 4.32778 13.603 4.34292 13.6104 4.3596C13.6178 4.37629 13.6215 4.39418 13.6215 4.41225Z" fill="#DA840D"/>
<path d="M14.4169 4.96911C14.4169 4.99152 14.3419 5.0104 14.2508 5.0104C14.1596 5.0104 14.0859 4.99152 14.0859 4.96911C14.0859 4.94669 14.1596 4.92664 14.2508 4.92664C14.3419 4.92664 14.4169 4.94551 14.4169 4.96911Z" fill="#DA840D"/>
<path d="M14.9355 4.6906C14.9386 4.70298 14.9376 4.71597 14.9325 4.72776C14.9275 4.73956 14.9187 4.74958 14.9073 4.75643C14.896 4.76329 14.8827 4.76665 14.8692 4.76604C14.8557 4.76543 14.8428 4.76088 14.8322 4.75303C14.8216 4.74518 14.8139 4.73441 14.8101 4.72222C14.8062 4.71002 14.8065 4.697 14.8108 4.68496C14.8152 4.67292 14.8234 4.66245 14.8343 4.65501C14.8452 4.64756 14.8583 4.64351 14.8718 4.64341C14.8868 4.64205 14.9018 4.64619 14.9136 4.65498C14.9255 4.66376 14.9333 4.67652 14.9355 4.6906Z" fill="#DA840D"/>
<path d="M14.4169 4.96894C14.414 4.99453 14.4034 5.01877 14.3862 5.03876C14.3691 5.05874 14.3461 5.07361 14.3202 5.08156C14.2943 5.08952 14.2665 5.09022 14.2402 5.08359C14.2139 5.07695 14.1902 5.06327 14.1719 5.04418C14.1537 5.02509 14.1416 5.00142 14.1373 4.97602C14.133 4.95062 14.1365 4.92457 14.1475 4.90102C14.1585 4.87748 14.1764 4.85744 14.1992 4.84332C14.222 4.82921 14.2486 4.82162 14.2758 4.82147C14.2953 4.82238 14.3145 4.82691 14.3321 4.83482C14.3498 4.84273 14.3656 4.85385 14.3788 4.86755C14.3919 4.88125 14.402 4.89725 14.4085 4.91465C14.4151 4.93205 14.4179 4.9505 14.4169 4.96894Z" fill="#DA840D"/>
<path d="M15.2185 4.73189C15.2185 4.78144 15.1411 4.82155 15.0449 4.82155C14.9488 4.82155 14.8713 4.78144 14.8713 4.73189C14.8713 4.68234 14.9488 4.6434 15.0449 4.6434C15.1411 4.6434 15.2185 4.68352 15.2185 4.73189Z" fill="#DA840D"/>
<path d="M19.0261 4.84765C18.8513 3.38238 15.7194 2.21677 11.8807 2.21677C8.28923 2.21677 5.31717 3.23726 4.80518 4.56686C4.68691 4.74656 4.62299 4.95342 4.62036 5.165C4.62036 6.68926 7.92959 8.21234 11.8807 8.21234C15.8318 8.21234 19.1135 6.79662 19.1135 5.27C19.1133 5.12523 19.0836 4.98185 19.0261 4.84765Z" fill="#C66720"/>
<path d="M19.4669 4.58338C19.4669 6.10763 16.0403 7.52571 11.9156 7.52571C7.79094 7.52571 4.33936 6.00264 4.33936 4.4831C4.33936 2.96356 7.79094 2.00558 11.9156 2.00558C16.0403 2.00558 19.4669 3.05912 19.4669 4.58338Z" fill="#E3AC8A"/>
<path d="M19.4007 4.28965C19.4007 5.81391 16.154 6.96536 12.033 6.96536C7.91212 6.96536 4.56543 5.73014 4.56543 4.20589C4.56543 2.68163 7.90837 1.44641 12.033 1.44641C16.1577 1.44641 19.4007 2.76539 19.4007 4.28965Z" fill="#DA840D"/>
<path d="M11.8083 6.07453C14.8684 6.07453 17.3491 5.15811 17.3491 4.02764C17.3491 2.89717 14.8684 1.98074 11.8083 1.98074C8.74826 1.98074 6.26758 2.89717 6.26758 4.02764C6.26758 5.15811 8.74826 6.07453 11.8083 6.07453Z" fill="#F0A508"/>
<path d="M8.07835 4.78257C8.07835 4.90054 7.93724 5.00436 7.76366 5.00436C7.59008 5.00436 7.44897 4.90526 7.44897 4.78257C7.44897 4.65987 7.59008 4.56195 7.76366 4.56195C7.93724 4.56195 8.07835 4.66105 8.07835 4.78257Z" fill="#DA840D"/>
<path d="M7.44862 3.85405C7.44691 3.88655 7.43515 3.91786 7.41479 3.94411C7.39443 3.97036 7.36637 3.99039 7.33409 4.00172C7.3018 4.01306 7.2667 4.0152 7.23314 4.00788C7.19958 4.00055 7.16903 3.9841 7.14527 3.96054C7.12152 3.93698 7.10559 3.90735 7.09948 3.87533C7.09336 3.8433 7.09732 3.81029 7.11087 3.78037C7.12441 3.75045 7.14695 3.72495 7.17569 3.70701C7.20442 3.68907 7.2381 3.67948 7.27254 3.67944C7.29627 3.6799 7.31966 3.68479 7.34137 3.69383C7.36309 3.70287 7.3827 3.71588 7.39906 3.73211C7.41543 3.74834 7.42824 3.76747 7.43674 3.7884C7.44525 3.80933 7.44929 3.83164 7.44862 3.85405Z" fill="#DA840D"/>
<path d="M9.63929 5.05152C9.64279 5.10858 9.62809 5.16531 9.59708 5.21439C9.56607 5.26346 9.52019 5.30261 9.46537 5.32677C9.41055 5.35094 9.34931 5.359 9.28959 5.34992C9.22986 5.34084 9.1744 5.31504 9.13037 5.27584C9.08634 5.23665 9.05577 5.18588 9.04263 5.1301C9.02948 5.07431 9.03435 5.01608 9.05662 4.96294C9.07889 4.90981 9.11752 4.8642 9.16753 4.83204C9.21753 4.79988 9.2766 4.78263 9.33709 4.78254C9.37563 4.78144 9.41403 4.78752 9.45008 4.80045C9.48613 4.81337 9.51913 4.83288 9.5472 4.85786C9.57526 4.88284 9.59784 4.91281 9.61364 4.94604C9.62945 4.97926 9.63816 5.01511 9.63929 5.05152Z" fill="#DA840D"/>
<path d="M8.97736 3.98738C8.97736 4.0617 8.8912 4.12069 8.78505 4.12069C8.67891 4.12069 8.59399 4.0617 8.59399 3.98738C8.59399 3.91305 8.68016 3.85406 8.78505 3.85406C8.88995 3.85406 8.97736 3.91423 8.97736 3.98738Z" fill="#DA840D"/>
<path d="M10.9081 4.61981C10.9126 4.65687 10.9052 4.69436 10.8867 4.72731C10.8682 4.76026 10.8395 4.78713 10.8045 4.80434C10.7694 4.82155 10.7297 4.82829 10.6905 4.82368C10.6513 4.81907 10.6145 4.80331 10.585 4.7785C10.5556 4.7537 10.5347 4.72101 10.5254 4.68477C10.516 4.64854 10.5185 4.61046 10.5325 4.57559C10.5466 4.54073 10.5715 4.51072 10.604 4.48954C10.6365 4.46836 10.675 4.45701 10.7145 4.457C10.763 4.45442 10.8106 4.47011 10.8469 4.50062C10.8832 4.53114 10.9052 4.574 10.9081 4.61981Z" fill="#DA840D"/>
<path d="M10.9815 5.60255C10.9815 5.67806 10.8891 5.7394 10.7742 5.7394C10.6593 5.7394 10.5669 5.67806 10.5669 5.60255C10.5669 5.52705 10.6593 5.4657 10.7742 5.4657C10.8891 5.4657 10.9815 5.52705 10.9815 5.60255Z" fill="#DA840D"/>
<path d="M10.1549 4.1385C10.1527 4.16572 10.1422 4.19175 10.1246 4.2134C10.107 4.23504 10.0831 4.25138 10.0558 4.26039C10.0286 4.26941 9.99911 4.27072 9.97106 4.26416C9.94301 4.25761 9.9176 4.24347 9.89792 4.22347C9.87825 4.20348 9.86517 4.1785 9.86029 4.1516C9.85541 4.12469 9.85894 4.09703 9.87044 4.07199C9.88194 4.04694 9.90092 4.02562 9.92506 4.01061C9.94919 3.9956 9.97744 3.98757 10.0063 3.98749C10.0266 3.9881 10.0466 3.99249 10.065 4.00043C10.0835 4.00837 10.1001 4.01968 10.114 4.03372C10.1278 4.04776 10.1385 4.06425 10.1455 4.08224C10.1526 4.10022 10.1558 4.11934 10.1549 4.1385Z" fill="#DA840D"/>
<path d="M12.3054 4.42625C12.3054 4.50176 12.2155 4.56192 12.1044 4.56192C11.9932 4.56192 11.9033 4.50176 11.9033 4.42625C11.9033 4.35075 11.9932 4.2894 12.1044 4.2894C12.2155 4.2894 12.3054 4.35075 12.3054 4.42625Z" fill="#DA840D"/>
<path d="M12.3054 5.13304C12.3054 5.17787 12.2155 5.21444 12.1044 5.21444C11.9932 5.21444 11.9033 5.17787 11.9033 5.13304C11.9033 5.08821 11.9932 5.05164 12.1044 5.05164C12.2155 5.05164 12.3054 5.08821 12.3054 5.13304Z" fill="#DA840D"/>
<path d="M13.6652 4.67285C13.6652 4.7342 13.5828 4.78257 13.4829 4.78257C13.383 4.78257 13.3005 4.7342 13.3005 4.67285C13.3005 4.6115 13.383 4.56195 13.4829 4.56195C13.5828 4.56195 13.6652 4.6115 13.6652 4.67285Z" fill="#DA840D"/>
<path d="M13.4478 5.46109C13.4569 5.49805 13.4535 5.53676 13.4383 5.57186C13.423 5.60696 13.3966 5.6367 13.3626 5.65697C13.3287 5.67724 13.2889 5.68703 13.2488 5.68498C13.2087 5.68293 13.1703 5.66915 13.1388 5.64554C13.1074 5.62194 13.0845 5.58968 13.0733 5.55323C13.0621 5.51678 13.0632 5.47796 13.0765 5.44213C13.0897 5.40631 13.1144 5.37526 13.1472 5.35329C13.1799 5.33132 13.2191 5.31952 13.2592 5.31952C13.304 5.31517 13.3488 5.32756 13.384 5.35401C13.4193 5.38047 13.4422 5.4189 13.4478 5.46109Z" fill="#DA840D"/>
<path d="M14.9615 5.23215C14.9537 5.26703 14.9356 5.29911 14.9093 5.32469C14.8831 5.35026 14.8497 5.36829 14.813 5.37668C14.7763 5.38507 14.7379 5.38347 14.7021 5.37209C14.6664 5.3607 14.6348 5.33998 14.611 5.31233C14.5872 5.28468 14.5721 5.25123 14.5676 5.21585C14.5631 5.18046 14.5693 5.14459 14.5854 5.11238C14.6016 5.08017 14.627 5.05294 14.6589 5.03384C14.6908 5.01474 14.7277 5.00455 14.7654 5.00446C14.8231 5.0107 14.8759 5.03802 14.9125 5.08057C14.9492 5.12312 14.9667 5.17752 14.9615 5.23215Z" fill="#DA840D"/>
<path d="M14.8516 4.20573C14.8516 4.25174 14.7891 4.28949 14.7104 4.28949C14.6318 4.28949 14.5693 4.25174 14.5693 4.20573C14.5693 4.15972 14.6318 4.12079 14.7104 4.12079C14.7891 4.12079 14.8516 4.15854 14.8516 4.20573Z" fill="#DA840D"/>
<path d="M16.0516 4.4523C16.0516 4.63517 15.9654 4.78264 15.8593 4.78264C15.7531 4.78264 15.6682 4.63517 15.6682 4.4523C15.6682 4.26944 15.7544 4.12079 15.8593 4.12079C15.9642 4.12079 16.0516 4.26944 16.0516 4.4523Z" fill="#DA840D"/>
<path d="M16.531 4.11725C16.5305 4.13441 16.5247 4.15105 16.5142 4.16509C16.5038 4.17914 16.4892 4.18996 16.4722 4.19621C16.4553 4.20245 16.4368 4.20385 16.4191 4.20022C16.4013 4.19659 16.3851 4.18809 16.3724 4.1758C16.3597 4.1635 16.3512 4.14794 16.3478 4.13107C16.3444 4.11421 16.3464 4.09678 16.3535 4.08096C16.3605 4.06514 16.3724 4.05165 16.3875 4.04215C16.4026 4.03266 16.4204 4.02759 16.4386 4.02759C16.4509 4.02774 16.463 4.03018 16.4743 4.03477C16.4856 4.03936 16.4958 4.04601 16.5044 4.05434C16.513 4.06266 16.5198 4.0725 16.5243 4.0833C16.5289 4.09409 16.5311 4.10563 16.531 4.11725Z" fill="#DA840D"/>
<path d="M13.3818 3.83399C13.3818 3.91893 13.2656 3.98736 13.122 3.98736C12.9784 3.98736 12.8623 3.91893 12.8623 3.83399C12.8623 3.74905 12.9784 3.67944 13.1233 3.67944C13.2681 3.67944 13.3818 3.74905 13.3818 3.83399Z" fill="#DA840D"/>
<path d="M8.4916 3.03911C8.4916 3.09102 8.40044 3.13349 8.28805 3.13349C8.17566 3.13349 8.08325 3.09102 8.08325 3.03911C8.08325 2.9872 8.17441 2.94473 8.28805 2.94473C8.40169 2.94473 8.4916 2.9872 8.4916 3.03911Z" fill="#DA840D"/>
<path d="M9.6857 2.85021C9.6857 2.90212 9.58206 2.94459 9.45343 2.94459C9.32481 2.94459 9.22241 2.90212 9.22241 2.85021C9.22241 2.7983 9.32606 2.75583 9.45343 2.75583C9.58081 2.75583 9.6857 2.7983 9.6857 2.85021Z" fill="#DA840D"/>
<path d="M11.1938 3.08138C11.1938 3.15689 11.0539 3.21824 10.8803 3.21824C10.7068 3.21824 10.5669 3.15689 10.5669 3.08138C10.5669 3.00588 10.7068 2.94925 10.8803 2.94925C11.0539 2.94925 11.1938 3.00588 11.1938 3.08138Z" fill="#DA840D"/>
<path d="M12.3053 2.85003C12.3056 2.86898 12.2998 2.88757 12.2889 2.90344C12.2779 2.91931 12.2622 2.93174 12.2438 2.93916C12.2253 2.94657 12.2049 2.94863 12.1852 2.94508C12.1655 2.94153 12.1474 2.93252 12.1331 2.9192C12.1188 2.90589 12.1091 2.88886 12.1051 2.8703C12.1011 2.85173 12.103 2.83245 12.1106 2.81492C12.1182 2.79739 12.1312 2.7824 12.1478 2.77184C12.1645 2.76129 12.1841 2.75565 12.2042 2.75565C12.2174 2.7555 12.2305 2.75782 12.2428 2.7625C12.255 2.76717 12.2662 2.7741 12.2756 2.78288C12.285 2.79166 12.2925 2.80211 12.2976 2.81364C12.3027 2.82517 12.3053 2.83754 12.3053 2.85003Z" fill="#DA840D"/>
<path d="M12.1041 3.59582C12.1041 3.64301 12.0092 3.67958 11.8905 3.67958C11.7719 3.67958 11.677 3.64301 11.677 3.59582C11.677 3.54863 11.7732 3.51205 11.8905 3.51205C12.0079 3.51205 12.1041 3.54981 12.1041 3.59582Z" fill="#DA840D"/>
<path d="M13.7739 2.80755C13.7744 2.83495 13.7662 2.86187 13.7505 2.88487C13.7347 2.90788 13.7121 2.92594 13.6854 2.93675C13.6588 2.94756 13.6293 2.95063 13.6008 2.94558C13.5723 2.94052 13.5461 2.92756 13.5254 2.90836C13.5047 2.88915 13.4905 2.86456 13.4847 2.83772C13.4788 2.81088 13.4816 2.78301 13.4926 2.75765C13.5035 2.73229 13.5223 2.71059 13.5463 2.69532C13.5704 2.68004 13.5988 2.67188 13.6278 2.67188C13.6468 2.67172 13.6657 2.67511 13.6833 2.68184C13.7009 2.68858 13.717 2.69853 13.7306 2.71113C13.7441 2.72373 13.7549 2.73873 13.7624 2.75527C13.7698 2.77182 13.7737 2.78958 13.7739 2.80755Z" fill="#DA840D"/>
<path d="M14.5692 3.36444C14.5692 3.38804 14.4943 3.40691 14.4031 3.40691C14.312 3.40691 14.2383 3.38804 14.2383 3.36444C14.2383 3.34085 14.312 3.32315 14.4031 3.32315C14.4943 3.32315 14.5692 3.34203 14.5692 3.36444Z" fill="#DA840D"/>
<path d="M15.0873 3.08623C15.0904 3.09861 15.0894 3.1116 15.0844 3.12339C15.0793 3.13519 15.0705 3.14521 15.0592 3.15206C15.0478 3.15892 15.0345 3.16228 15.0211 3.16167C15.0076 3.16106 14.9947 3.15651 14.9841 3.14866C14.9735 3.14081 14.9657 3.13004 14.9619 3.11784C14.9581 3.10565 14.9584 3.09263 14.9627 3.08059C14.9671 3.06854 14.9753 3.05808 14.9862 3.05063C14.9971 3.04319 15.0102 3.03914 15.0237 3.03904C15.0387 3.03768 15.0536 3.04182 15.0655 3.05061C15.0773 3.05939 15.0852 3.07215 15.0873 3.08623Z" fill="#DA840D"/>
<path d="M14.5692 3.36459C14.571 3.38307 14.5688 3.40171 14.5626 3.41932C14.5563 3.43693 14.5463 3.45312 14.5331 3.46685C14.5199 3.48058 14.5037 3.49154 14.4858 3.49905C14.4678 3.50655 14.4484 3.51043 14.4287 3.51043C14.4091 3.51043 14.3896 3.50655 14.3717 3.49905C14.3537 3.49154 14.3376 3.48058 14.3243 3.46685C14.3111 3.45312 14.3011 3.43693 14.2949 3.41932C14.2886 3.40171 14.2864 3.38307 14.2882 3.36459C14.2864 3.34611 14.2886 3.32747 14.2949 3.30986C14.3011 3.29225 14.3111 3.27606 14.3243 3.26234C14.3376 3.24861 14.3537 3.23764 14.3717 3.23013C14.3896 3.22263 14.4091 3.21875 14.4287 3.21875C14.4484 3.21875 14.4678 3.22263 14.4858 3.23013C14.5037 3.23764 14.5199 3.24861 14.5331 3.26234C14.5463 3.27606 14.5563 3.29225 14.5626 3.30986C14.5688 3.32747 14.571 3.34611 14.5692 3.36459Z" fill="#DA840D"/>
<path d="M15.3698 3.12872C15.3698 3.17828 15.2937 3.21839 15.1975 3.21839C15.1013 3.21839 15.0239 3.17828 15.0239 3.12872C15.0239 3.07917 15.1013 3.03906 15.1975 3.03906C15.2937 3.03906 15.3698 3.07917 15.3698 3.12872Z" fill="#DA840D"/>
<path d="M19.4344 3.11345C19.4344 4.04311 18.1607 4.93265 16.2313 5.48479C14.8187 5.87205 13.3541 6.06398 11.8831 6.05461C10.3509 6.05461 9.09215 5.67355 7.82091 5.58271C5.70051 5.42698 4.30688 3.96643 4.30688 3.00846C4.30688 1.4842 7.75972 0.530945 11.8831 0.530945C16.0066 0.530945 19.4344 1.5892 19.4344 3.11345Z" fill="#E3AC8A"/>
<path d="M19.3395 2.91154C19.3395 4.4358 15.9954 5.67102 11.8707 5.67102C7.74602 5.67102 4.40308 4.4358 4.40308 2.91154C4.40308 1.38728 7.74227 0.152069 11.8707 0.152069C15.9991 0.152069 19.3395 1.38728 19.3395 2.91154Z" fill="#DA840D"/>
<path d="M17.3042 2.65077C17.3042 3.78098 14.8229 4.69766 11.7634 4.69766C8.70395 4.69766 6.22266 3.78098 6.22266 2.65077C6.22266 1.52055 8.7027 0.602692 11.7634 0.602692C14.8241 0.602692 17.3042 1.51937 17.3042 2.65077Z" fill="#F0A508"/>
<path d="M8.03319 3.40592C8.03319 3.5239 7.89208 3.62654 7.7185 3.62654C7.54492 3.62654 7.40381 3.52744 7.40381 3.40592C7.40381 3.2844 7.54492 3.1853 7.7185 3.1853C7.89208 3.1853 8.03319 3.28322 8.03319 3.40592Z" fill="#DA840D"/>
<path d="M7.404 2.47753C7.40253 2.5101 7.39097 2.54153 7.37075 2.56794C7.35054 2.59435 7.32255 2.61457 7.29027 2.62608C7.258 2.63759 7.22285 2.63989 7.18921 2.6327C7.15556 2.6255 7.12489 2.60912 7.10101 2.5856C7.07713 2.56208 7.06109 2.53245 7.05488 2.50039C7.04867 2.46833 7.05257 2.43525 7.06608 2.40527C7.0796 2.37528 7.10215 2.34971 7.13092 2.33172C7.15969 2.31374 7.19342 2.30414 7.22792 2.30411C7.25154 2.30457 7.27483 2.30942 7.29646 2.31838C7.31809 2.32735 7.33764 2.34025 7.35399 2.35636C7.37034 2.37246 7.38318 2.39145 7.39176 2.41225C7.40034 2.43304 7.4045 2.45522 7.404 2.47753Z" fill="#DA840D"/>
<path d="M9.5943 3.67367C9.59806 3.73075 9.58357 3.78759 9.55273 3.83681C9.52188 3.88603 9.4761 3.92536 9.42132 3.94971C9.36653 3.97406 9.30527 3.9823 9.24547 3.97336C9.18567 3.96443 9.13009 3.93873 9.08593 3.89959C9.04178 3.86046 9.01108 3.8097 8.99782 3.75389C8.98456 3.69808 8.98935 3.6398 9.01156 3.58659C9.03378 3.53338 9.0724 3.48771 9.12242 3.45548C9.17244 3.42326 9.23156 3.40597 9.2921 3.40586C9.36973 3.40363 9.44513 3.43057 9.50178 3.48077C9.55842 3.53097 9.59169 3.60033 9.5943 3.67367Z" fill="#DA840D"/>
<path d="M8.93244 2.61073C8.93244 2.68388 8.84628 2.74404 8.74013 2.74404C8.63399 2.74404 8.54907 2.68388 8.54907 2.61073C8.54907 2.53758 8.63524 2.47742 8.74138 2.47742C8.84753 2.47742 8.93244 2.53641 8.93244 2.61073Z" fill="#DA840D"/>
<path d="M10.8642 3.24285C10.8685 3.27966 10.8609 3.31683 10.8423 3.34944C10.8238 3.38206 10.7952 3.40859 10.7604 3.42553C10.7255 3.44246 10.686 3.449 10.6472 3.44428C10.6083 3.43956 10.5718 3.4238 10.5427 3.39909C10.5135 3.37438 10.4929 3.34189 10.4837 3.3059C10.4745 3.26991 10.4771 3.23213 10.4911 3.19754C10.5051 3.16296 10.5299 3.13322 10.5622 3.11224C10.5944 3.09126 10.6327 3.08003 10.6719 3.08005C10.7202 3.07779 10.7675 3.09362 10.8035 3.1241C10.8395 3.15459 10.8613 3.19726 10.8642 3.24285Z" fill="#DA840D"/>
<path d="M10.9366 4.22445C10.9366 4.29995 10.8442 4.3613 10.7293 4.3613C10.6144 4.3613 10.522 4.29995 10.522 4.22445C10.522 4.14894 10.6144 4.08878 10.7293 4.08878C10.8442 4.08878 10.9366 4.15012 10.9366 4.22445Z" fill="#DA840D"/>
<path d="M10.115 2.76058C10.113 2.78787 10.1027 2.81403 10.0852 2.83584C10.0678 2.85765 10.0439 2.87417 10.0167 2.88337C9.9894 2.89256 9.95989 2.89403 9.93175 2.88759C9.90361 2.88115 9.87808 2.86709 9.85828 2.84713C9.83848 2.82718 9.82529 2.80219 9.82032 2.77524C9.81535 2.7483 9.81882 2.72057 9.8303 2.69546C9.84179 2.67035 9.86078 2.64896 9.88495 2.63391C9.90913 2.61886 9.93743 2.61081 9.96638 2.61075C9.98656 2.61136 10.0064 2.61572 10.0248 2.62358C10.0432 2.63144 10.0598 2.64265 10.0736 2.65657C10.0874 2.67048 10.0981 2.68683 10.1052 2.70468C10.1123 2.72252 10.1157 2.74152 10.115 2.76058Z" fill="#DA840D"/>
<path d="M12.2604 3.04838C12.2604 3.12389 12.1705 3.18524 12.0593 3.18524C11.9482 3.18524 11.8633 3.12389 11.8633 3.04838C11.8633 2.97288 11.9532 2.91153 12.0643 2.91153C12.1755 2.91153 12.2604 2.97288 12.2604 3.04838Z" fill="#DA840D"/>
<path d="M12.2604 3.75499C12.2604 3.79982 12.1705 3.83639 12.0593 3.83639C11.9482 3.83639 11.8633 3.79982 11.8633 3.75499C11.8633 3.71016 11.9532 3.67358 12.0643 3.67358C12.1755 3.67358 12.2604 3.71016 12.2604 3.75499Z" fill="#DA840D"/>
<path d="M13.6203 3.29502C13.6203 3.35637 13.5378 3.40592 13.4379 3.40592C13.338 3.40592 13.2556 3.35637 13.2556 3.29502C13.2556 3.23367 13.338 3.1853 13.4379 3.1853C13.5378 3.1853 13.6203 3.23485 13.6203 3.29502Z" fill="#DA840D"/>
<path d="M13.4032 4.08296C13.3924 4.12213 13.3682 4.15681 13.3343 4.18157C13.3004 4.20632 13.2587 4.21975 13.2159 4.21975C13.173 4.21975 13.1314 4.20632 13.0975 4.18157C13.0636 4.15681 13.0394 4.12213 13.0286 4.08296C13.0394 4.04379 13.0636 4.00911 13.0975 3.98435C13.1314 3.9596 13.173 3.94617 13.2159 3.94617C13.2587 3.94617 13.3004 3.9596 13.3343 3.98435C13.3682 4.00911 13.3924 4.04379 13.4032 4.08296Z" fill="#DA840D"/>
<path d="M14.9166 3.85537C14.9223 3.88272 14.9215 3.91092 14.9143 3.93795C14.9071 3.96497 14.8936 3.99015 14.8749 4.01168C14.8561 4.0332 14.8326 4.05054 14.8059 4.06244C14.7792 4.07434 14.7501 4.08052 14.7206 4.08052C14.6911 4.08052 14.6619 4.07434 14.6353 4.06244C14.6086 4.05054 14.585 4.0332 14.5663 4.01168C14.5475 3.99015 14.5341 3.96497 14.5269 3.93795C14.5196 3.91092 14.5188 3.88272 14.5245 3.85537C14.5178 3.82756 14.5179 3.79869 14.5246 3.77089C14.5313 3.74309 14.5446 3.71708 14.5635 3.69479C14.5823 3.6725 14.6062 3.65451 14.6334 3.64214C14.6606 3.62977 14.6904 3.62335 14.7206 3.62335C14.7508 3.62335 14.7806 3.62977 14.8078 3.64214C14.835 3.65451 14.8589 3.6725 14.8777 3.69479C14.8965 3.71708 14.9098 3.74309 14.9166 3.77089C14.9233 3.79869 14.9233 3.82756 14.9166 3.85537Z" fill="#DA840D"/>
<path d="M14.8066 2.83129C14.8066 2.8773 14.7442 2.91506 14.6655 2.91506C14.5869 2.91506 14.5244 2.8773 14.5244 2.83129C14.5244 2.78528 14.5869 2.74753 14.6655 2.74753C14.7442 2.74753 14.8066 2.78174 14.8066 2.83129Z" fill="#DA840D"/>
<path d="M16.0069 3.07448C16.0069 3.25734 15.9207 3.40599 15.8146 3.40599C15.7084 3.40599 15.6235 3.25734 15.6235 3.07448C15.6235 2.89161 15.7084 2.74414 15.8146 2.74414C15.9207 2.74414 16.0069 2.89161 16.0069 3.07448Z" fill="#DA840D"/>
<path d="M16.4836 2.73942C16.4834 2.75664 16.4778 2.7734 16.4675 2.7876C16.4572 2.8018 16.4426 2.81281 16.4257 2.81923C16.4088 2.82566 16.3903 2.82722 16.3724 2.82372C16.3546 2.82022 16.3383 2.81181 16.3255 2.79956C16.3127 2.7873 16.304 2.77175 16.3005 2.75485C16.297 2.73794 16.299 2.72045 16.306 2.70457C16.313 2.68868 16.3249 2.67512 16.34 2.66558C16.3552 2.65603 16.373 2.65094 16.3912 2.65094C16.4159 2.65125 16.4394 2.66071 16.4566 2.67727C16.4739 2.69383 16.4836 2.71616 16.4836 2.73942Z" fill="#DA840D"/>
<path d="M13.3369 2.45614C13.3369 2.54108 13.2208 2.61069 13.0759 2.61069C12.931 2.61069 12.8162 2.54108 12.8162 2.45614C12.8162 2.37119 12.9323 2.30276 13.0759 2.30276C13.2195 2.30276 13.3369 2.37119 13.3369 2.45614Z" fill="#DA840D"/>
<path d="M8.44155 1.66224C8.44155 1.71415 8.35039 1.75662 8.23675 1.75662C8.12311 1.75662 8.0332 1.71415 8.0332 1.66224C8.0332 1.61033 8.12436 1.56668 8.23675 1.56668C8.34914 1.56668 8.44155 1.60915 8.44155 1.66224Z" fill="#DA840D"/>
<path d="M9.64032 1.47216C9.64032 1.52525 9.53667 1.56654 9.40805 1.56654C9.27943 1.56654 9.17578 1.52525 9.17578 1.47216C9.17578 1.41907 9.28068 1.37778 9.40805 1.37778C9.53542 1.37778 9.64032 1.41553 9.64032 1.47216Z" fill="#DA840D"/>
<path d="M11.1489 1.70353C11.1489 1.77904 11.009 1.84039 10.8354 1.84039C10.6618 1.84039 10.522 1.77904 10.522 1.70353C10.522 1.62803 10.6618 1.56668 10.8354 1.56668C11.009 1.56668 11.1489 1.62803 11.1489 1.70353Z" fill="#DA840D"/>
<path d="M12.2602 1.47223C12.2604 1.49118 12.2547 1.50977 12.2437 1.52564C12.2328 1.5415 12.217 1.55394 12.1986 1.56135C12.1801 1.56876 12.1597 1.57083 12.14 1.56727C12.1203 1.56372 12.1022 1.55471 12.0879 1.5414C12.0737 1.52808 12.0639 1.51106 12.0599 1.49249C12.0559 1.47392 12.0578 1.45464 12.0654 1.43711C12.0731 1.41958 12.086 1.40459 12.1027 1.39404C12.1193 1.38348 12.1389 1.37785 12.159 1.37785C12.1722 1.37769 12.1854 1.38002 12.1976 1.38469C12.2099 1.38936 12.221 1.39629 12.2305 1.40507C12.2399 1.41385 12.2473 1.42431 12.2524 1.43583C12.2575 1.44736 12.2602 1.45973 12.2602 1.47223Z" fill="#DA840D"/>
<path d="M12.0594 2.21892C12.0594 2.26493 11.9632 2.30268 11.8459 2.30268C11.7285 2.30268 11.6323 2.26493 11.6323 2.21892C11.6323 2.1729 11.7285 2.13397 11.8459 2.13397C11.9632 2.13397 12.0594 2.17172 12.0594 2.21892Z" fill="#DA840D"/>
<path d="M13.7277 1.43102C13.7284 1.45822 13.7205 1.48502 13.7051 1.50799C13.6896 1.53095 13.6673 1.54904 13.6409 1.55995C13.6145 1.57085 13.5852 1.57407 13.5569 1.5692C13.5286 1.56432 13.5024 1.55158 13.4818 1.53259C13.4611 1.51359 13.447 1.48922 13.4411 1.46258C13.4352 1.43595 13.4378 1.40825 13.4486 1.38304C13.4595 1.35782 13.478 1.33624 13.5019 1.32104C13.5258 1.30584 13.554 1.29771 13.5828 1.2977C13.6207 1.29739 13.6571 1.31122 13.6843 1.33619C13.7114 1.36116 13.727 1.39524 13.7277 1.43102Z" fill="#DA840D"/>
<path d="M14.5243 1.98781C14.5243 2.01023 14.4494 2.02911 14.3582 2.02911C14.2671 2.02911 14.1921 2.01023 14.1921 1.98781C14.1921 1.9654 14.2671 1.94534 14.3582 1.94534C14.4494 1.94534 14.5243 1.96422 14.5243 1.98781Z" fill="#DA840D"/>
<path d="M15.0427 1.70931C15.0458 1.72169 15.0447 1.73467 15.0397 1.74647C15.0346 1.75826 15.0258 1.76828 15.0145 1.77514C15.0031 1.782 14.9898 1.78535 14.9764 1.78474C14.9629 1.78413 14.95 1.77959 14.9394 1.77174C14.9288 1.76389 14.9211 1.75312 14.9172 1.74092C14.9134 1.72872 14.9137 1.7157 14.918 1.70366C14.9224 1.69162 14.9306 1.68116 14.9415 1.67371C14.9524 1.66627 14.9655 1.66222 14.979 1.66212C14.994 1.66076 15.009 1.6649 15.0208 1.67368C15.0327 1.68247 15.0405 1.69522 15.0427 1.70931Z" fill="#DA840D"/>
<path d="M14.5246 1.98783C14.5217 2.01342 14.511 2.03767 14.4939 2.05765C14.4767 2.07764 14.4538 2.0925 14.4279 2.10046C14.402 2.10841 14.3742 2.10912 14.3479 2.10248C14.3216 2.09585 14.2979 2.08216 14.2796 2.06308C14.2613 2.04399 14.2493 2.02031 14.245 1.99491C14.2406 1.96951 14.2442 1.94346 14.2551 1.91992C14.2661 1.89637 14.2841 1.87633 14.3069 1.86221C14.3296 1.8481 14.3562 1.84051 14.3835 1.84036C14.403 1.84127 14.4221 1.84581 14.4398 1.85371C14.4575 1.86162 14.4733 1.87274 14.4864 1.88644C14.4995 1.90014 14.5096 1.91614 14.5162 1.93354C14.5227 1.95094 14.5256 1.96939 14.5246 1.98783Z" fill="#DA840D"/>
<path d="M15.3249 1.75062C15.3249 1.80017 15.2475 1.84028 15.1526 1.84028C15.0577 1.84028 14.979 1.80017 14.979 1.75062C14.979 1.70107 15.0564 1.66214 15.1526 1.66214C15.2487 1.66214 15.3249 1.70107 15.3249 1.75062Z" fill="#DA840D"/>
<path d="M13.0044 9.1231C12.9762 9.0212 12.9103 8.93218 12.8187 8.87206C12.7272 8.81194 12.6159 8.78466 12.5049 8.79513C11.7557 8.84586 11.6932 10.0315 11.9567 10.5494C12.0352 10.6068 12.1338 10.6335 12.2325 10.6243C12.3312 10.6151 12.4224 10.5706 12.4875 10.4999C12.7272 10.2462 12.8034 9.87933 12.8883 9.55608C12.9299 9.41293 12.9686 9.26861 13.0044 9.1231Z" fill="#EEBE30"/>
<path d="M18.5664 2.96226C18.3059 2.86714 18.0656 2.72846 17.8571 2.55288C17.608 2.32461 17.3783 2.07805 17.1703 1.81553C16.8594 1.45452 16.4073 1.31295 15.9328 1.25986C15.4046 1.19969 14.8589 1.31059 14.3269 1.28463C14.0416 1.2773 13.762 1.20742 13.5102 1.08054C13.2604 0.946042 13.0644 0.726605 12.8508 0.536662C12.4325 0.182732 11.9018 0.182732 11.3736 0.102508C11.0237 0.0441556 10.6697 0.00985238 10.3146 -0.000131518C9.95121 -0.00838989 9.31559 -0.0131089 9.07208 0.313686C8.80235 0.431663 8.70744 0.745481 8.64625 1.00975C8.61179 1.2278 8.55704 1.44257 8.48267 1.65154C8.37171 1.88921 8.20009 2.09716 7.98316 2.25676C7.50738 2.63075 6.91921 2.83131 6.381 3.09204C5.94393 3.30322 5.40821 3.60288 5.17344 4.02641C5.03233 4.28006 5.04857 4.71422 5.29832 4.9018C5.60676 5.12596 5.84153 4.7036 5.90772 4.49006C5.9689 4.29658 5.99138 4.09956 6.15747 3.95445C6.38121 3.77094 6.64716 3.63925 6.9342 3.56984C7.17521 3.50614 7.4337 3.50614 7.67097 3.43653C7.95577 3.33525 8.22367 3.19579 8.46643 3.02243C8.75115 2.84311 9.02838 2.6685 9.36679 2.59064C9.64776 2.52929 10.0823 2.53873 10.3034 2.74165C10.4246 2.88037 10.5289 3.03154 10.6143 3.19232C10.7282 3.34228 10.8791 3.46376 11.0539 3.54625C11.406 3.73619 11.8094 3.81995 12.1778 3.9922C12.3009 4.0527 12.4071 4.14006 12.4875 4.24703C12.4999 4.26473 12.5112 4.28242 12.5224 4.3013C12.5315 4.31466 12.5398 4.32844 12.5474 4.34259C12.9495 5.04337 12.4437 5.78545 12.4575 6.52516C12.4575 6.92392 12.7634 7.57633 13.2804 7.25661C13.3154 7.23538 13.3479 7.21178 13.3803 7.18819C13.439 6.67145 13.4865 6.14174 13.6763 5.65449C13.8548 5.20146 14.0984 4.78264 14.0721 4.2836C14.0572 4.00872 13.9185 3.75625 13.8848 3.4849C13.8374 3.10737 14.197 2.93631 14.5204 2.86198C14.9819 2.74597 15.471 2.77749 15.9116 2.95165C16.7407 3.27372 17.4101 3.93793 18.3317 4.04765C18.6963 4.0913 19.2245 4.03703 19.3694 3.66069C19.5142 3.28434 18.8262 3.06726 18.5664 2.96226Z" fill="#EEBE30"/>
<path opacity="0.5" d="M13.4927 3.45434C13.4549 3.32717 13.385 3.21053 13.2891 3.11438C13.1932 3.01824 13.0741 2.94544 12.942 2.90221C12.7522 2.85502 12.4525 2.97418 12.4762 3.19126C12.4766 3.1956 12.4779 3.19983 12.48 3.20369C12.4821 3.20754 12.4851 3.21094 12.4887 3.21367C12.3638 3.46496 12.726 3.89794 12.8508 4.08198C12.9423 4.19981 13 4.338 13.0182 4.4831C13.0394 4.67068 12.9757 4.85591 12.9945 5.04113C13.0019 5.12371 13.0681 5.47647 13.2442 5.33489C13.4453 5.17445 13.4665 4.81108 13.5077 4.5822C13.5908 4.2098 13.5857 3.82466 13.4927 3.45434Z" fill="white"/>
<path opacity="0.5" d="M17.1244 2.23309C16.9203 1.91308 16.5947 1.67854 16.2141 1.57714C15.8295 1.47214 14.9066 1.35888 14.8092 1.89096C14.8084 1.9017 14.8112 1.91241 14.8173 1.92153C14.8234 1.93065 14.8323 1.93771 14.8429 1.94169C14.8676 1.95865 14.8894 1.97892 14.9079 2.00186C14.9131 2.01148 14.9214 2.01932 14.9316 2.02427C14.9417 2.02769 14.9527 2.02769 14.9628 2.02427C15.0341 2.08599 15.1196 2.13123 15.2126 2.15641C15.4415 2.20431 15.6749 2.23039 15.9094 2.23427C16.2341 2.26376 16.4151 2.3959 16.6412 2.60118C16.766 2.71916 17.1082 2.96691 17.2843 2.77932C17.4191 2.64719 17.1981 2.34163 17.1244 2.23309Z" fill="white"/>
<path opacity="0.5" d="M6.02646 3.71507C5.97172 3.70861 5.91635 3.70861 5.86162 3.71507C5.86184 3.71275 5.8615 3.71041 5.86061 3.70822C5.85973 3.70604 5.85833 3.70408 5.85653 3.70249C5.85472 3.7009 5.85255 3.69971 5.85019 3.69903C5.84783 3.69835 5.84533 3.69819 5.84289 3.69856C5.75161 3.7123 5.66497 3.74588 5.58977 3.79666C5.51458 3.84743 5.45289 3.914 5.40957 3.99114C5.3796 4.05013 5.32091 4.25658 5.44953 4.2672C5.57815 4.27782 5.6793 4.14923 5.75173 4.08198C5.8567 3.97962 5.95591 3.87211 6.04893 3.7599C6.05169 3.75571 6.0533 3.75093 6.0536 3.74601C6.05389 3.74108 6.05288 3.73616 6.05064 3.73169C6.0484 3.72723 6.04502 3.72337 6.04079 3.72047C6.03657 3.71757 6.03164 3.71571 6.02646 3.71507Z" fill="white"/>
<path opacity="0.5" d="M21.0892 10.5175C20.9785 10.4953 20.8643 10.4942 20.7532 10.5145C20.6421 10.5347 20.5364 10.5758 20.4424 10.6353C20.3485 10.6948 20.2681 10.7716 20.2061 10.861C20.1441 10.9504 20.1017 11.0506 20.0814 11.1558C20.0807 11.1596 20.0809 11.1634 20.0819 11.1672C20.0829 11.1709 20.0848 11.1743 20.0875 11.1773C20.0901 11.1802 20.0934 11.1826 20.0971 11.1841C20.1008 11.1857 20.1048 11.1865 20.1089 11.1865C20.1095 11.1943 20.1095 11.2022 20.1089 11.21C20.0652 11.3941 19.8342 11.479 19.6881 11.5569C19.5794 11.6135 19.467 11.6643 19.3547 11.7162C18.98 11.8955 18.3906 12.1267 18.2745 12.6022C18.2726 12.6073 18.2725 12.6129 18.274 12.6182C18.2756 12.6235 18.2788 12.6282 18.2832 12.6317C18.508 12.778 18.7665 12.5597 18.9426 12.4228C19.2979 12.1568 19.7146 11.9737 20.1589 11.8884C20.6509 11.787 21.5687 11.8176 21.746 11.1806C21.8534 10.7853 21.3777 10.5659 21.0892 10.5175Z" fill="white"/>
<path d="M13.0407 1.36718C12.997 1.30938 12.8859 1.1855 12.8109 1.17724C12.7685 1.17724 12.7523 1.09702 12.7123 1.10882C12.6723 1.12061 12.6111 1.15011 12.5562 1.10882C12.5378 1.0926 12.5182 1.07762 12.4975 1.06398C12.486 1.05638 12.4729 1.05127 12.4591 1.04903C12.4453 1.04678 12.4311 1.04746 12.4176 1.05101C12.3826 1.06398 12.3689 1.11353 12.3264 1.08168C12.284 1.04983 12.1828 1.0982 12.1578 1.14539C12.1494 1.15833 12.1427 1.1722 12.1379 1.18668C11.9893 1.20674 11.8394 1.42263 11.7832 1.52291C11.7307 1.61942 11.7061 1.72734 11.712 1.83572C11.718 1.94409 11.7542 2.04905 11.8169 2.13993C11.953 2.35937 12.2303 2.38886 12.475 2.39594C12.5715 2.4065 12.6692 2.39848 12.7622 2.37235C12.8483 2.33668 12.9229 2.28009 12.9783 2.20836C13.2255 1.9205 13.273 1.67039 13.0407 1.36718Z" fill="#48264C"/>
<path d="M13.0409 1.36731C12.9983 1.31055 12.9479 1.25938 12.891 1.21512C12.8962 1.41007 12.8296 1.60067 12.7025 1.75433C12.5754 1.90798 12.3957 2.01514 12.1942 2.05747C12.0521 2.08699 11.9045 2.08253 11.7646 2.04449C11.7796 2.07867 11.7971 2.11178 11.8171 2.14359C11.9532 2.36303 12.2304 2.39253 12.4752 2.3996C12.5716 2.41016 12.6693 2.40214 12.7624 2.37601C12.8485 2.34034 12.923 2.28376 12.9784 2.21202C13.2257 1.92062 13.2732 1.67051 13.0409 1.36731Z" fill="#300D33"/>
<path d="M13.2605 13.1105C13.2203 13.0131 13.1556 12.9264 13.0719 12.8581C13.0582 12.7849 13.0407 12.7129 13.0245 12.6398C13.0232 12.6326 13.0202 12.6259 13.0158 12.62C13.0113 12.614 13.0055 12.6092 12.9988 12.6056C12.9921 12.6021 12.9846 12.6001 12.977 12.5997C12.9693 12.5993 12.9617 12.6005 12.9546 12.6032C12.8422 12.6528 12.8172 12.5891 12.7398 12.5313C12.7274 12.5241 12.7131 12.5202 12.6986 12.5202C12.684 12.5202 12.6697 12.5241 12.6573 12.5313C12.5325 12.6115 12.4001 12.4215 12.3027 12.5313C12.2457 12.6139 12.1827 12.6928 12.1141 12.7672C12.0331 12.8156 11.9584 12.8731 11.8919 12.9383C11.844 12.9785 11.802 13.0245 11.767 13.0751C11.7529 13.0965 11.7399 13.1185 11.7283 13.1412C11.7183 13.1624 11.7095 13.1848 11.702 13.2061C11.7015 13.2084 11.7015 13.2108 11.702 13.2132C11.6515 13.3673 11.6546 13.5327 11.7108 13.6851C11.8057 13.9576 12.1054 14.0543 12.3739 14.1169C12.4777 14.1506 12.5877 14.1643 12.6973 14.157C12.8021 14.1367 12.8994 14.0907 12.9795 14.0237C13.3242 13.7641 13.4391 13.4987 13.2605 13.1105Z" fill="#48264C"/>
<path d="M13.2607 13.1105C13.2288 13.0383 13.1868 12.9704 13.1358 12.9088C13.0918 13.1256 12.9692 13.3211 12.7892 13.4619C12.6092 13.6027 12.383 13.6799 12.1493 13.6803C11.984 13.6806 11.8212 13.6417 11.676 13.5671C11.6839 13.6071 11.6948 13.6465 11.7085 13.685C11.8034 13.9576 12.1031 14.0543 12.3716 14.1168C12.4754 14.1506 12.5854 14.1642 12.695 14.1569C12.7998 14.1366 12.8971 14.0907 12.9772 14.0236C13.3244 13.7641 13.4393 13.4986 13.2607 13.1105Z" fill="#300D33"/>
<path d="M11.0028 1.16193C10.9641 1.08996 10.8642 0.933051 10.7818 0.910635C10.7393 0.900017 10.7393 0.825692 10.6981 0.818613C10.6856 0.712434 10.6344 0.601536 10.5033 0.623952C10.4733 0.623952 10.3934 0.702996 10.3622 0.658165C10.3469 0.631678 10.3221 0.611191 10.2923 0.600356C10.2311 0.577941 10.1774 0.628671 10.1424 0.667603C10.0837 0.73249 10.0088 0.636929 9.93262 0.667603C9.89616 0.687935 9.86643 0.717485 9.8468 0.752921C9.82716 0.788357 9.81839 0.828271 9.82148 0.868163C9.82148 0.875242 9.82148 0.879961 9.82148 0.88704C9.72723 0.954568 9.6432 1.03395 9.57172 1.12299C9.49442 1.22124 9.44607 1.3371 9.43159 1.45875C9.41711 1.5804 9.43703 1.7035 9.4893 1.81552C9.5992 2.08332 9.90389 2.16945 10.1749 2.21546C10.2771 2.24266 10.3839 2.25146 10.4896 2.24141C10.5926 2.21577 10.6868 2.16537 10.763 2.09512C11.1015 1.8108 11.2014 1.54063 11.0028 1.16193Z" fill="#48264C"/>
<path d="M11.0028 1.16181C10.9653 1.09139 10.9187 1.02562 10.8642 0.965973C10.833 1.18563 10.7218 1.38819 10.5498 1.53887C10.3777 1.68956 10.1556 1.77899 9.92136 1.79181C9.75694 1.79985 9.59298 1.76903 9.44434 1.70215C9.45425 1.74229 9.46719 1.78172 9.48305 1.82012C9.59294 2.08793 9.89764 2.17405 10.1686 2.22006C10.2732 2.24643 10.3821 2.25364 10.4895 2.2413C10.5925 2.21566 10.6868 2.16526 10.763 2.09501C11.1014 1.81069 11.2013 1.54052 11.0028 1.16181Z" fill="#300D33"/>
<path d="M15.8592 2.1152C15.8205 2.02436 15.7144 1.82498 15.6195 1.79194C15.5658 1.77425 15.5683 1.66689 15.5133 1.67397C15.4384 1.68104 15.3672 1.69992 15.3085 1.63267C15.29 1.60586 15.2695 1.58024 15.2474 1.55599C15.2352 1.5422 15.2199 1.53121 15.2026 1.52385C15.1853 1.51649 15.1664 1.51296 15.1475 1.51352C15.0975 1.52178 15.0638 1.58548 15.0226 1.52885C14.9639 1.45335 14.8303 1.50998 14.7828 1.56661C14.7681 1.58182 14.7552 1.59842 14.7441 1.61616C14.5443 1.60082 14.2808 1.85211 14.1772 1.97009C14.0783 2.08705 14.0127 2.2259 13.9865 2.3735C13.9603 2.5211 13.9743 2.67258 14.0273 2.81362C14.1347 3.14985 14.4881 3.27137 14.8028 3.35277C14.9228 3.39334 15.0502 3.41059 15.1774 3.4035C15.3019 3.37968 15.4172 3.32421 15.5108 3.24306C15.9304 2.91744 16.0703 2.59536 15.8592 2.1152Z" fill="#48264C"/>
<path d="M15.8592 2.11526C15.8214 2.02673 15.7719 1.94308 15.7118 1.86633C15.6631 2.12714 15.5193 2.3636 15.3054 2.53471C15.0914 2.70581 14.8208 2.80076 14.5405 2.80307C14.3463 2.80184 14.1557 2.75306 13.9873 2.6615C13.9957 2.7114 14.0078 2.76068 14.0235 2.80897C14.1309 3.1452 14.4843 3.26672 14.799 3.34812C14.919 3.38868 15.0464 3.40594 15.1736 3.39885C15.2982 3.37503 15.4134 3.31955 15.507 3.2384C15.9304 2.9175 16.0702 2.59543 15.8592 2.11526Z" fill="#300D33"/>
<path d="M15.6757 12.1018C15.627 11.9968 15.4984 11.7679 15.3848 11.7314C15.3198 11.7113 15.3198 11.5862 15.2599 11.5933C15.1712 11.6028 15.0863 11.6252 15.0102 11.5485C14.9877 11.5172 14.9626 11.4876 14.9352 11.46C14.9195 11.4438 14.9001 11.4311 14.8785 11.4229C14.8569 11.4148 14.8336 11.4113 14.8104 11.4128C14.7504 11.4223 14.7104 11.4954 14.6568 11.4317C14.5843 11.3444 14.4257 11.4116 14.3683 11.4765C14.3511 11.4949 14.3357 11.5146 14.3221 11.5355C14.0823 11.519 13.7689 11.8139 13.6453 11.9461C13.5286 12.08 13.4514 12.2406 13.4216 12.4117C13.3917 12.5829 13.4103 12.7584 13.4754 12.9206C13.609 13.3075 14.0349 13.4432 14.4132 13.5329C14.5609 13.5805 14.7172 13.5993 14.8728 13.5883C15.0208 13.5602 15.1583 13.4955 15.2711 13.4007C15.7657 13.0256 15.928 12.6504 15.6757 12.1018Z" fill="#48264C"/>
<path d="M15.6759 12.1019C15.6296 11.9993 15.5692 11.9029 15.4961 11.8152C15.4333 12.122 15.2599 12.3988 15.0053 12.5982C14.7507 12.7977 14.4307 12.9075 14.0999 12.9089C13.8671 12.9092 13.6378 12.8545 13.4331 12.7496C13.443 12.8077 13.4581 12.8649 13.4781 12.9207C13.6117 13.3077 14.0375 13.4433 14.4159 13.533C14.5635 13.5806 14.7199 13.5995 14.8754 13.5884C15.0234 13.5603 15.1609 13.4956 15.2738 13.4009C15.7658 13.0257 15.9281 12.6505 15.6759 12.1019Z" fill="#300D33"/>
<path d="M10.0286 11.2525C10.0286 11.2525 10.362 11.1346 10.5556 11.551C10.7492 11.9675 10.8191 12.3769 11.0127 12.5715C11.0659 12.6152 11.1078 12.6698 11.1353 12.7312C11.1628 12.7925 11.1751 12.8589 11.1712 12.9254C11.1712 12.9254 10.6255 12.6435 10.4857 12.4937C10.2781 12.2901 10.1005 12.0612 9.95745 11.8129C9.80011 11.5133 9.68896 11.2325 9.68896 11.2325L10.0286 11.2525Z" fill="#5F825C"/>
<path d="M9.89777 11.1793C9.89777 11.1793 9.98143 10.8525 9.52314 10.7191C9.06484 10.5858 8.62403 10.5658 8.39925 10.4065C8.34663 10.3612 8.28366 10.3279 8.21522 10.3093C8.14678 10.2906 8.07472 10.2872 8.00464 10.2991C8.00464 10.2991 8.36303 10.7793 8.53661 10.889C8.77483 11.0598 9.03603 11.1998 9.31334 11.3055C9.64552 11.4235 9.95396 11.4919 9.95396 11.4919L9.89777 11.1793Z" fill="#5F825C"/>
<path d="M9.83265 11.3388C9.83265 11.3388 10.4483 11.754 10.4308 12.3192C10.4133 12.8843 10.4133 13.1662 10.0562 13.4812C9.69903 13.7962 9.01971 13.8139 8.66755 13.9626C8.3154 14.1112 7.89457 14.2457 7.79342 14.3283C7.69227 14.4109 7.47748 14.4946 7.16154 14.3283C6.8456 14.1619 6.66204 14.1796 6.72198 13.7136C6.81159 13.1139 6.96471 12.5242 7.17902 11.9534C7.35385 11.5216 7.5087 11.1889 8.00321 11.0568C8.47726 10.9417 8.97818 10.9765 9.4293 11.1559C9.74024 11.3057 9.83265 11.3388 9.83265 11.3388Z" fill="#ED6366"/>
<path d="M6.79576 13.2642C7.07524 13.3634 7.37135 13.4141 7.6699 13.414C8.89369 13.414 9.8852 12.6011 9.8852 11.5995C9.88553 11.5169 9.87884 11.4345 9.86522 11.3529C9.99759 11.4532 10.4409 11.8248 10.4259 12.3062C10.4084 12.8701 10.4084 13.1533 10.0513 13.4683C9.69414 13.7833 9.01482 13.801 8.66267 13.9496C8.31051 14.0983 7.88968 14.2328 7.78853 14.3153C7.68738 14.3979 7.47259 14.4817 7.15666 14.3153C6.84072 14.149 6.65715 14.1655 6.71709 13.7007C6.73582 13.578 6.76205 13.4281 6.79576 13.2642Z" fill="#C73A54"/>
<path d="M10.1064 12.5774C10.19 12.588 10.21 12.4523 10.2162 12.3532C10.2226 12.3284 10.2226 12.3025 10.2162 12.2777V12.2694C10.2162 12.26 10.2025 12.2576 10.2013 12.2694C10.1984 12.2697 10.1957 12.2705 10.1933 12.272C10.1909 12.2734 10.1889 12.2754 10.1875 12.2777C10.1725 12.3095 9.99022 12.5632 10.1064 12.5774Z" fill="#E7D8C8"/>
<path d="M9.93161 12.0654C9.93277 12.0668 9.93428 12.068 9.93601 12.0689C9.93775 12.0697 9.93966 12.0701 9.9416 12.0701C9.94354 12.0701 9.94545 12.0697 9.94718 12.0689C9.94892 12.068 9.95043 12.0668 9.95159 12.0654C9.97611 12.0465 9.99597 12.0228 10.0098 11.9959C10.0236 11.969 10.031 11.9395 10.0315 11.9096C10.0382 11.8935 10.042 11.8763 10.0427 11.8589C10.043 11.8564 10.0425 11.8539 10.0414 11.8517C10.0403 11.8494 10.0386 11.8475 10.0365 11.846C10.0343 11.8446 10.0318 11.8437 10.0292 11.8435C10.0266 11.8433 10.0239 11.8437 10.0215 11.8448C10.0215 11.8448 10.0065 11.8448 10.0078 11.8448C9.97201 11.8692 9.94536 11.9037 9.93167 11.9434C9.91798 11.983 9.91796 12.0257 9.93161 12.0654Z" fill="#E7D8C8"/>
<path d="M9.57052 11.7973C9.64294 11.8516 9.67666 11.7277 9.69539 11.6463C9.70608 11.6217 9.71363 11.596 9.71787 11.5697C9.71816 11.5667 9.71745 11.5637 9.71583 11.5611C9.71421 11.5585 9.71177 11.5565 9.70885 11.5553C9.70594 11.5541 9.7027 11.5539 9.69961 11.5545C9.69652 11.5552 9.69373 11.5568 9.69164 11.559C9.65668 11.598 9.49934 11.7478 9.57052 11.7973Z" fill="#E7D8C8"/>
<path d="M9.52418 12.3237C9.52524 12.3249 9.52657 12.3259 9.52808 12.3266C9.52959 12.3273 9.53125 12.3276 9.53292 12.3276C9.5346 12.3276 9.53626 12.3273 9.53777 12.3266C9.53928 12.3259 9.54061 12.3249 9.54167 12.3237C9.56552 12.3018 9.58648 12.2772 9.6041 12.2505C9.64756 12.2045 9.67463 12.1467 9.68152 12.0854C9.68152 12.0759 9.67153 12.0641 9.66029 12.0689L9.63782 12.083C9.5579 12.1385 9.463 12.2458 9.52418 12.3237Z" fill="#E7D8C8"/>
<path d="M9.64938 12.8512C9.69558 12.8784 9.72306 12.8159 9.73804 12.751C9.75847 12.7178 9.77044 12.6807 9.773 12.6424C9.77325 12.6399 9.7728 12.6375 9.7717 12.6352C9.77059 12.6329 9.76888 12.631 9.76673 12.6295C9.76457 12.6281 9.76206 12.6272 9.75943 12.627C9.75681 12.6268 9.75417 12.6272 9.75178 12.6283H9.73679C9.73679 12.6283 9.73679 12.6283 9.73679 12.6365C9.70394 12.6684 9.67805 12.7061 9.66062 12.7474C9.64813 12.7746 9.61567 12.8335 9.64938 12.8512Z" fill="#E7D8C8"/>
<path d="M9.88521 13.1436C9.93516 13.1742 9.98761 13.1306 10.0101 13.0881C10.0224 13.0592 10.0316 13.0291 10.0376 12.9985C10.0524 12.9747 10.0614 12.9481 10.0638 12.9206C10.0668 12.9175 10.0684 12.9135 10.0684 12.9094C10.0684 12.9052 10.0668 12.9012 10.0638 12.8982V12.8899C10.0638 12.8805 10.0476 12.871 10.0376 12.8793C9.99635 12.9076 9.80904 13.0952 9.88521 13.1436Z" fill="#E7D8C8"/>
<path d="M9.4008 13.3063C9.44326 13.3618 9.48447 13.3063 9.51319 13.252C9.5308 13.2373 9.54482 13.2191 9.5543 13.1987C9.56379 13.1784 9.5685 13.1563 9.56814 13.1341C9.56809 13.132 9.5675 13.1299 9.56644 13.1281C9.56538 13.1263 9.56386 13.1247 9.56202 13.1235C9.56018 13.1224 9.55808 13.1217 9.55588 13.1214C9.55368 13.1212 9.55146 13.1215 9.5494 13.1223C9.49071 13.1435 9.34835 13.2379 9.4008 13.3063Z" fill="#E7D8C8"/>
<path d="M9.166 12.6234C9.20221 12.582 9.24422 12.5455 9.29088 12.5148C9.29342 12.5129 9.29651 12.5117 9.29976 12.5115C9.30301 12.5113 9.30626 12.5119 9.30909 12.5135C9.31192 12.515 9.31419 12.5173 9.31562 12.5201C9.31705 12.5228 9.31757 12.5259 9.3171 12.529C9.31579 12.5465 9.31114 12.5637 9.30336 12.5797V12.5974C9.29703 12.6467 9.27529 12.6931 9.24093 12.7307C9.2147 12.759 9.15352 12.7732 9.12854 12.7307C9.10357 12.6882 9.14353 12.6434 9.166 12.6234Z" fill="#E7D8C8"/>
<path d="M9.09614 12.207C9.10613 12.2436 9.15608 12.2401 9.18105 12.2212C9.19776 12.2069 9.21133 12.1897 9.22101 12.1705C9.24422 12.1436 9.25816 12.1107 9.26097 12.0761C9.26109 12.0734 9.26054 12.0708 9.25937 12.0684C9.2582 12.0661 9.25644 12.064 9.25424 12.0623C9.25204 12.0607 9.24946 12.0596 9.24673 12.0592C9.24399 12.0587 9.24117 12.0588 9.2385 12.0596C9.20296 12.0728 9.17128 12.0938 9.14609 12.1209C9.12361 12.141 9.08615 12.174 9.09614 12.207Z" fill="#E7D8C8"/>
<path d="M9.311 11.3258C9.31515 11.3246 9.31962 11.3249 9.32354 11.3266C9.32746 11.3284 9.33056 11.3314 9.33223 11.3352C9.34163 11.3704 9.34003 11.4074 9.32762 11.4417C9.3152 11.4761 9.29251 11.5063 9.2623 11.5287C9.25995 11.5303 9.25723 11.5314 9.25436 11.5319C9.25148 11.5323 9.24853 11.5322 9.24574 11.5314C9.24296 11.5306 9.2404 11.5291 9.23829 11.5272C9.23618 11.5254 9.23456 11.523 9.23357 11.5204C9.22976 11.5122 9.22724 11.5034 9.22608 11.4945C9.21467 11.4614 9.21711 11.4255 9.23291 11.3941C9.24871 11.3627 9.27666 11.3383 9.311 11.3258Z" fill="#E7D8C8"/>
<path d="M8.87993 11.9745C8.91739 12.004 8.94861 11.9745 8.97109 11.9273C8.99963 11.9004 9.02062 11.8673 9.03218 11.8308C9.04374 11.7944 9.04549 11.7557 9.03727 11.7185C9.03558 11.7152 9.0329 11.7124 9.02958 11.7105C9.02625 11.7087 9.02242 11.7077 9.01854 11.7079C8.96234 11.7149 8.91489 11.7893 8.89366 11.8258C8.87243 11.8624 8.83247 11.9391 8.87993 11.9745Z" fill="#E7D8C8"/>
<path d="M8.86631 11.2971C8.87357 11.2887 8.8815 11.2808 8.89004 11.2735C8.89285 11.2717 8.89611 11.2705 8.89952 11.2702C8.90293 11.2699 8.90636 11.2704 8.9095 11.2717C8.91263 11.273 8.91536 11.2751 8.91742 11.2777C8.91948 11.2803 8.9208 11.2833 8.92125 11.2865C8.92477 11.3138 8.92165 11.3415 8.91213 11.3674C8.90261 11.3934 8.88693 11.417 8.86631 11.4363C8.86653 11.4395 8.86653 11.4426 8.86631 11.4458C8.8625 11.453 8.8568 11.4592 8.84973 11.4638C8.84266 11.4683 8.83447 11.4711 8.82595 11.4718C8.81743 11.4725 8.80885 11.4712 8.80105 11.4678C8.79325 11.4645 8.78648 11.4594 8.78139 11.4529C8.72769 11.4009 8.80387 11.3254 8.86631 11.2971Z" fill="#E7D8C8"/>
<path d="M8.44167 11.7291C8.46662 11.6802 8.5061 11.6392 8.5553 11.6112C8.55814 11.6092 8.56154 11.6081 8.56506 11.608C8.56857 11.6079 8.57204 11.6088 8.57501 11.6106C8.57797 11.6123 8.5803 11.6149 8.58169 11.618C8.58307 11.621 8.58345 11.6244 8.58278 11.6277C8.58124 11.6496 8.57575 11.6712 8.56654 11.6914C8.56654 11.6985 8.56654 11.7055 8.56654 11.7114C8.56385 11.7375 8.55798 11.7633 8.54906 11.7881C8.54104 11.8122 8.52362 11.8324 8.50036 11.8447C8.49863 11.8477 8.4961 11.8502 8.49302 11.8519C8.48995 11.8536 8.48645 11.8545 8.48288 11.8545C8.47931 11.8545 8.4758 11.8536 8.47273 11.8519C8.46965 11.8502 8.46712 11.8477 8.46539 11.8447C8.41669 11.82 8.43168 11.7586 8.44167 11.7291Z" fill="#E7D8C8"/>
<path d="M8.3529 11.4437C8.35494 11.4449 8.35733 11.4456 8.35977 11.4456C8.36221 11.4456 8.3646 11.4449 8.36664 11.4437C8.38329 11.4286 8.39874 11.4125 8.41284 11.3953C8.44436 11.3704 8.471 11.3404 8.49151 11.3068C8.50005 11.292 8.50355 11.2752 8.5015 11.2584V11.2502C8.5015 11.2419 8.50151 11.236 8.48902 11.2396C8.48437 11.2342 8.47842 11.23 8.47167 11.2274C8.46493 11.2247 8.45759 11.2236 8.4503 11.2242C8.36664 11.2254 8.27922 11.3859 8.3529 11.4437Z" fill="#E7D8C8"/>
<path d="M7.84842 11.5912C7.8734 11.636 7.93209 11.5912 7.95332 11.5664C7.98734 11.5293 8.01095 11.4847 8.022 11.4367C8.03073 11.4206 8.03543 11.4028 8.03574 11.3848C8.03612 11.3821 8.03588 11.3795 8.03503 11.377C8.03418 11.3744 8.03274 11.3721 8.03082 11.3702C8.02891 11.3683 8.02656 11.3668 8.02395 11.3659C8.02135 11.3649 8.01855 11.3645 8.01576 11.3647C7.98659 11.3686 7.9589 11.3793 7.93515 11.3957C7.9114 11.4122 7.89233 11.434 7.87964 11.4591C7.85841 11.4933 7.82595 11.5511 7.84842 11.5912Z" fill="#E7D8C8"/>
<path d="M7.97208 12.0655C7.98707 12.1021 8.02703 12.0844 8.04201 12.0655C8.057 12.0466 8.05575 12.0407 8.06199 12.0289C8.08671 12.0034 8.10423 11.9724 8.11296 11.9388C8.12169 11.9052 8.12134 11.87 8.11194 11.8366C8.11108 11.8343 8.10967 11.8323 8.10783 11.8307C8.10599 11.829 8.10377 11.8278 8.10134 11.8271C8.09891 11.8264 8.09635 11.8263 8.09385 11.8267C8.09136 11.8271 8.089 11.8281 8.08697 11.8295C8.05198 11.8595 8.02465 11.8966 8.00705 11.9381C7.99206 11.9687 7.9546 12.023 7.97208 12.0655Z" fill="#E7D8C8"/>
<path d="M8.48017 12.2695C8.49352 12.2102 8.52843 12.1572 8.57882 12.1197C8.58103 12.1174 8.58385 12.1158 8.58697 12.115C8.5901 12.1142 8.59339 12.1142 8.5965 12.1151C8.59961 12.1159 8.6024 12.1176 8.60457 12.1198C8.60674 12.1221 8.60821 12.1249 8.6088 12.1279C8.61089 12.1499 8.60791 12.172 8.60005 12.1928C8.59693 12.2189 8.58633 12.2437 8.56938 12.2645C8.55243 12.2852 8.52979 12.3013 8.5039 12.3108H8.49141C8.48836 12.3112 8.48526 12.3109 8.48234 12.31C8.47943 12.309 8.47678 12.3075 8.4746 12.3054C8.47243 12.3034 8.47078 12.3009 8.4698 12.2981C8.46882 12.2954 8.46852 12.2924 8.46893 12.2895L8.48017 12.2695Z" fill="#E7D8C8"/>
<path d="M8.84484 12.4086C8.84744 12.407 8.85042 12.406 8.85351 12.4058C8.85661 12.4055 8.85972 12.406 8.86257 12.4072C8.86542 12.4084 8.86791 12.4102 8.86983 12.4125C8.87175 12.4148 8.87303 12.4175 8.87356 12.4204C8.87356 12.4204 8.87356 12.4204 8.87356 12.4287C8.87356 12.4947 8.82486 12.6009 8.74868 12.6068C8.74662 12.6072 8.7445 12.6071 8.74247 12.6066C8.74044 12.6061 8.73854 12.6052 8.73689 12.604C8.73525 12.6028 8.73389 12.6012 8.73291 12.5995C8.73193 12.5977 8.73135 12.5958 8.7312 12.5938C8.73334 12.5567 8.74476 12.5205 8.7645 12.4884C8.78425 12.4562 8.81178 12.4288 8.84484 12.4086Z" fill="#E7D8C8"/>
<path d="M8.41666 12.6232C8.4323 12.6085 8.44994 12.5958 8.46911 12.5854C8.4791 12.5854 8.49658 12.5854 8.49658 12.596C8.49409 12.6433 8.4737 12.6881 8.43914 12.7223C8.42484 12.7441 8.40396 12.7613 8.3792 12.7718C8.37588 12.773 8.37221 12.7729 8.36895 12.7716C8.36569 12.7703 8.3631 12.7678 8.36172 12.7647C8.36172 12.7647 8.36172 12.7565 8.36172 12.7518C8.36101 12.7486 8.36101 12.7454 8.36172 12.7423C8.35752 12.7196 8.36049 12.6961 8.37026 12.675C8.38002 12.6538 8.39616 12.6358 8.41666 12.6232Z" fill="#E7D8C8"/>
<path d="M8.08827 12.2919C8.09337 12.2915 8.09842 12.2931 8.10237 12.2961C8.10632 12.2992 8.10887 12.3036 8.1095 12.3084C8.11137 12.3186 8.11137 12.3289 8.1095 12.3391C8.11186 12.3563 8.11017 12.3738 8.10456 12.3903C8.09895 12.4068 8.08955 12.4219 8.07703 12.4346C8.06038 12.4634 8.03461 12.4865 8.00335 12.5007C7.99586 12.5007 7.98712 12.5007 7.98337 12.4924C7.9559 12.4311 7.99836 12.2907 8.08827 12.2919Z" fill="#E7D8C8"/>
<path d="M7.52519 12.2177C7.52603 12.2201 7.52739 12.2224 7.52918 12.2243C7.53097 12.2262 7.53316 12.2278 7.53562 12.2289C7.53807 12.23 7.54074 12.2306 7.54346 12.2307C7.54617 12.2308 7.54888 12.2304 7.55142 12.2295C7.59011 12.2124 7.62141 12.1832 7.64006 12.1469C7.6587 12.1106 7.66356 12.0694 7.65381 12.0301C7.65264 12.0276 7.65093 12.0254 7.64879 12.0237C7.64666 12.0219 7.64415 12.0206 7.64143 12.0198C7.63871 12.019 7.63585 12.0188 7.63303 12.0191C7.63021 12.0195 7.62751 12.0204 7.62509 12.0218C7.59685 12.0406 7.57304 12.0647 7.55516 12.0926C7.54019 12.1098 7.52969 12.1301 7.52448 12.1518C7.51928 12.1735 7.51952 12.196 7.52519 12.2177Z" fill="#E7D8C8"/>
<path d="M7.57984 12.673C7.57965 12.6488 7.58655 12.6249 7.59976 12.6041C7.61298 12.5833 7.63201 12.5663 7.65476 12.555C7.65754 12.5539 7.66057 12.5534 7.6636 12.5536C7.66663 12.5538 7.66956 12.5547 7.67214 12.5562C7.67472 12.5577 7.67687 12.5598 7.67841 12.5623C7.67995 12.5647 7.68084 12.5675 7.68099 12.5704C7.68439 12.5938 7.68187 12.6177 7.67362 12.6401C7.66537 12.6624 7.65163 12.6826 7.63353 12.699C7.62815 12.706 7.62136 12.712 7.61355 12.7167C7.61119 12.7179 7.60859 12.7186 7.60591 12.7189C7.60323 12.7191 7.60052 12.7188 7.59795 12.7181C7.59539 12.7173 7.59301 12.716 7.59097 12.7144C7.58893 12.7127 7.58727 12.7107 7.58608 12.7084C7.5855 12.7071 7.5852 12.7057 7.5852 12.7043C7.5852 12.7029 7.5855 12.7015 7.58608 12.7002C7.58269 12.6914 7.58059 12.6823 7.57984 12.673Z" fill="#E7D8C8"/>
<path d="M8.72387 12.8441C8.7261 12.8439 8.72835 12.8442 8.73047 12.8449C8.73258 12.8456 8.73452 12.8467 8.73616 12.8481C8.73781 12.8496 8.73912 12.8513 8.74001 12.8533C8.7409 12.8552 8.74136 12.8573 8.74135 12.8594C8.74121 12.8909 8.73163 12.9216 8.71373 12.9482C8.69583 12.9747 8.67033 12.9959 8.6402 13.0092C8.63613 13.0104 8.63178 13.0104 8.62771 13.0092H8.61023C8.60823 13.0096 8.60617 13.0095 8.6042 13.009C8.60224 13.0085 8.60041 13.0076 8.59886 13.0064C8.5973 13.0051 8.59606 13.0036 8.59522 13.0018C8.59438 13.0001 8.59396 12.9982 8.594 12.9963C8.60086 12.9628 8.61628 12.9314 8.63892 12.9049C8.66155 12.8784 8.69072 12.8575 8.72387 12.8441Z" fill="#E7D8C8"/>
<path d="M8.85609 13.173C8.8557 13.1762 8.85617 13.1794 8.85744 13.1823C8.85871 13.1853 8.86075 13.1879 8.86337 13.1899C8.86598 13.1919 8.86909 13.1932 8.8724 13.1938C8.87572 13.1944 8.87912 13.1941 8.88231 13.1931H8.89105C8.8929 13.1943 8.89508 13.1949 8.8973 13.1949C8.89952 13.1949 8.9017 13.1943 8.90354 13.1931L8.91228 13.1848C8.93653 13.1688 8.95711 13.1483 8.97277 13.1246C8.98844 13.1009 8.99887 13.0744 9.00345 13.0468C9.00391 13.0441 9.00359 13.0413 9.00252 13.0387C9.00146 13.0362 8.99968 13.0339 8.99738 13.0323C8.99509 13.0306 8.99235 13.0295 8.98946 13.0291C8.98657 13.0288 8.98364 13.0292 8.98097 13.0303C8.94103 13.0478 8.90786 13.0767 8.88606 13.1129C8.87186 13.1308 8.86166 13.1513 8.85609 13.173Z" fill="#E7D8C8"/>
<path d="M8.78262 13.5886C8.79845 13.5571 8.82148 13.5293 8.85005 13.5072C8.86218 13.4946 8.87557 13.4831 8.89001 13.4729C8.89407 13.4717 8.89844 13.4717 8.9025 13.4729C8.90504 13.471 8.90814 13.4699 8.91138 13.4696C8.91463 13.4694 8.91788 13.4701 8.92071 13.4716C8.92354 13.4731 8.92582 13.4754 8.92724 13.4782C8.92867 13.4809 8.92919 13.4841 8.92872 13.4871C8.9239 13.515 8.91059 13.5411 8.89042 13.562C8.87025 13.583 8.84408 13.5979 8.81508 13.6051H8.80509C8.80248 13.6067 8.79937 13.6076 8.79621 13.6075C8.79306 13.6074 8.79002 13.6063 8.78752 13.6045C8.78503 13.6027 8.78322 13.6002 8.78233 13.5973C8.78145 13.5944 8.78155 13.5914 8.78262 13.5886Z" fill="#E7D8C8"/>
<path d="M8.37789 13.3855C8.379 13.3684 8.38405 13.3517 8.39267 13.3367C8.4013 13.3216 8.4133 13.3085 8.42784 13.2982C8.44714 13.2794 8.47122 13.2656 8.49777 13.2581C8.50901 13.2581 8.52399 13.2581 8.52399 13.2722C8.52203 13.3058 8.5089 13.3379 8.48647 13.3639C8.46404 13.39 8.43347 13.4087 8.39912 13.4174C8.39649 13.4177 8.39382 13.4175 8.39126 13.4169C8.3887 13.4162 8.38631 13.4151 8.38422 13.4136C8.38213 13.412 8.38038 13.4101 8.37908 13.4079C8.37778 13.4057 8.37695 13.4033 8.37664 13.4008C8.37542 13.3999 8.37445 13.3987 8.37383 13.3973C8.37321 13.3959 8.37295 13.3944 8.37308 13.3929C8.3732 13.3914 8.3737 13.3899 8.37454 13.3886C8.37537 13.3874 8.37652 13.3863 8.37789 13.3855Z" fill="#E7D8C8"/>
<path d="M8.08948 12.9019H8.09947C8.10349 12.9004 8.10783 12.8998 8.11213 12.9002C8.11643 12.9006 8.12057 12.902 8.12422 12.9041C8.12787 12.9063 8.13092 12.9093 8.13313 12.9128C8.13534 12.9163 8.13664 12.9203 8.13693 12.9243C8.12944 12.9845 8.07574 13.0624 8.01206 13.0659C8.00207 13.0659 7.98833 13.0588 7.98958 13.0482C7.98909 13.0172 7.99831 12.9868 8.01609 12.9608C8.03386 12.9347 8.0594 12.9143 8.08948 12.9019Z" fill="#E7D8C8"/>
<path d="M7.88718 13.4493C7.9125 13.4142 7.94871 13.3874 7.99083 13.3726C7.99408 13.3713 7.99764 13.3709 8.00113 13.3713C8.00463 13.3717 8.00794 13.373 8.01073 13.3751C8.01352 13.3771 8.01569 13.3798 8.01702 13.3829C8.01835 13.386 8.01879 13.3893 8.0183 13.3926C7.99517 13.4614 7.94515 13.5192 7.87844 13.5543C7.87562 13.5564 7.87224 13.5578 7.86866 13.5583C7.86507 13.5588 7.86142 13.5583 7.85808 13.557C7.85475 13.5556 7.85186 13.5535 7.84972 13.5507C7.84759 13.5479 7.84629 13.5447 7.84597 13.5413C7.84474 13.524 7.84782 13.5066 7.85498 13.4906C7.86214 13.4747 7.87317 13.4605 7.88718 13.4493Z" fill="#E7D8C8"/>
<path d="M7.55741 13.0717C7.55833 13.0479 7.56541 13.0247 7.57804 13.0042C7.59067 12.9836 7.60846 12.9663 7.62984 12.9537C7.63983 12.9537 7.65856 12.9537 7.66231 12.962C7.66689 12.9932 7.66191 13.025 7.64797 13.0536C7.63403 13.0823 7.61171 13.1066 7.58364 13.1236C7.58008 13.1263 7.57575 13.1279 7.57122 13.1282C7.56668 13.1285 7.56215 13.1275 7.55823 13.1253C7.55431 13.1232 7.55117 13.1199 7.54924 13.116C7.54731 13.1121 7.54668 13.1078 7.54742 13.1035C7.55006 13.0927 7.55339 13.0821 7.55741 13.0717Z" fill="#E7D8C8"/>
<path d="M7.24293 12.7049C7.24698 12.6908 7.25574 12.6784 7.2679 12.6695L7.27539 12.6612C7.28413 12.6506 7.30786 12.6541 7.30786 12.6695C7.307 12.6952 7.29834 12.7202 7.28289 12.7414C7.28204 12.757 7.2777 12.7722 7.27017 12.786C7.26263 12.7998 7.25207 12.812 7.23918 12.8217C7.23681 12.8231 7.23409 12.8239 7.23127 12.8241C7.22846 12.8242 7.22566 12.8237 7.22314 12.8225C7.22062 12.8213 7.21847 12.8195 7.2169 12.8173C7.21534 12.8151 7.21441 12.8125 7.21421 12.8099C7.211 12.7728 7.22112 12.7358 7.24293 12.7049Z" fill="#E7D8C8"/>
<path d="M7.55388 11.6856L7.57011 11.6655C7.57885 11.6572 7.59883 11.6655 7.59883 11.6738C7.60117 11.6973 7.59778 11.721 7.5889 11.7431C7.58003 11.7652 7.56591 11.785 7.54763 11.8012V11.8083C7.54572 11.81 7.54335 11.8112 7.54077 11.8118C7.5382 11.8124 7.5355 11.8123 7.53296 11.8116C7.53042 11.8109 7.52813 11.8095 7.52632 11.8077C7.52451 11.8059 7.52325 11.8036 7.52266 11.8012C7.52142 11.7937 7.52142 11.7862 7.52266 11.7788C7.51759 11.762 7.51786 11.7443 7.52341 11.7277C7.52896 11.7111 7.53956 11.6965 7.55388 11.6856Z" fill="#E7D8C8"/>
<path d="M7.40379 13.6298C7.40508 13.632 7.40698 13.6339 7.40929 13.6352C7.4116 13.6364 7.41422 13.6371 7.4169 13.6371C7.41958 13.6371 7.4222 13.6364 7.42451 13.6352C7.42682 13.6339 7.42872 13.632 7.43001 13.6298L7.44 13.6192C7.4653 13.6006 7.48607 13.577 7.50094 13.5502C7.5158 13.5233 7.5244 13.4937 7.52617 13.4635C7.52648 13.4602 7.52582 13.4569 7.52424 13.4539C7.52266 13.451 7.52024 13.4485 7.51725 13.4468C7.51426 13.445 7.51082 13.4442 7.50732 13.4442C7.50382 13.4442 7.5004 13.4452 7.49745 13.447C7.44375 13.4835 7.38006 13.5673 7.40379 13.6298Z" fill="#E7D8C8"/>
<path d="M7.10555 13.382C7.10861 13.3666 7.11694 13.3525 7.12928 13.3419C7.13408 13.3341 7.13996 13.327 7.14676 13.3207C7.14861 13.3182 7.15105 13.3163 7.15387 13.3149C7.15669 13.3135 7.15982 13.3128 7.16299 13.3128C7.16617 13.3128 7.16929 13.3135 7.17212 13.3149C7.17494 13.3163 7.17738 13.3182 7.17922 13.3207C7.18914 13.3466 7.18914 13.375 7.17922 13.4009C7.17262 13.4275 7.15785 13.4517 7.13677 13.4705C7.13474 13.4719 7.13238 13.4729 7.12989 13.4733C7.12739 13.4737 7.12483 13.4736 7.1224 13.4729C7.11997 13.4722 7.11775 13.471 7.11591 13.4694C7.11407 13.4677 7.11266 13.4657 7.1118 13.4634C7.10454 13.4511 7.10022 13.4374 7.09914 13.4234C7.09807 13.4093 7.10025 13.3952 7.10555 13.382Z" fill="#E7D8C8"/>
<path d="M7.1566 13.7843C7.1593 13.7823 7.1625 13.7811 7.16586 13.7808C7.16922 13.7805 7.17261 13.781 7.17569 13.7823C7.17876 13.7836 7.18139 13.7857 7.18331 13.7884C7.18523 13.791 7.18635 13.7941 7.18657 13.7972C7.18974 13.8257 7.18636 13.8544 7.17666 13.8815C7.16696 13.9086 7.15117 13.9334 7.13038 13.9542C7.13038 13.9542 7.13038 13.9612 7.13038 13.9636C7.12915 13.9664 7.12707 13.9688 7.1244 13.9705C7.12173 13.9721 7.1186 13.973 7.11539 13.973C7.11219 13.973 7.10906 13.9721 7.10639 13.9705C7.10372 13.9688 7.10164 13.9664 7.10041 13.9636C7.09209 13.9317 7.09292 13.8983 7.10279 13.8667C7.11267 13.8352 7.13124 13.8068 7.1566 13.7843Z" fill="#E7D8C8"/>
<path d="M7.61739 13.9578C7.62158 13.9566 7.62604 13.9568 7.6301 13.9583C7.63416 13.9598 7.63759 13.9625 7.63987 13.966C7.64121 13.9679 7.64193 13.9702 7.64193 13.9725C7.64193 13.9748 7.64121 13.9771 7.63987 13.979C7.64028 13.9817 7.64028 13.9845 7.63987 13.9872C7.63973 14.0102 7.63389 14.0329 7.62283 14.0534C7.61178 14.0739 7.5958 14.0916 7.57618 14.1052C7.57392 14.1069 7.57128 14.108 7.56847 14.1086C7.56566 14.1091 7.56275 14.109 7.55998 14.1084C7.5572 14.1077 7.55463 14.1064 7.55246 14.1046C7.55029 14.1029 7.54858 14.1006 7.54746 14.0981C7.54688 14.0958 7.54688 14.0934 7.54746 14.0911C7.54516 14.0913 7.54284 14.091 7.54068 14.0902C7.53852 14.0894 7.53658 14.0882 7.53501 14.0866C7.53344 14.085 7.53228 14.0831 7.53162 14.081C7.53097 14.0789 7.53083 14.0767 7.53123 14.0745C7.53442 14.0499 7.54394 14.0264 7.55896 14.006C7.57398 13.9857 7.59404 13.9691 7.61739 13.9578Z" fill="#E7D8C8"/>
<path d="M8.2118 13.6734C8.2144 13.6718 8.21738 13.6708 8.22048 13.6706C8.22357 13.6703 8.22669 13.6708 8.22953 13.672C8.23238 13.6731 8.23488 13.675 8.2368 13.6773C8.23872 13.6796 8.24 13.6823 8.24052 13.6852C8.24176 13.721 8.2319 13.7564 8.21216 13.787C8.19242 13.8176 8.16365 13.8421 8.12938 13.8574C8.12335 13.8596 8.11668 13.8596 8.11065 13.8574L8.09566 13.8669C8.09344 13.8676 8.09105 13.8679 8.08871 13.8676C8.08636 13.8673 8.08412 13.8665 8.08217 13.8652C8.08023 13.8639 8.07862 13.8623 8.07749 13.8603C8.07637 13.8583 8.07575 13.8561 8.07568 13.8539C8.08099 13.8156 8.09618 13.7791 8.11991 13.7476C8.14365 13.7161 8.1752 13.6907 8.2118 13.6734Z" fill="#E7D8C8"/>
<path d="M9.22571 13.5919C9.2283 13.5864 9.23166 13.5812 9.2357 13.5765C9.2337 13.568 9.2337 13.5591 9.2357 13.5506C9.24978 13.5249 9.27268 13.5045 9.30064 13.4928C9.31063 13.4928 9.32436 13.4928 9.32811 13.4998C9.33308 13.5164 9.33308 13.534 9.32811 13.5506C9.32416 13.5698 9.31272 13.5868 9.29607 13.5984C9.27941 13.61 9.25876 13.6152 9.2382 13.6131C9.2338 13.6115 9.23014 13.6085 9.22786 13.6046C9.22557 13.6007 9.22481 13.5962 9.22571 13.5919Z" fill="#E7D8C8"/>
</g>
<defs>
<clipPath id="clip0_430_614">
<rect width="24" height="16" fill="white"/>
</clipPath>
</defs>
</svg>
