<svg width="46" height="41" viewBox="0 0 46 41" fill="none" xmlns="http://www.w3.org/2000/svg">
<path d="M41.864 19.7162C41.8619 28.4155 36.1367 33.9496 29.083 33.9508C22.0293 33.952 16.2977 29.4347 16.2929 20.7336C16.288 12.0324 22.0223 2.45119 29.0829 2.45179C36.1435 2.4524 41.8643 11.0238 41.864 19.7162Z" fill="#DB8E76"/>
<g style="mix-blend-mode:multiply">
<path d="M33.8957 3.83816C34.0232 4.10966 34.1488 4.38808 34.2569 4.67663C35.0118 6.44214 35.6062 8.27198 36.0331 10.144C36.8981 14.1954 36.7429 18.5668 34.9474 22.3059C33.1519 26.0449 29.517 29.0092 25.3956 29.3883C22.7543 29.5465 20.125 28.922 17.8369 27.5928C19.9611 31.7888 24.1889 33.9748 29.0829 33.9511C36.1365 33.9499 41.8618 28.4158 41.8639 19.7165C41.8653 13.1234 38.569 6.60338 33.8957 3.83816Z" fill="#E8E8E8"/>
</g>
<path d="M28.864 23.7162C28.8619 32.4155 23.1367 37.9496 16.083 37.9508C9.02934 37.952 3.29767 33.4347 3.29286 24.7336C3.28804 16.0324 9.02228 6.45119 16.0829 6.45179C23.1435 6.4524 28.8643 15.0238 28.864 23.7162Z" fill="#DB8E76"/>
<g style="mix-blend-mode:multiply">
<path d="M20.8957 7.83816C21.0232 8.10966 21.1488 8.38808 21.2569 8.67663C22.0118 10.4421 22.6062 12.272 23.0331 14.144C23.8981 18.1954 23.7429 22.5668 21.9474 26.3059C20.1519 30.0449 16.517 33.0092 12.3956 33.3883C9.75427 33.5465 7.12495 32.922 4.83692 31.5928C6.96115 35.7888 11.1889 37.9748 16.0829 37.9511C23.1365 37.9499 28.8618 32.4158 28.8639 23.7165C28.8653 17.1234 25.569 10.6034 20.8957 7.83816Z" fill="#E8E8E8"/>
</g>
</svg>
