<svg width="41" height="46" viewBox="0 0 41 46" fill="none" xmlns="http://www.w3.org/2000/svg">
<g clip-path="url(#clip0_308_621)">
<path d="M5.4009 25.9366C4.71469 28.7434 3.67125 31.5107 3.73998 34.4029C3.77614 35.8362 4.12724 37.3328 5.11303 38.3821C6.18178 39.5193 7.84718 39.9506 9.40621 39.871C12.5309 39.7148 15.3239 37.7631 18.4488 37.5447C20.6377 37.3894 22.7906 38.0977 24.9178 38.6699C27.0449 39.2421 29.3243 39.6685 31.4009 38.9801C32.2803 38.7298 33.0377 38.1765 33.5373 37.4191C34.2389 36.2154 33.8994 34.6928 33.5438 33.3382L29.9924 19.8526C29.7863 19.0711 29.525 18.2104 28.8355 17.7766C28.0802 17.3134 27.1131 17.5339 26.2562 17.7375C22.5077 18.6316 18.6377 18.9522 14.7797 18.6884C12.8198 18.5246 10.8712 18.2374 8.94561 17.8283C7.45961 17.5514 6.62222 17.8611 6.36713 19.4246C5.99351 21.6046 5.92157 23.772 5.4009 25.9366Z" fill="#9F4A4A"/>
<g style="mix-blend-mode:multiply">
<path d="M26.8466 17.6089C26.646 17.6513 26.444 17.697 26.2577 17.7341C22.5092 18.6282 18.6391 18.9488 14.7811 18.685C12.8213 18.5212 10.8726 18.234 8.94707 17.8249C7.46108 17.548 6.62368 17.8577 6.3686 19.4212C6.17234 20.6335 6.07239 21.8423 5.92719 23.0463C6.51425 23.3959 7.13049 23.6944 7.76889 23.9382C9.07839 24.403 10.4462 24.6807 11.831 24.7629C14.7506 24.9585 17.6963 24.4885 20.6483 24.321C23.6004 24.1536 26.6877 24.3271 29.3161 25.7002C30.356 26.2441 31.2949 26.9614 32.091 27.8203L29.9851 19.8686C29.8719 19.3609 29.6844 18.8716 29.4287 18.4162C29.1257 18.2998 28.8231 18.1914 28.5176 18.0894C27.9729 17.8958 27.4108 17.7412 26.8466 17.6089Z" fill="#E8E8E8"/>
</g>
<g style="mix-blend-mode:multiply">
<g style="mix-blend-mode:multiply">
<path d="M16.5214 19.1341C16.4699 19.1315 16.4184 19.1392 16.3701 19.1566C16.3218 19.1739 16.2776 19.2007 16.24 19.2353C16.2024 19.27 16.1723 19.3117 16.1513 19.3582C16.1303 19.4047 16.119 19.4549 16.1178 19.506C15.9152 25.644 15.89 31.8616 16.0463 38.0088C16.3063 37.9307 16.5663 37.8526 16.8226 37.8002C16.6763 31.7275 16.6991 25.5945 16.9008 19.5378C16.903 19.4352 16.8645 19.3354 16.7936 19.2599C16.7226 19.1844 16.6249 19.1393 16.5214 19.1341Z" fill="#E8E8E8"/>
</g>
<g style="mix-blend-mode:multiply">
<path d="M25.5395 18.183C25.5122 18.1251 25.471 18.0745 25.4195 18.0358C25.368 17.9971 25.3079 17.9715 25.2443 17.9612L24.9515 18.0245C24.8756 18.0763 24.8209 18.1532 24.7972 18.2416C24.7734 18.33 24.7821 18.4242 24.8218 18.5075C26.9785 23.0049 28.6228 27.7223 29.724 32.5715C30.0417 33.9753 30.3334 35.4726 30.1087 36.933C29.9833 37.8149 29.6196 38.6444 29.0559 39.334C29.3937 39.3344 29.7311 39.314 30.0659 39.273C30.4869 38.5984 30.7644 37.8447 30.8816 37.0576C31.1305 35.464 30.8094 33.8212 30.488 32.408C29.377 27.5037 27.7172 22.7324 25.5395 18.183Z" fill="#E8E8E8"/>
</g>
<g style="mix-blend-mode:multiply">
<path d="M20.5412 34.8582C19.8309 29.945 19.5001 24.989 19.5516 20.0335C19.5549 19.981 19.5473 19.9282 19.5295 19.8785C19.5116 19.8287 19.4837 19.783 19.4475 19.744C19.4113 19.7051 19.3676 19.6738 19.319 19.652C19.2703 19.6303 19.2179 19.6185 19.1647 19.6174C19.1116 19.6163 19.0589 19.626 19.0099 19.6458C18.9608 19.6655 18.9165 19.6951 18.8795 19.7325C18.8425 19.7699 18.8136 19.8145 18.7947 19.8635C18.7758 19.9126 18.7672 19.965 18.7694 20.0176C18.7166 25.0129 19.0494 30.0088 19.7647 34.9616C19.8832 35.8511 20.0617 36.7322 20.2988 37.5992C20.5867 37.6349 20.8717 37.677 21.1571 37.7271C20.8715 36.7887 20.6655 35.829 20.5412 34.8582Z" fill="#E8E8E8"/>
</g>
<g style="mix-blend-mode:multiply">
<path d="M24.9147 38.6682L25.5771 38.8368C25.9551 35.9261 25.9367 32.9743 25.5222 30.0605C25.0099 26.3246 23.8492 22.6982 22.0914 19.3425C22.068 19.2968 22.0358 19.2561 21.9965 19.2227C21.9572 19.1894 21.9117 19.164 21.8626 19.1482C21.8135 19.1323 21.7618 19.1263 21.7105 19.1304C21.6593 19.1345 21.6095 19.1487 21.564 19.1722C21.4716 19.2192 21.4022 19.3007 21.3707 19.3989C21.3393 19.4971 21.3484 19.604 21.396 19.6964C24.4299 25.5444 25.62 32.1462 24.8103 38.637L24.9147 38.6682Z" fill="#E8E8E8"/>
</g>
<g style="mix-blend-mode:multiply">
<path d="M11.4693 34.31C12.1112 29.5936 12.2575 24.819 11.906 20.0626C11.8925 19.9656 11.8425 19.8768 11.7661 19.8141C11.6897 19.7514 11.5925 19.7194 11.494 19.7244C11.3955 19.7294 11.3029 19.7712 11.2347 19.8413C11.1666 19.9113 11.1279 20.0046 11.1265 20.1024C11.4749 24.8083 11.3288 29.5324 10.6906 34.1984C10.6481 34.5219 10.5991 34.8425 10.5534 35.1646C10.2925 36.696 10.1503 38.2461 10.128 39.8013C10.3932 39.7645 10.6514 39.7167 10.9125 39.6625C10.9454 38.1935 11.0847 36.7299 11.3292 35.2828L11.4693 34.31Z" fill="#E8E8E8"/>
</g>
<g style="mix-blend-mode:multiply">
<path d="M8.75596 17.7937C8.49174 17.7456 8.22349 17.7245 7.95546 17.7307L7.96178 17.7958C8.52811 20.8198 8.48015 23.9193 7.82072 26.9124C7.3944 28.6628 6.86783 30.3867 6.24355 32.076C5.56332 33.8994 5.00564 35.7666 4.57412 37.6653C4.72728 37.9239 4.9092 38.1648 5.11643 38.3835C5.15043 38.4221 5.18734 38.4542 5.22278 38.4895C5.63681 36.3913 6.22597 34.3324 6.98421 32.3341C7.61945 30.6171 8.15487 28.8646 8.58786 27.085C9.25825 24.035 9.31537 20.878 8.75596 17.7937Z" fill="#E8E8E8"/>
</g>
</g>
<path d="M9.99883 13.173C11.2553 12.8751 12.5375 12.6903 13.8298 12.621L21.5796 11.9808C23.8969 11.7857 26.3685 11.6248 28.4171 12.7418C29.2457 13.1912 30.0285 13.9977 29.9263 14.9212C29.8815 15.1884 29.7813 15.443 29.6318 15.6688C29.4823 15.8946 29.2869 16.0868 29.0578 16.2331C28.5996 16.5246 28.0955 16.7391 27.5655 16.8682C24.4041 17.7961 21.0981 18.17 17.7958 17.9731C14.4929 17.7861 11.2413 17.038 8.18315 15.7615C7.85456 15.6142 7.16698 15.4577 6.91807 15.1943C6.60369 14.8392 7.22036 14.5201 7.48121 14.3256C8.24305 13.7954 9.09561 13.4051 9.99883 13.173Z" fill="#873C3C"/>
<path d="M15.3658 2.34725C15.5635 1.65493 15.9052 1.01259 16.3692 0.461326C16.8754 -0.051415 17.6997 -0.331961 18.3537 -0.0037093C18.6043 0.144548 18.8139 0.352538 18.9631 0.601103C19.1124 0.849668 19.1965 1.13082 19.2077 1.41866C19.2266 1.9938 19.1372 2.56631 18.9441 3.10684C18.3754 5.00194 17.6456 6.84441 16.7627 8.61462C16.6044 9.00063 16.3516 9.34072 16.0268 9.60444C14.8504 10.424 13.0004 9.39205 13.32 8.00148C13.7518 6.0967 14.6993 4.18573 15.3658 2.34725Z" fill="#EBAD16"/>
<path d="M10.0719 10.9594C10.8059 9.55997 12.0699 8.35149 13.6417 8.06739C15.2135 7.78329 17.037 8.69821 17.4258 10.2429C17.6621 11.1858 17.3563 12.1583 17.0534 13.0891C16.6732 14.254 16.2944 15.4156 15.9109 16.579C15.6236 17.4662 15.2336 18.4593 14.3521 18.7882C13.3284 19.1701 12.2243 18.4375 11.4491 17.6579C10.7303 16.9462 9.05211 16.1121 8.89159 15.1058C8.69607 13.9047 9.53092 11.9899 10.0719 10.9594Z" fill="#EBAD16"/>
<path d="M10.9911 11.5235C11.5422 10.4703 12.4923 9.55714 13.6754 9.3479C14.8584 9.13865 16.2255 9.82167 16.5205 10.9856C16.6958 11.6949 16.4674 12.4334 16.2399 13.1255L15.3826 15.7505C15.1577 16.4283 14.8712 17.1641 14.2077 17.4116C13.4399 17.698 12.6097 17.1467 12.0271 16.5624C11.4819 16.0182 10.224 15.3997 10.1026 14.6406C9.95501 13.7374 10.5842 12.2988 10.9911 11.5235Z" fill="#D88121"/>
<path d="M10.2463 14.4521C12.2365 13.4342 14.2266 12.4137 16.2166 11.3906C17.8429 10.5625 19.5606 9.69761 21.4008 9.74796C24.1665 9.8201 26.443 11.8724 28.4274 13.8016C28.9741 14.3426 29.5827 14.9659 29.6275 15.7373C29.6998 16.9844 28.3489 17.788 27.1659 18.1996C23.4364 19.4876 19.4382 19.8577 15.5137 19.2781C13.5565 19.0024 11.6395 18.4842 9.80791 17.7359C9.16829 17.4725 7.91408 17.0659 8.01208 16.1871C8.10041 15.4092 9.65369 14.7703 10.2463 14.4521Z" fill="white"/>
<path d="M5.07287 20.5686C5.92033 21.5832 7.39084 21.7714 8.71128 21.8807C12.6616 22.2154 16.6175 22.5642 20.5811 22.3676C23.9587 22.2649 27.2926 21.628 30.4566 20.4809C30.9478 20.2909 31.3608 19.946 31.6326 19.499C31.9043 19.052 32.0197 18.5274 31.961 18.0059C31.8757 17.1808 31.7324 16.3621 31.5323 15.5557C31.4565 15.1249 31.276 14.7178 31.0063 14.3699C30.7817 14.1504 30.5089 13.9855 30.2097 13.8885C29.9105 13.7915 29.5932 13.7652 29.2834 13.8115C28.6618 13.9048 28.0552 14.0749 27.4778 14.3178C23.4128 15.7615 18.9787 15.6343 14.7147 15.1629C12.6167 14.9308 10.527 14.5038 8.42215 14.3309C7.12763 14.2254 6.07014 14.4715 5.35205 15.5978C4.67909 16.6586 3.66485 19.6336 5.07287 20.5686Z" fill="#B15352"/>
</g>
<defs>
<clipPath id="clip0_308_621">
<rect width="41" height="46" fill="white"/>
</clipPath>
</defs>
</svg>
