<svg width="26" height="17" viewBox="0 0 26 17" fill="none" xmlns="http://www.w3.org/2000/svg">
<path fill-rule="evenodd" clip-rule="evenodd" d="M23.9834 13.8977C23.9834 15.0193 18.8854 16.249 13.4781 16.249C8.07081 16.249 3.64966 14.2999 3.64966 13.1783C3.64966 12.0567 8.78765 11.8679 14.1936 11.8679C19.5995 11.8679 23.9834 12.7761 23.9834 13.8977Z" fill="#E2CAB3"/>
<path fill-rule="evenodd" clip-rule="evenodd" d="M24.8202 15.0426C24.8354 15.6417 23.5329 16.1614 21.91 16.2025C20.2871 16.2435 18.9584 15.7921 18.9432 15.1917C18.9281 14.5912 20.2305 14.0728 21.8534 14.0318C23.4763 13.9907 24.805 14.4421 24.8202 15.0426Z" fill="#E2CAB3"/>
<path fill-rule="evenodd" clip-rule="evenodd" d="M1.19096 10.7791C0.326337 12.8089 1.3788 13.8717 2.78069 14.0468C3.33316 14.1152 4.16187 13.7363 4.77512 13.4997C5.27408 13.2802 5.74778 13.0083 6.18806 12.6886C6.39662 12.4766 6.64247 12.188 6.69219 11.8679C6.69887 11.7442 6.67218 11.621 6.61485 11.5109C6.63044 11.4648 6.65328 11.4214 6.68253 11.3823C6.75711 11.2455 6.55546 11.1402 6.65628 10.987C6.8165 10.7422 6.60518 10.4782 6.50159 10.2607C6.46706 10.191 5.5762 9.40722 5.53476 9.33199C4.79169 8.55372 4.59142 8.18715 3.56935 8.02712C2.28623 7.82468 1.04179 8.28837 1.19096 10.7791Z" fill="#5F825C"/>
<g style="mix-blend-mode:multiply" opacity="0.4">
<path fill-rule="evenodd" clip-rule="evenodd" d="M1.65508 10.0296C1.80148 10.0474 1.8733 10.4399 1.81253 10.9105C1.75176 11.381 1.58602 11.7421 1.43823 11.7243C1.29044 11.7065 1.22139 11.314 1.28078 10.8434C1.34017 10.3729 1.50038 10.0104 1.65508 10.0296Z" fill="#5F825C"/>
</g>
<path fill-rule="evenodd" clip-rule="evenodd" d="M1.79322 12.2304C1.47969 12.3671 1.50869 12.7679 1.63576 13.0278C1.63888 13.0319 1.64122 13.0365 1.64267 13.0415C1.67251 13.1013 1.70961 13.1574 1.75316 13.2083C1.90708 13.4024 2.11949 13.5428 2.3595 13.6091C2.6606 13.6843 3.00589 13.6337 3.17992 13.3971C3.18418 13.3898 3.1911 13.3844 3.19926 13.382V13.352C3.16058 13.1988 2.92302 13.1687 2.79595 13.1495C2.51972 13.1071 2.43823 12.8664 2.35398 12.6434C2.26972 12.4205 2.06945 12.1045 1.79322 12.2304Z" fill="#8DB54F"/>
<g style="mix-blend-mode:multiply" opacity="0.4">
<path fill-rule="evenodd" clip-rule="evenodd" d="M4.63011 9.21575C4.37459 9.35252 4.61215 9.66165 4.73508 9.808C5.01131 10.1472 5.38975 10.3907 5.62041 10.7764C5.85107 11.1621 5.54997 11.7598 5.91875 12.0854C5.93652 12.1011 5.95728 12.1132 5.97981 12.1209C6.00234 12.1286 6.0262 12.1317 6.04998 12.1302C6.07376 12.1287 6.097 12.1225 6.11834 12.112C6.13968 12.1014 6.15869 12.0868 6.17427 12.069C6.19042 12.0431 6.20253 12.015 6.21018 11.9855C6.25506 11.9288 6.29007 11.865 6.31376 11.7968C6.3759 11.5828 6.36768 11.3548 6.29028 11.1457C6.23227 10.9583 6.36211 10.7764 6.30548 10.589C6.27953 10.5192 6.23798 10.4561 6.18393 10.4044C6.12728 10.3393 6.06227 10.2818 5.99057 10.2334C5.85688 10.1233 5.73346 10.0015 5.62179 9.86955C5.48803 9.71256 5.34111 9.56705 5.18258 9.43459C5.01546 9.2773 4.79861 9.1241 4.63011 9.21575Z" fill="#5F825C"/>
</g>
<path fill-rule="evenodd" clip-rule="evenodd" d="M1.4259 10.905C1.28778 10.8817 1.20076 10.827 0.754643 10.7176C0.308522 10.6082 0.0820084 10.5836 0.0129494 10.5425C-0.0561096 10.5015 0.137256 10.2867 0.137256 10.2867C0.137256 10.2867 0.471501 10.4139 0.746356 10.5152C1.02121 10.6164 1.52396 10.7504 1.52396 10.7504C1.52396 10.7504 1.60269 10.7942 1.57092 10.8653C1.53915 10.9364 1.4259 10.905 1.4259 10.905Z" fill="#300D33"/>
<path fill-rule="evenodd" clip-rule="evenodd" d="M24.859 6.95068C24.4847 7.03685 24.1684 7.26117 23.7789 7.28032C23.3645 7.30084 22.9502 7.12986 22.5455 7.0519C21.6657 6.88229 20.7651 6.78791 19.8757 6.6908C18.0801 6.49384 16.2611 6.40903 14.4587 6.20386C12.6562 5.99869 10.8676 5.7648 9.06379 5.77301C8.19479 5.77517 7.32753 5.85021 6.47132 5.99733C5.76554 6.11906 5.04732 6.26131 4.45618 6.68122C4.0012 7.01266 3.65833 7.47286 3.47278 8.00115C3.23246 8.64401 4.50176 12.5805 4.69374 12.839C6.36221 15.0275 9.16324 15.5063 13.7722 15.4146C18.6975 15.3161 20.6008 14.7731 21.9958 13.553C22.7458 12.8979 23.377 11.2127 23.4902 10.8831C23.6822 10.3018 23.8949 9.72868 24.0938 9.1501C24.2195 8.78353 24.3507 8.42106 24.5081 8.0668C24.6747 7.73399 24.8133 7.38813 24.9225 7.03275C24.9256 7.02307 24.9264 7.01278 24.9246 7.00277C24.9228 6.99276 24.9187 6.98331 24.9124 6.97525C24.9062 6.96718 24.898 6.96073 24.8887 6.95645C24.8794 6.95217 24.8692 6.95019 24.859 6.95068Z" fill="#DA840D"/>
<path fill-rule="evenodd" clip-rule="evenodd" d="M24.1131 7.22015C23.4847 7.65785 22.58 7.67563 21.8438 7.81925C20.0262 8.17488 18.2141 8.41971 16.3592 8.37594C14.5443 8.33491 12.7281 8.1229 10.9201 7.97518C9.07208 7.82472 7.21992 7.71666 5.36638 7.8001C4.95691 7.81493 4.55071 7.8783 4.15646 7.98886C3.95481 8.0463 3.65371 8.12564 3.55289 8.33081C3.52802 8.38405 3.51439 8.44177 3.51283 8.50041V8.50999C3.42168 8.81364 3.52803 9.06805 3.633 9.3375C3.65786 9.45103 3.68548 9.56456 3.71172 9.67809C3.66476 9.67809 3.65786 9.74921 3.71172 9.75058H3.72692C3.73262 9.75698 3.73963 9.76211 3.74749 9.76562C3.75535 9.76914 3.76387 9.77096 3.7725 9.77096C3.78112 9.77096 3.78964 9.76914 3.7975 9.76562C3.80536 9.76211 3.81237 9.75698 3.81807 9.75058C4.14403 9.75058 4.46723 9.6904 4.79457 9.68219C5.28627 9.66851 5.70338 9.91745 6.13293 10.1226C6.90363 10.4865 7.63151 10.9118 8.41188 11.2346C8.76005 11.3789 9.11823 11.4982 9.48367 11.5916C9.84804 11.6692 10.2171 11.7232 10.5886 11.753C10.9836 11.8036 11.3745 11.8898 11.7681 11.9432C12.209 11.9949 12.6535 12.0091 13.0968 11.9856C14.8574 11.9548 16.6126 11.7833 18.3453 11.4726C19.9199 11.1799 21.4944 10.7395 22.8659 9.8983C23.4082 9.5718 23.8675 9.1263 24.2084 8.59616C24.3659 8.35132 24.4999 8.08734 24.6463 7.83566C24.754 7.64827 24.8838 7.42532 24.8645 7.20784C24.8327 6.73459 24.3065 7.08748 24.1131 7.22015Z" fill="#C66720"/>
<path opacity="0.4" fill-rule="evenodd" clip-rule="evenodd" d="M13.5222 14.4954C6.68534 15.4529 4.63843 12.7269 4.70058 12.8076C6.36905 14.9961 9.17146 15.4748 13.7791 15.3831C18.7044 15.286 20.7057 14.7102 22.1021 13.4901C22.8092 12.8705 23.5924 10.5849 23.7484 10.1404C20.3273 12.928 19.3508 13.6748 13.5222 14.4954Z" fill="#C66720"/>
<path fill-rule="evenodd" clip-rule="evenodd" d="M25.9942 4.72117C25.9154 4.24108 25.1655 4.17406 24.7953 4.03728C24.468 3.91691 24.2428 3.62694 23.9763 3.40946C23.6886 3.17396 23.3687 2.98008 23.026 2.83361C22.2457 2.49987 21.4639 2.23315 20.7526 1.76126C20.0979 1.32493 19.2941 1.26885 18.5427 1.14712C18.0782 1.07531 17.6236 0.950937 17.1878 0.776448C16.8006 0.59626 16.3916 0.466163 15.971 0.389361C15.5373 0.331914 15.0911 0.430395 14.6575 0.448176C14.1768 0.467326 13.7348 0.311397 13.2832 0.174617C12.9145 0.0423829 12.5229 -0.0157412 12.1313 0.00364233C11.7666 0.0337339 11.4407 0.225225 11.1341 0.413982C11.1264 0.418214 11.1199 0.424342 11.1153 0.43177C11.1107 0.439198 11.1081 0.447676 11.1078 0.456383C10.7611 0.635565 10.4283 0.835263 10.0802 1.01581C9.78979 1.17445 9.47828 1.29186 9.15483 1.3646C8.75843 1.44667 8.38552 1.38101 7.99188 1.33041C7.30129 1.2415 6.64799 1.22509 5.99331 1.47539C5.21433 1.77357 4.59418 2.38087 3.8221 2.70641C3.15775 2.97997 2.57904 3.30414 2.16468 3.91007C1.99222 4.16438 1.87466 4.45123 1.81939 4.75263C1.76828 5.0768 1.84701 5.37088 1.91607 5.68821C2.00723 6.09855 1.92574 6.42682 1.80696 6.82211C1.70574 7.08276 1.71319 7.37254 1.82768 7.62774C1.93541 7.83565 2.16468 7.96969 2.36495 8.07638C2.56523 8.18307 3.07626 8.29796 3.11908 8.5469C3.30139 9.60284 4.50026 9.1077 5.20604 9.36758C5.55272 9.49752 5.87315 9.69449 6.22535 9.82169C6.63004 9.96805 7.05406 10.0775 7.46841 10.1883C8.29712 10.4098 9.09544 10.7053 9.90067 11.0089C10.2556 11.1457 10.5913 11.3153 10.9711 11.3837C11.3509 11.4521 11.7432 11.3906 12.1188 11.3577C12.8992 11.288 15.3674 11.4945 15.6947 11.329C16.1187 11.1225 16.5124 11.1416 16.9709 11.1799C17.3287 11.21 17.638 10.9474 17.9971 10.9187C18.4099 10.8784 18.817 10.7935 19.2112 10.6656C19.5628 10.5311 19.9209 10.4142 20.2844 10.3155C20.6987 10.2238 21.0606 9.92701 21.4791 9.87093C22.2926 9.76014 22.8893 9.30877 23.5191 8.7849C24.0909 8.31028 25.4431 6.67439 25.5605 6.35022C25.6779 6.02605 25.7649 5.66632 25.8602 5.33121C25.9127 5.14382 26.0273 4.92087 25.9942 4.72117Z" fill="#F0A508"/>
<g opacity="0.5">
<path opacity="0.5" fill-rule="evenodd" clip-rule="evenodd" d="M13.2335 2.30974C13.1189 2.45883 12.9808 2.49986 12.9932 3.42723C13.0056 4.35459 13.0954 4.70475 12.7349 5.4078C12.3744 6.11084 11.6755 6.79337 11.4283 7.54156C11.1811 8.28974 10.8689 9.51803 11.1852 9.99539C11.5015 10.4727 12.6534 10.708 14.2238 10.7504C15.7942 10.7928 17.5165 10.5384 18.4848 10.2402C19.453 9.94204 20.0123 9.81894 20.2319 9.55632C20.4516 9.29371 19.3563 7.05052 18.5897 6.17513C17.8232 5.29974 17.4558 5.00977 16.5912 4.28483C15.7265 3.5599 15.3481 3.2713 14.9213 2.68588C14.4945 2.10046 14.384 2.069 13.9352 2.07584C13.6816 2.07512 13.435 2.15735 13.2335 2.30974Z" fill="#E2CAB3"/>
<path opacity="0.5" fill-rule="evenodd" clip-rule="evenodd" d="M4.51001 8.20359C5.11911 6.81254 5.92296 6.17926 6.14809 5.86466C6.76824 4.99885 7.13563 4.61997 7.95743 4.49687C8.77924 4.37376 8.32897 4.37787 9.26265 4.24793C10.1963 4.11799 10.9795 3.91692 11.6107 3.42725C12.2419 2.93758 12.5678 2.55596 12.9034 2.43696C13.2391 2.31796 13.757 2.05261 13.3896 2.42739C13.0222 2.80216 13.5125 2.94442 12.8219 3.96069C12.1314 4.97696 11.8026 5.5022 11.5568 6.28594C11.3109 7.06969 11.0568 9.51531 10.4947 9.70817C9.93252 9.90103 8.5914 9.93523 7.34557 9.47701C6.37886 9.10121 5.43241 8.67617 4.51001 8.20359Z" fill="#E2CAB3"/>
<path opacity="0.5" fill-rule="evenodd" clip-rule="evenodd" d="M21.3467 8.8287C21.3467 8.8287 22.5013 8.4717 23.1643 7.90133C23.8272 7.33096 24.4902 6.79889 24.7002 6.01514C24.9101 5.23139 25.1477 5.0358 24.8908 4.80327C24.6339 4.57074 23.2596 3.33562 22.1284 2.72695C20.9972 2.11828 19.5594 1.73393 18.2804 1.46721C17.0015 1.20049 16.3233 1.35642 15.6562 1.33043C14.9891 1.30445 13.9325 2.06631 13.9477 2.07452C14.317 2.42628 14.7279 2.7326 15.1714 2.98684C15.7708 3.29869 17.1686 3.82666 17.8509 4.21785C18.5332 4.60904 19.0746 5.47349 19.2321 5.87836C19.3895 6.28323 19.6105 6.40906 19.8356 7.1846C20.0608 7.96015 20.6851 9.20894 20.6851 9.20894L21.3467 8.8287Z" fill="#E2CAB3"/>
<path opacity="0.5" fill-rule="evenodd" clip-rule="evenodd" d="M2.62903 4.11662C2.62903 4.11662 2.0959 5.53502 2.37214 6.21755C2.56371 6.66525 2.82467 7.08059 3.1456 7.44857C3.1456 7.44857 3.83619 8.10238 4.30717 7.42532C4.77815 6.74826 5.79884 5.16709 6.60959 4.55705C7.42035 3.94701 8.42999 3.8157 9.17859 3.7268C9.92719 3.63789 11.6854 3.33834 12.1716 2.94578C12.6578 2.55323 13.9478 2.0745 13.9478 2.0745C13.3897 1.82076 12.8083 1.6206 12.2117 1.47677C11.3084 1.2716 9.86365 1.82009 8.69103 1.54653C7.51841 1.27297 6.37479 1.88985 5.07648 2.54639C4.21434 2.99533 3.39516 3.5209 2.62903 4.11662Z" fill="#E2CAB3"/>
<path opacity="0.5" fill-rule="evenodd" clip-rule="evenodd" d="M10.3635 1.21278C10.3635 1.21278 11.5776 0.0788792 12.4021 0.0993962C13.4449 0.126752 13.7833 0.353806 14.2819 0.509735C14.8496 0.684813 15.0761 0.754571 14.9297 0.980258C14.7833 1.20594 14.0927 2.21128 14.0927 2.21128C14.0927 2.21128 12.4353 1.40564 11.8276 1.31263C11.3428 1.2426 10.8534 1.20922 10.3635 1.21278Z" fill="#E2CAB3"/>
</g>
<path opacity="0.4" fill-rule="evenodd" clip-rule="evenodd" d="M22.3037 2.46842C21.9763 2.33164 21.6476 2.21812 21.3258 2.06629C20.9489 1.87465 20.5616 1.70387 20.1656 1.55473C19.8083 1.44618 19.4417 1.37063 19.0703 1.32905C18.2306 1.19227 17.4599 0.848951 16.6547 0.602747C16.193 0.462084 15.7105 0.400108 15.2279 0.419462C14.808 0.446818 14.3868 0.446818 13.9669 0.419462C13.5525 0.375693 13.1879 0.185569 12.7846 0.0802487C12.2943 -0.0483242 11.8868 0.0802487 11.4518 0.311406C10.8095 0.641046 10.1686 1.04318 9.47252 1.25382C9.10074 1.3739 8.71165 1.43304 8.32062 1.4289C7.90627 1.41522 7.51125 1.33315 7.1038 1.3058C6.65494 1.25833 6.20178 1.34002 5.79859 1.54106C5.49258 1.70167 5.20421 1.89327 4.93811 2.1128C4.93673 2.13694 4.93673 2.16114 4.93811 2.18529C4.85779 2.41767 4.82905 2.66447 4.85386 2.90885C4.86601 3.15822 4.93196 3.40212 5.04727 3.62414C5.16258 3.84615 5.32457 4.04113 5.52235 4.19595C5.80964 4.43668 6.11073 4.62134 6.35106 4.90994C6.59138 5.19855 6.76541 5.49946 7.04165 5.73062C7.49191 6.11087 8.08996 6.14096 8.65625 6.14096C8.95458 6.14096 9.25153 6.12591 9.54849 6.14096C9.95607 6.18346 10.3568 6.27533 10.7418 6.41452C11.5374 6.66072 12.3178 7.0013 13.1396 7.16134C13.9614 7.32137 14.7763 7.12851 15.5746 6.9165C16.3729 6.70449 17.1602 6.56224 17.9419 6.35707C18.6487 6.185 19.3195 5.8915 19.9239 5.48989C20.5689 5.02586 21.1522 4.48312 21.66 3.87452C21.8548 3.6502 22.0399 3.41767 22.2319 3.19062C22.4026 3.01952 22.5168 2.80103 22.5592 2.56417C22.4725 2.53653 22.3872 2.50457 22.3037 2.46842Z" fill="#E2CAB3"/>
<path fill-rule="evenodd" clip-rule="evenodd" d="M11.2833 3.40808C11.2198 3.42176 11.1563 3.4327 11.0969 3.44091H11.0775C10.6439 3.52434 10.2143 3.6283 9.76819 3.5941C9.46709 3.57222 8.29033 3.60368 8.56656 4.14122C8.56982 4.15052 8.56982 4.16064 8.56656 4.16994C8.80965 4.32314 9.34969 4.26022 9.53339 4.24654C9.68913 4.236 9.84382 4.2136 9.99608 4.17952C10.4293 4.00938 10.8413 3.79046 11.2239 3.52708C11.2487 3.49002 11.2686 3.45005 11.2833 3.40808Z" fill="#C66720"/>
<path fill-rule="evenodd" clip-rule="evenodd" d="M12.996 4.51053C13.0245 4.22414 13.0143 3.93526 12.9656 3.65155C12.7811 4.08561 12.5446 4.49616 12.2612 4.87436C12.0955 5.0809 11.8759 5.26008 11.7419 5.48987C11.6701 5.61297 11.5706 5.79626 11.6231 5.94671C11.706 6.18334 11.8524 6.18197 12.0085 6.15052C12.2764 5.98638 12.5222 5.6034 12.6548 5.40643C12.7775 5.22398 12.8772 5.02739 12.9518 4.82102C12.967 4.71843 12.9808 4.61585 12.996 4.51053Z" fill="#C66720"/>
<path fill-rule="evenodd" clip-rule="evenodd" d="M17.4117 3.68986C17.0878 3.55925 16.7573 3.44557 16.4214 3.34928C16.2163 3.29647 16.0158 3.2274 15.8219 3.14275C15.6731 3.05425 15.5049 3.00264 15.3316 2.99229C15.3211 2.9916 15.3107 2.99362 15.3012 2.99813C15.2918 3.00264 15.2837 3.0095 15.2777 3.01804C15.2717 3.02658 15.2681 3.03651 15.2671 3.04685C15.2661 3.0572 15.2679 3.06762 15.2722 3.07709C15.2859 3.12062 15.313 3.15885 15.3496 3.18651C15.5555 3.47176 15.7837 3.74067 16.0319 3.99078C16.2542 4.23972 16.4462 4.50781 16.6948 4.73896C17.0318 5.0604 17.6409 5.25599 17.9862 4.81283C18.3674 4.31905 17.8481 3.87178 17.4117 3.68986Z" fill="#C66720"/>
<path fill-rule="evenodd" clip-rule="evenodd" d="M16.0194 1.26613C15.902 1.01583 15.5208 1.02266 15.268 1.08148C15.2475 1.08413 15.2272 1.08825 15.2072 1.09379C14.8574 1.27199 14.5861 1.57141 14.4448 1.93499C14.8592 1.81325 15.1644 1.52465 15.6023 1.47404C15.6727 1.46583 16.0995 1.43437 16.0194 1.26613Z" fill="#C66720"/>
<path fill-rule="evenodd" clip-rule="evenodd" d="M10.1742 1.7202C10.2297 1.73772 10.2873 1.74784 10.3455 1.7503C10.4823 1.72711 10.6211 1.71794 10.7598 1.72294C10.8137 1.72026 10.8676 1.72026 10.9214 1.72294C11.1023 1.73012 11.2826 1.74747 11.4615 1.77492L11.5319 1.79407C11.6303 1.80438 11.7289 1.77751 11.8082 1.71884C11.4035 1.54239 10.2889 1.12384 10.1369 1.66412C10.1348 1.67641 10.1375 1.68903 10.1444 1.69944C10.1513 1.70984 10.162 1.71726 10.1742 1.7202Z" fill="#C66720"/>
<path fill-rule="evenodd" clip-rule="evenodd" d="M2.59862 7.64005C2.56628 7.71121 2.54307 7.78611 2.52956 7.863C2.50889 7.92021 2.49679 7.98012 2.49365 8.04081C2.4943 8.04463 2.49586 8.04825 2.49818 8.05136C2.50051 8.05447 2.50355 8.057 2.50705 8.05873C2.51055 8.06047 2.51441 8.06136 2.51832 8.06133C2.52223 8.06131 2.52609 8.06037 2.52956 8.05859C2.571 8.03534 2.57238 7.96558 2.57929 7.92181C2.59181 7.82887 2.61308 7.73728 2.64282 7.64825C2.65387 7.62774 2.61105 7.61406 2.59862 7.64005Z" fill="#C66720"/>
<path fill-rule="evenodd" clip-rule="evenodd" d="M2.85821 7.85205C2.82294 7.91979 2.79738 7.99207 2.78225 8.0668C2.7712 8.10646 2.73943 8.16938 2.75186 8.20358C2.75265 8.20801 2.75479 8.21209 2.758 8.21528C2.76122 8.21846 2.76534 8.22058 2.76982 8.22136C2.8223 8.22136 2.82783 8.15297 2.83611 8.11604C2.85545 8.03534 2.87202 7.9519 2.89965 7.87257C2.90932 7.84932 2.87202 7.82743 2.85821 7.85205Z" fill="#C66720"/>
<path fill-rule="evenodd" clip-rule="evenodd" d="M4.10679 8.78487C4.09436 8.92165 4.05016 9.05843 4.05155 9.20342C4.05155 9.24445 4.11646 9.25129 4.11784 9.20342C4.13872 9.06242 4.15209 8.92043 4.1579 8.77803C4.15652 8.75068 4.10956 8.75752 4.10679 8.78487Z" fill="#C66720"/>
<path fill-rule="evenodd" clip-rule="evenodd" d="M4.44936 8.85602C4.4042 8.96385 4.38255 9.07991 4.38582 9.1966C4.38582 9.24037 4.45626 9.24857 4.45764 9.1966C4.46172 9.08369 4.47418 8.97122 4.49493 8.86012C4.50046 8.83824 4.45902 8.8314 4.44936 8.85602Z" fill="#C66720"/>
<path fill-rule="evenodd" clip-rule="evenodd" d="M10.0307 10.7231C10.0098 10.7746 9.99501 10.8283 9.98646 10.8831C9.97345 10.9322 9.96787 10.9829 9.96988 11.0336C9.9717 11.039 9.97522 11.0438 9.97993 11.0472C9.98464 11.0506 9.99031 11.0524 9.99613 11.0524C10.0019 11.0524 10.0076 11.0506 10.0123 11.0472C10.017 11.0438 10.0206 11.039 10.0224 11.0336C10.0341 10.9889 10.0401 10.9429 10.0403 10.8968C10.0486 10.8393 10.0514 10.7819 10.0624 10.7245C10.0652 10.7121 10.0376 10.708 10.0307 10.7231Z" fill="#C66720"/>
<path fill-rule="evenodd" clip-rule="evenodd" d="M10.4228 10.7709C10.4012 10.84 10.3864 10.911 10.3786 10.9829C10.3631 11.0432 10.3585 11.1057 10.3648 11.1676C10.367 11.1729 10.3707 11.1775 10.3755 11.1807C10.3803 11.1839 10.3859 11.1856 10.3917 11.1856C10.3975 11.1856 10.4032 11.1839 10.408 11.1807C10.4128 11.1775 10.4165 11.1729 10.4187 11.1676C10.4334 11.1137 10.4399 11.0579 10.438 11.0021C10.438 10.9255 10.4504 10.8489 10.4574 10.7737C10.4566 10.7698 10.4546 10.7663 10.4517 10.7637C10.4488 10.7611 10.4451 10.7596 10.4411 10.7592C10.4372 10.7589 10.4333 10.7599 10.43 10.762C10.4267 10.7641 10.4242 10.7673 10.4228 10.7709Z" fill="#C66720"/>
<path fill-rule="evenodd" clip-rule="evenodd" d="M11.9822 11.0048C11.9822 10.9829 11.956 10.9638 11.945 10.9843C11.9094 11.0519 11.8905 11.1269 11.8897 11.2032C11.8897 11.2415 11.88 11.3399 11.9284 11.3495C11.9315 11.3506 11.9347 11.3511 11.938 11.3509C11.9413 11.3507 11.9445 11.3499 11.9474 11.3485C11.9504 11.3471 11.953 11.3452 11.9552 11.3427C11.9574 11.3403 11.9591 11.3375 11.9601 11.3345C11.9624 11.2918 11.9591 11.2491 11.9505 11.2073C11.9499 11.1385 11.9606 11.0701 11.9822 11.0048Z" fill="#C66720"/>
<path fill-rule="evenodd" clip-rule="evenodd" d="M12.3704 10.9912C12.3695 10.9881 12.3675 10.9854 12.3649 10.9835C12.3623 10.9816 12.3592 10.9806 12.3559 10.9806C12.3527 10.9806 12.3495 10.9816 12.3469 10.9835C12.3443 10.9854 12.3424 10.9881 12.3414 10.9912C12.3109 11.1081 12.2988 11.2289 12.3055 11.3495C12.3055 11.3864 12.3649 11.3905 12.3635 11.3495C12.357 11.2301 12.3593 11.1103 12.3704 10.9912Z" fill="#C66720"/>
<path fill-rule="evenodd" clip-rule="evenodd" d="M12.7957 11.0336C12.7957 11.0289 12.7938 11.0244 12.7905 11.021C12.7871 11.0177 12.7825 11.0158 12.7778 11.0158C12.773 11.0158 12.7684 11.0177 12.7651 11.021C12.7617 11.0244 12.7598 11.0289 12.7598 11.0336C12.7543 11.0883 12.7501 11.143 12.7474 11.1977C12.7474 11.2374 12.7198 11.2894 12.7474 11.3236C12.7496 11.3252 12.7522 11.3261 12.755 11.3261C12.7577 11.3261 12.7604 11.3252 12.7626 11.3236C12.8095 11.3236 12.8068 11.2483 12.8095 11.2128C12.8121 11.1527 12.8074 11.0926 12.7957 11.0336Z" fill="#C66720"/>
<path fill-rule="evenodd" clip-rule="evenodd" d="M20.3619 10.1787C20.3619 10.1869 20.3619 10.165 20.3619 10.1623C20.3536 10.1427 20.3466 10.1226 20.3412 10.1021C20.3274 10.0487 20.3246 9.9913 20.308 9.93795C20.308 9.92291 20.2777 9.9147 20.2735 9.93795C20.2694 9.96121 20.2735 10.2621 20.3591 10.2115C20.3622 10.2101 20.3648 10.2079 20.3666 10.2051C20.3685 10.2024 20.3697 10.1992 20.37 10.1959C20.3702 10.1926 20.3697 10.1892 20.3682 10.1862C20.3668 10.1832 20.3646 10.1806 20.3619 10.1787Z" fill="#C66720"/>
<path fill-rule="evenodd" clip-rule="evenodd" d="M20.8536 10.0556C20.8262 9.9718 20.7929 9.89 20.7541 9.81076C20.7523 9.80513 20.7483 9.80046 20.743 9.79777C20.7376 9.79508 20.7315 9.79458 20.7258 9.79639C20.7201 9.79821 20.7154 9.80218 20.7127 9.80744C20.71 9.8127 20.7095 9.81881 20.7113 9.82443C20.7319 9.91279 20.7587 9.99963 20.7914 10.0843C20.8066 10.1253 20.8701 10.0966 20.8536 10.0556Z" fill="#C66720"/>
<path fill-rule="evenodd" clip-rule="evenodd" d="M21.3258 9.81346C21.2778 9.74501 21.2453 9.66709 21.2305 9.58504C21.2292 9.58 21.2263 9.57552 21.2222 9.57232C21.2181 9.56912 21.213 9.56738 21.2077 9.56738C21.2025 9.56738 21.1974 9.56912 21.1933 9.57232C21.1891 9.57552 21.1862 9.58 21.1849 9.58504C21.1786 9.68311 21.208 9.78018 21.2678 9.8586C21.294 9.90237 21.3534 9.85313 21.3258 9.81346Z" fill="#C66720"/>
<path fill-rule="evenodd" clip-rule="evenodd" d="M21.9143 9.74646C21.8678 9.70785 21.8298 9.66029 21.8025 9.60669C21.7752 9.55308 21.7592 9.49453 21.7554 9.43461C21.7557 9.43132 21.755 9.42801 21.7534 9.42512C21.7518 9.42223 21.7493 9.4199 21.7463 9.41842C21.7433 9.41694 21.74 9.41639 21.7367 9.41684C21.7334 9.41729 21.7303 9.41871 21.7278 9.42093C21.6063 9.50573 21.7886 9.72458 21.8562 9.78887C21.8908 9.82716 21.9488 9.78066 21.9143 9.74646Z" fill="#C66720"/>
<path fill-rule="evenodd" clip-rule="evenodd" d="M22.5802 9.43461C22.5071 9.31209 22.4264 9.19423 22.3385 9.08172C22.3288 9.0653 22.297 9.07078 22.304 9.09266C22.3468 9.22944 22.4683 9.32655 22.5277 9.45923C22.5429 9.49616 22.5954 9.47154 22.5802 9.43461Z" fill="#C66720"/>
<path fill-rule="evenodd" clip-rule="evenodd" d="M23.1295 9.01196C23.1171 8.98597 23.084 8.97092 23.0619 8.95451L22.9527 8.87518C22.9251 8.85466 22.8961 8.83551 22.8671 8.81636C22.8381 8.79722 22.8367 8.80816 22.8243 8.80132C22.8119 8.79448 22.8133 8.80132 22.8174 8.80132C22.8215 8.80132 22.8243 8.8232 22.834 8.83278C22.8584 8.85788 22.8842 8.88163 22.9113 8.9039C22.9458 8.93399 22.9818 8.96135 23.0177 8.98871C23.0536 9.01606 23.0729 9.03931 23.1047 9.03931C23.1082 9.03934 23.1117 9.03862 23.1149 9.03722C23.1181 9.03581 23.121 9.03375 23.1233 9.03116C23.1257 9.02858 23.1274 9.02553 23.1285 9.02222C23.1296 9.01891 23.1299 9.01541 23.1295 9.01196Z" fill="#C66720"/>
<path fill-rule="evenodd" clip-rule="evenodd" d="M23.598 8.67001C23.5954 8.66205 23.5907 8.65493 23.5844 8.6494C23.5781 8.64386 23.5704 8.64012 23.5621 8.63855C23.5363 8.62672 23.5126 8.61104 23.4916 8.59204C23.4429 8.5498 23.401 8.50045 23.3673 8.44569C23.3521 8.42244 23.3162 8.44569 23.3273 8.47168C23.3567 8.53709 23.3995 8.59576 23.453 8.64402C23.4861 8.67411 23.5483 8.72472 23.5911 8.696C23.5948 8.69291 23.5975 8.68875 23.5987 8.68409C23.5999 8.67944 23.5997 8.67452 23.598 8.67001Z" fill="#C66720"/>
<path fill-rule="evenodd" clip-rule="evenodd" d="M25.1574 6.911C25.151 6.9036 25.1432 6.8976 25.1344 6.89336C25.1256 6.88912 25.116 6.88674 25.1063 6.88638C25.0756 6.88112 25.0464 6.86946 25.0206 6.85218C24.9657 6.81457 24.9245 6.76034 24.9032 6.69762C24.9032 6.6771 24.8673 6.68941 24.8687 6.70856C24.8773 6.78238 24.9144 6.85004 24.9723 6.89732C25.0123 6.93015 25.1104 6.98349 25.156 6.93562C25.1591 6.93233 25.1609 6.92806 25.1612 6.92356C25.1615 6.91905 25.1601 6.91461 25.1574 6.911Z" fill="#C66720"/>
<path fill-rule="evenodd" clip-rule="evenodd" d="M25.4624 6.56221C25.3457 6.50244 25.2475 6.41267 25.1779 6.30233C25.1655 6.28181 25.1296 6.30233 25.142 6.32011C25.2055 6.44639 25.3095 6.54833 25.4376 6.61009C25.4652 6.62103 25.49 6.57452 25.4624 6.56221Z" fill="#C66720"/>
<path fill-rule="evenodd" clip-rule="evenodd" d="M25.6517 6.07939C25.5988 6.04523 25.548 6.00776 25.4998 5.96723C25.4529 5.92483 25.4087 5.88243 25.3617 5.84413C25.3437 5.83046 25.3203 5.85644 25.3355 5.87422C25.4074 5.98494 25.5074 6.07502 25.6255 6.13547C25.6327 6.13726 25.6402 6.1365 25.6469 6.13335C25.6536 6.13019 25.6589 6.12483 25.6621 6.11819C25.6652 6.11154 25.6658 6.10403 25.6639 6.09695C25.6621 6.08987 25.6578 6.08366 25.6517 6.07939Z" fill="#C66720"/>
<path fill-rule="evenodd" clip-rule="evenodd" d="M2.25596 7.27895C2.13638 7.44124 2.05561 7.62833 2.01978 7.82607C2.01978 7.84248 2.04326 7.84385 2.0474 7.82607C2.09481 7.63826 2.17931 7.46161 2.29601 7.30631C2.31259 7.28032 2.27253 7.25296 2.25596 7.27895Z" fill="#C66720"/>
<path fill-rule="evenodd" clip-rule="evenodd" d="M2.04069 7.14354C2.0103 7.15722 1.99787 7.18321 1.97715 7.21056C1.95644 7.23792 1.92053 7.2899 1.89566 7.3323C1.86043 7.38093 1.84158 7.43932 1.8418 7.49917C1.8418 7.51968 1.87357 7.51558 1.87495 7.49917C1.891 7.43725 1.9202 7.37943 1.96058 7.32956C1.99373 7.27895 2.05864 7.22151 2.06555 7.16132C2.06579 7.15828 2.06524 7.15523 2.06394 7.15246C2.06265 7.14969 2.06066 7.1473 2.05816 7.14552C2.05567 7.14373 2.05275 7.14261 2.04969 7.14227C2.04663 7.14192 2.04353 7.14236 2.04069 7.14354Z" fill="#C66720"/>
<path fill-rule="evenodd" clip-rule="evenodd" d="M2.43976 7.58807C2.4009 7.64992 2.36939 7.71601 2.34584 7.78503C2.3151 7.84943 2.29282 7.91746 2.27954 7.98746C2.27954 8.00524 2.30578 8.01071 2.30993 7.98746C2.32763 7.92004 2.35312 7.85487 2.38589 7.79323C2.42623 7.73107 2.45434 7.66193 2.46876 7.58943C2.46895 7.58562 2.46759 7.5819 2.465 7.57908C2.46241 7.57626 2.4588 7.57457 2.45495 7.57439C2.4511 7.57421 2.44734 7.57555 2.44449 7.57811C2.44164 7.58068 2.43994 7.58426 2.43976 7.58807Z" fill="#C66720"/>
<path fill-rule="evenodd" clip-rule="evenodd" d="M3.18831 8.0668C3.08472 8.09826 3.03638 8.23367 3.00875 8.32805C3.00771 8.33291 3.00848 8.33798 3.01093 8.34232C3.01338 8.34665 3.01733 8.34997 3.02205 8.35164C3.02677 8.35331 3.03195 8.35322 3.03662 8.3514C3.04128 8.34958 3.04512 8.34614 3.04743 8.34173C3.06398 8.29393 3.08575 8.24807 3.11234 8.20495C3.13858 8.16392 3.17588 8.12972 3.2035 8.08869C3.20902 8.08048 3.20074 8.0668 3.18831 8.0668Z" fill="#C66720"/>
<path fill-rule="evenodd" clip-rule="evenodd" d="M3.41763 8.47712C3.36377 8.49627 3.33476 8.56329 3.3099 8.6139C3.28169 8.67273 3.26887 8.73764 3.27261 8.80266C3.27261 8.82454 3.30576 8.82865 3.30714 8.80266C3.31177 8.74826 3.32578 8.69506 3.34857 8.64536C3.37067 8.59202 3.42454 8.55098 3.43973 8.49764C3.44079 8.49464 3.44094 8.4914 3.44017 8.48832C3.43941 8.48524 3.43775 8.48244 3.43541 8.48027C3.43308 8.4781 3.43015 8.47664 3.42699 8.47609C3.42384 8.47553 3.42059 8.47589 3.41763 8.47712Z" fill="#C66720"/>
<path fill-rule="evenodd" clip-rule="evenodd" d="M3.63985 8.62076C3.59557 8.69068 3.56206 8.76674 3.5404 8.84644C3.51083 8.92073 3.48863 8.99769 3.4741 9.07623C3.47301 9.08095 3.47384 9.0859 3.47643 9.09001C3.47902 9.09411 3.48315 9.09703 3.48792 9.09812C3.49268 9.0992 3.49768 9.09838 3.50183 9.09581C3.50597 9.09324 3.50892 9.08915 3.51002 9.08444C3.53057 9.00827 3.55689 8.93374 3.58874 8.86149C3.62773 8.78891 3.65566 8.71101 3.67161 8.63033C3.67225 8.62826 3.67247 8.62609 3.67225 8.62395C3.67204 8.6218 3.67141 8.61971 3.67038 8.6178C3.66935 8.6159 3.66796 8.61421 3.66627 8.61284C3.66459 8.61147 3.66265 8.61044 3.66056 8.60981C3.65848 8.60918 3.65629 8.60897 3.65412 8.60918C3.65195 8.60939 3.64984 8.61002 3.64792 8.61103C3.64599 8.61205 3.64429 8.61343 3.64291 8.6151C3.64152 8.61677 3.64048 8.61869 3.63985 8.62076Z" fill="#C66720"/>
<path fill-rule="evenodd" clip-rule="evenodd" d="M3.84303 8.84099C3.79489 8.94782 3.77493 9.06501 3.78502 9.18157C3.78502 9.20483 3.82094 9.20756 3.82094 9.18157C3.82094 9.06805 3.87204 8.95589 3.86513 8.84373C3.86437 8.84156 3.86301 8.83965 3.86121 8.83821C3.85941 8.83677 3.85724 8.83586 3.85494 8.83557C3.85264 8.83529 3.85031 8.83565 3.84821 8.8366C3.8461 8.83756 3.84431 8.83908 3.84303 8.84099Z" fill="#C66720"/>
<path fill-rule="evenodd" clip-rule="evenodd" d="M10.8247 10.8763C10.7759 11.003 10.7574 11.1393 10.7709 11.2743C10.7709 11.2921 10.8026 11.2907 10.804 11.2743C10.804 11.2086 10.8137 11.1375 10.822 11.0787C10.8379 11.0138 10.8458 10.9472 10.8454 10.8804C10.8454 10.8667 10.8289 10.8681 10.8247 10.8763Z" fill="#C66720"/>
<path fill-rule="evenodd" clip-rule="evenodd" d="M11.1853 11.1389C11.1853 11.0759 11.2157 11.0199 11.2213 10.9569C11.2205 10.9548 11.2191 10.953 11.2172 10.9518C11.2154 10.9505 11.2132 10.9498 11.2109 10.9498C11.2086 10.9498 11.2064 10.9505 11.2046 10.9518C11.2027 10.953 11.2013 10.9548 11.2005 10.9569C11.1604 11.021 11.137 11.0939 11.1324 11.1691C11.1278 11.2443 11.1422 11.3195 11.1743 11.3878C11.184 11.4083 11.2116 11.3878 11.2047 11.3741C11.18 11.2982 11.1734 11.2177 11.1853 11.1389Z" fill="#C66720"/>
<path fill-rule="evenodd" clip-rule="evenodd" d="M11.5169 11.1854C11.5211 11.1229 11.5156 11.0601 11.5003 10.9994C11.4988 10.9965 11.4965 10.9941 11.4937 10.9924C11.4909 10.9908 11.4877 10.9899 11.4844 10.9899C11.4811 10.9899 11.4779 10.9908 11.4751 10.9924C11.4723 10.9941 11.4701 10.9965 11.4685 10.9994C11.4568 11.0613 11.4568 11.1248 11.4685 11.1867C11.4725 11.2582 11.485 11.3289 11.5058 11.3974C11.5058 11.4206 11.5486 11.4152 11.5431 11.3974C11.5285 11.3275 11.5198 11.2566 11.5169 11.1854Z" fill="#C66720"/>
<path fill-rule="evenodd" clip-rule="evenodd" d="M23.946 8.06679C23.946 8.05174 23.9253 8.04353 23.9184 8.05584C23.907 8.07363 23.9009 8.09427 23.9009 8.11534C23.9009 8.13642 23.907 8.15706 23.9184 8.17484C23.9405 8.21724 23.9943 8.28016 24.0468 8.27332C24.051 8.27234 24.0546 8.2698 24.0569 8.26623C24.0593 8.26266 24.0601 8.25834 24.0593 8.25417C24.0455 8.18031 23.9281 8.15022 23.946 8.06679Z" fill="#C66720"/>
<path fill-rule="evenodd" clip-rule="evenodd" d="M24.4448 7.84661C24.431 7.82472 24.4185 7.82199 24.3937 7.81378C24.3597 7.80324 24.3295 7.78331 24.3067 7.75633C24.2625 7.7047 24.2317 7.64321 24.2169 7.57715C24.2164 7.57446 24.2153 7.5719 24.2137 7.56961C24.2122 7.56733 24.2102 7.56537 24.2079 7.56385C24.2056 7.56232 24.203 7.56126 24.2003 7.56073C24.1976 7.5602 24.1948 7.5602 24.192 7.56074C24.1893 7.56128 24.1867 7.56234 24.1844 7.56387C24.1821 7.5654 24.1801 7.56736 24.1786 7.56965C24.1771 7.57194 24.176 7.5745 24.1755 7.5772C24.1749 7.57989 24.1749 7.58267 24.1755 7.58536C24.1879 7.66084 24.2187 7.73219 24.2652 7.79326C24.2998 7.83567 24.3909 7.90542 24.4462 7.86713C24.4481 7.86399 24.449 7.86032 24.4488 7.85665C24.4485 7.85297 24.4471 7.84947 24.4448 7.84661Z" fill="#C66720"/>
<path fill-rule="evenodd" clip-rule="evenodd" d="M24.6793 7.38292C24.6365 7.34052 24.5909 7.29812 24.5508 7.25298C24.5343 7.23383 24.4997 7.25298 24.5122 7.27623C24.5434 7.33128 24.5815 7.38228 24.6254 7.42806C24.6627 7.46636 24.7041 7.52791 24.7635 7.53201C24.7664 7.53225 24.7694 7.53183 24.7721 7.53079C24.7748 7.52976 24.7772 7.52813 24.7792 7.52602C24.7812 7.52392 24.7827 7.5214 24.7836 7.51864C24.7845 7.51589 24.7847 7.51298 24.7843 7.51013C24.776 7.45678 24.7207 7.42122 24.6793 7.38292Z" fill="#C66720"/>
<path opacity="0.4" fill-rule="evenodd" clip-rule="evenodd" d="M14.5858 2.62161C14.5858 2.99776 14.0043 3.30551 13.2847 3.30551C12.5651 3.30551 11.9836 3.00049 11.9836 2.62161C11.9836 2.24273 12.5651 1.93771 13.2847 1.93771C14.0043 1.93771 14.5858 2.24547 14.5858 2.62161Z" fill="#DA840D"/>
<path fill-rule="evenodd" clip-rule="evenodd" d="M21.7097 8.34034C18.7761 7.6031 17.5482 9.22121 17.5966 11.1252C17.6159 11.8693 18.301 12.8951 18.7513 13.6706C19.1507 14.2903 19.6165 14.8654 20.1407 15.3859C20.4722 15.6198 20.9142 15.8892 21.3575 15.8892C21.5275 15.8726 21.69 15.8118 21.8285 15.7128C21.8934 15.7253 21.9562 15.747 22.015 15.7771C22.2249 15.8482 22.3175 15.5582 22.5467 15.6608C22.9127 15.8263 23.229 15.4898 23.5025 15.3065C23.5909 15.2477 24.4693 13.8991 24.5646 13.8279C25.4693 12.6776 25.9251 12.3384 25.9348 10.9419C25.9458 9.19658 25.0605 7.63319 21.7097 8.34034Z" fill="#C73A54"/>
<g style="mix-blend-mode:multiply">
<path fill-rule="evenodd" clip-rule="evenodd" d="M22.8218 8.79721C22.8218 8.99691 22.3052 9.17199 21.6574 9.1884C21.0097 9.20482 20.4807 9.05162 20.4751 8.85603C20.4696 8.66043 20.9917 8.47715 21.6395 8.46484C22.2872 8.45253 22.8162 8.59752 22.8218 8.79721Z" fill="#ED6366"/>
</g>
<path fill-rule="evenodd" clip-rule="evenodd" d="M19.8619 9.44283C19.6036 9.05575 19.0746 9.16927 18.7473 9.39633L18.7307 9.40864C18.6547 9.45948 18.586 9.5202 18.5263 9.58919C18.2935 9.83384 18.1459 10.1459 18.105 10.4796C18.065 10.89 18.2045 11.3454 18.5622 11.5274C18.5723 11.5325 18.5805 11.5406 18.5857 11.5506C18.5994 11.5478 18.6128 11.5436 18.6257 11.5383C18.8274 11.4562 18.8177 11.128 18.8191 10.9611C18.8191 10.5904 19.1299 10.4263 19.4144 10.2676C19.6754 10.1185 20.0884 9.78341 19.8619 9.44283Z" fill="#ED6366"/>
<g style="mix-blend-mode:multiply">
<path fill-rule="evenodd" clip-rule="evenodd" d="M24.5356 12.6024C24.2925 12.2919 23.9279 12.6708 23.7539 12.8623C23.3492 13.3068 23.0964 13.8553 22.6185 14.241C22.1406 14.6267 21.2733 14.3463 20.9017 14.9071C20.8844 14.9342 20.8725 14.9643 20.867 14.9959C20.8614 15.0274 20.8621 15.0597 20.8692 15.091C20.8763 15.1222 20.8895 15.1518 20.9081 15.178C20.9267 15.2042 20.9504 15.2265 20.9777 15.2436C21.0163 15.2586 21.0567 15.2687 21.0979 15.2737C21.1838 15.3215 21.2771 15.3547 21.3741 15.3722C21.6771 15.4114 21.9848 15.3539 22.2525 15.2081C22.4956 15.0932 22.7705 15.2272 23.0122 15.1137C23.1015 15.0654 23.1785 14.9976 23.2373 14.9153C23.3148 14.8264 23.3798 14.7275 23.4307 14.6213C23.5522 14.422 23.6909 14.2335 23.845 14.0577C24.0324 13.8471 24.2019 13.6216 24.3519 13.3834C24.5315 13.1276 24.6944 12.8076 24.5356 12.6024Z" fill="#ED6366"/>
</g>
<path fill-rule="evenodd" clip-rule="evenodd" d="M24.4585 5.74156C24.2955 5.68685 23.9958 5.93306 23.8687 6.00828C23.5787 6.18063 23.2845 6.35434 23.0055 6.54309C22.5817 6.83744 22.2305 7.2227 21.9779 7.67016C21.8726 7.8607 21.802 8.06813 21.7694 8.28293C21.7265 8.3957 21.7049 8.51533 21.7058 8.63582C21.7051 8.64427 21.706 8.65278 21.7086 8.66087C21.7112 8.66896 21.7153 8.67646 21.7209 8.68295C21.7264 8.68943 21.7331 8.69477 21.7407 8.69865C21.7484 8.70254 21.7567 8.70489 21.7652 8.70558C22.4724 8.71379 23.1961 8.25557 23.6906 7.79463C23.9497 7.56843 24.1549 7.28814 24.2914 6.97395C24.3594 6.79676 24.4103 6.61356 24.4433 6.42683C24.482 6.22713 24.424 5.98503 24.4889 5.80038C24.4924 5.78859 24.4912 5.7759 24.4856 5.76495C24.4799 5.754 24.4702 5.74562 24.4585 5.74156Z" fill="#8DB54F"/>
<path fill-rule="evenodd" clip-rule="evenodd" d="M21.5869 8.68094C21.5869 8.48534 21.6463 8.36361 21.7029 7.7481C21.7596 7.13259 21.7485 6.82484 21.7899 6.72362C21.8314 6.6224 22.1629 6.83715 22.1629 6.83715C22.1629 6.83715 22.0565 7.30904 21.9778 7.69612C21.8991 8.08321 21.8203 8.77942 21.8203 8.77942C21.8203 8.77942 21.7775 8.89295 21.6739 8.86422C21.5703 8.8355 21.5869 8.68094 21.5869 8.68094Z" fill="#300D33"/>
</svg>
