<svg width="25" height="19" viewBox="0 0 25 19" fill="none" xmlns="http://www.w3.org/2000/svg">
<path d="M9.78833 2.69555C9.78833 2.69555 12.3884 -0.339138 16.9568 1.35958C16.9568 1.35958 14.3552 5.77153 9.78833 2.69555Z" fill="#5C7732"/>
<path d="M9.78833 2.69555C9.78833 2.69555 12.3884 -0.339138 16.9568 1.35958C16.9568 1.35958 12.5918 2.37115 9.78833 2.69555Z" fill="#69893E"/>
<path d="M8.87842 5.4825L9.71348 0L10.6893 0.576562L9.34948 5.63438C9.18863 5.59555 9.03114 5.54477 8.87842 5.4825Z" fill="#69893E"/>
<path d="M16.8742 11.9014C16.8742 15.8237 11.1587 18.944 6.67442 18.944C2.19014 18.944 0 15.5215 0 11.5991C0 7.67668 3.63698 4.496 8.12278 4.496C12.6086 4.496 16.8742 7.97897 16.8742 11.9014Z" fill="#E87F18"/>
<path d="M7.64715 6.21681C8.69939 4.90001 11.4554 5.27898 12.9604 6.39671C14.4653 7.51445 14.2833 9.21169 13.2311 10.5255C12.1788 11.8394 10.1034 12.0001 8.59845 10.8839C7.0935 9.76761 6.59185 7.53509 7.64715 6.21681Z" fill="#E89B34"/>
<path d="M17.2412 18.7183C15.765 18.7183 14.322 18.2963 13.0946 17.5056C11.8673 16.7149 10.9106 15.591 10.3457 14.2762C9.78082 12.9613 9.63302 11.5144 9.921 10.1185C10.209 8.72264 10.9198 7.44044 11.9636 6.43407C13.0074 5.42769 14.3373 4.74235 15.7851 4.46469C17.2329 4.18703 18.7336 4.32953 20.0974 4.87418C21.4612 5.41882 22.6268 6.34115 23.4469 7.52452C24.2671 8.70789 24.7048 10.0992 24.7048 11.5224C24.7028 13.4303 23.9158 15.2595 22.5165 16.6085C21.1173 17.9576 19.22 18.7164 17.2412 18.7183Z" fill="#FFB506"/>
<path d="M17.2413 4.6951C15.8299 4.6951 14.4501 5.09863 13.2766 5.85466C12.103 6.61068 11.1883 7.68526 10.6482 8.94249C10.1081 10.1997 9.96675 11.5831 10.2421 12.9178C10.5175 14.2525 11.1971 15.4784 12.1952 16.4407C13.1932 17.4029 14.4648 18.0582 15.8491 18.3237C17.2334 18.5892 18.6682 18.4529 19.9722 17.9322C21.2762 17.4114 22.3908 16.5295 23.1749 15.3981C23.959 14.2666 24.3776 12.9363 24.3776 11.5755C24.3756 9.75131 23.6231 8.00238 22.2852 6.71248C20.9473 5.42257 19.1333 4.69705 17.2413 4.6951ZM11.7017 8.70007C11.7216 8.64551 12.2676 7.29331 13.1332 7.04558C13.1984 7.02779 13.2659 7.01886 13.3336 7.01904C13.435 7.01926 13.5351 7.04028 13.6274 7.0807C13.7197 7.12113 13.802 7.18003 13.8689 7.2535L16.3909 10.676C16.4185 10.7114 16.5592 10.9031 16.498 11.0181C16.483 11.0437 16.4604 11.0644 16.4332 11.0775C16.4059 11.0906 16.3753 11.0956 16.345 11.0918C16.2396 11.0843 16.1362 11.0599 16.0392 11.0196L11.9097 9.69246C11.8435 9.67347 11.7824 9.64081 11.7307 9.59675C11.6789 9.5527 11.6377 9.49831 11.6099 9.43736C11.5182 9.25893 11.5488 9.00678 11.7017 8.70007ZM11.2062 12.8289C10.6571 12.1388 11.041 10.7365 11.0532 10.676C11.1725 10.0641 11.483 9.97116 11.665 9.97116C11.7213 9.97141 11.7772 9.98088 11.8302 9.99917L15.981 11.2614C16.2349 11.3292 16.3542 11.4089 16.3557 11.5062C16.3557 11.6448 16.1065 11.7274 16.0499 11.7436L11.9296 13.084C11.8747 13.0948 11.8189 13.1002 11.7629 13.1002C11.6546 13.0998 11.5479 13.075 11.4513 13.0279C11.3547 12.9808 11.2708 12.9127 11.2062 12.8289ZM13.3336 16.1025C13.2657 16.1029 13.1982 16.0934 13.1332 16.0745C12.2676 15.8282 11.7216 14.476 11.7002 14.4185C11.5472 14.1118 11.5182 13.8596 11.6099 13.6812C11.6405 13.6228 11.6836 13.5713 11.7363 13.5302C11.7891 13.489 11.8502 13.4591 11.9158 13.4423L16.0453 12.1078C16.1424 12.068 16.2458 12.0441 16.3512 12.037C16.3814 12.0333 16.4121 12.0382 16.4393 12.0514C16.4666 12.0645 16.4891 12.0852 16.5041 12.1108C16.5653 12.2258 16.4246 12.4175 16.397 12.4544L13.8735 15.8695C13.8061 15.9438 13.7231 16.0035 13.6301 16.0447C13.537 16.0859 13.436 16.1076 13.3336 16.1084V16.1025ZM17.0776 17.0315C17.0806 17.0905 17.0715 17.1496 17.0507 17.2053C17.03 17.2609 16.9981 17.3121 16.9568 17.3559C16.8819 17.4239 16.7929 17.476 16.6956 17.5085C16.5983 17.541 16.495 17.5533 16.3925 17.5446C16.3188 17.5438 16.2453 17.5388 16.1722 17.5299C16.1126 17.5299 14.6091 17.4591 14.0922 16.7469C14.0153 16.6394 13.9715 16.513 13.9661 16.3825C13.9607 16.252 13.9938 16.1227 14.0616 16.0096L16.6249 12.618C16.6509 12.5841 16.7779 12.4086 16.9094 12.4086C16.9269 12.409 16.9442 12.4126 16.9602 12.4195C16.9762 12.4263 16.9907 12.4362 17.0027 12.4485C17.0623 12.5074 17.0853 12.6298 17.0776 12.8348V17.0315ZM17.0027 10.6672C16.9906 10.6793 16.9761 10.6889 16.9601 10.6955C16.9441 10.702 16.9268 10.7055 16.9094 10.7055C16.784 10.7055 16.6509 10.5315 16.6249 10.4961L14.0708 7.11489C14.0027 7.00202 13.9692 6.87288 13.9741 6.74241C13.9789 6.61193 14.022 6.48546 14.0983 6.3776C14.6153 5.66537 16.1187 5.59607 16.1829 5.59459C16.2544 5.58549 16.3264 5.58057 16.3986 5.57985C16.5011 5.57113 16.6044 5.58345 16.7017 5.61598C16.799 5.64851 16.888 5.70052 16.9629 5.7686C17.0046 5.81302 17.0367 5.86495 17.0574 5.92138C17.0781 5.97781 17.0871 6.03764 17.0838 6.09743V10.2882C17.0853 10.4917 17.0623 10.617 17.0027 10.6731V10.6672ZM21.2025 7.01019C21.2702 7.00991 21.3377 7.01885 21.4029 7.03674C22.2685 7.28447 22.8145 8.63666 22.8375 8.69417C22.9904 9.00088 23.0179 9.25303 22.9262 9.43146C22.896 9.49029 22.8531 9.5422 22.8003 9.58366C22.7475 9.62513 22.6861 9.65519 22.6203 9.67182L18.4908 10.9989C18.3937 11.0388 18.2903 11.0627 18.1849 11.0697C18.1547 11.0735 18.124 11.0685 18.0968 11.0554C18.0695 11.0423 18.047 11.0216 18.032 10.996C17.9724 10.881 18.1115 10.6893 18.1406 10.6524L20.6641 7.25498C20.731 7.18048 20.8137 7.12062 20.9065 7.07942C20.9994 7.03822 21.1003 7.01663 21.2025 7.01609V7.01019ZM17.3499 10.3663L17.4416 6.17705C17.458 6.04605 17.5127 5.92226 17.5994 5.82015C17.6861 5.71804 17.8011 5.64185 17.9311 5.60049C18.051 5.56529 18.1758 5.54788 18.3012 5.54888C19.1118 5.54888 20.0432 6.16968 20.083 6.19622C20.3888 6.36728 20.5571 6.55897 20.5892 6.76246C20.5987 6.82632 20.5941 6.8914 20.5756 6.95341C20.5572 7.01543 20.5253 7.07297 20.4821 7.12226L17.8439 10.4607C17.7139 10.6406 17.6099 10.7247 17.5212 10.7247C17.5036 10.7247 17.4862 10.7212 17.4701 10.7143C17.4541 10.7075 17.4397 10.6974 17.4279 10.6849C17.3664 10.5898 17.339 10.4779 17.3499 10.3663ZM20.5892 16.3679C20.5571 16.5714 20.3858 16.7631 20.0784 16.9371C20.0432 16.9607 19.1118 17.5815 18.3012 17.5815C18.1758 17.5825 18.051 17.5651 17.9311 17.5299C17.8022 17.4893 17.6879 17.4142 17.6015 17.3135C17.5151 17.2127 17.4602 17.0904 17.4432 16.9607L17.3499 12.7625C17.3392 12.6515 17.3666 12.5401 17.4279 12.4455C17.4397 12.4329 17.4541 12.4229 17.4701 12.416C17.4862 12.4092 17.5036 12.4057 17.5212 12.4057C17.6099 12.4057 17.7139 12.4897 17.8454 12.6711L20.4852 16.011C20.5276 16.0601 20.5588 16.1173 20.5767 16.1788C20.5946 16.2403 20.5989 16.3047 20.5892 16.3679ZM22.8359 14.4332C22.8145 14.4878 22.2685 15.84 21.4044 16.0863C21.3389 16.1053 21.2709 16.1147 21.2025 16.1143C21.1014 16.1138 21.0016 16.0926 20.9096 16.0522C20.8176 16.0118 20.7355 15.953 20.6687 15.8798L18.1452 12.4573C18.1176 12.4219 17.9785 12.2302 18.0381 12.1152C18.0531 12.0896 18.0757 12.0689 18.1029 12.0558C18.1301 12.0427 18.1608 12.0377 18.1911 12.0415C18.2965 12.049 18.3999 12.0734 18.4969 12.1137L22.6264 13.4409C22.6898 13.4585 22.7487 13.4887 22.7993 13.5296C22.8499 13.5705 22.891 13.6211 22.92 13.6783C23.0179 13.8611 22.9889 14.1177 22.8359 14.4273V14.4332ZM22.7702 13.2123C22.7188 13.2115 22.6676 13.2061 22.6172 13.1961L18.4878 11.8601C18.4388 11.8454 18.1819 11.7613 18.1895 11.6227C18.1895 11.5239 18.3119 11.4457 18.5658 11.3794L22.7197 10.1142C22.7687 10.097 22.8205 10.088 22.8726 10.0876C23.047 10.0876 23.359 10.1805 23.4844 10.7969C23.4997 10.853 23.8836 12.2553 23.3315 12.9469C23.2649 13.0288 23.1796 13.0949 23.0823 13.1399C22.9849 13.1849 22.8781 13.2077 22.7702 13.2064V13.2123Z" fill="#FFFFCF"/>
<path d="M17.2351 4.2955C13.1209 4.2955 9.70264 7.25941 9.70264 11.226C9.70264 15.1927 12.7064 19 16.8236 19C20.9409 19 25.0015 15.5923 25.0015 11.6271C25.0015 7.66197 21.3507 4.2955 17.2351 4.2955ZM17.2351 18.4515C15.8237 18.4503 14.4444 18.0457 13.2715 17.2888C12.0987 16.5318 11.185 15.4566 10.6459 14.199C10.1068 12.9414 9.96667 11.558 10.2431 10.2236C10.5195 8.88915 11.2001 7.66374 12.1988 6.70227C13.1976 5.74079 14.4696 5.08643 15.854 4.82193C17.2385 4.55742 18.6732 4.69465 19.9767 5.21627C21.2803 5.73788 22.3941 6.62045 23.1775 7.75238C23.9608 8.88431 24.3784 10.2148 24.3775 11.5755C24.3755 13.3997 23.6229 15.1486 22.2851 16.4385C20.9472 17.7284 19.1332 18.454 17.2412 18.4559L17.2351 18.4515Z" fill="#F38E1C"/>
<path d="M16.9569 5.76269C16.8819 5.69462 16.7929 5.6426 16.6956 5.61007C16.5984 5.57754 16.4951 5.56523 16.3925 5.57394C16.3204 5.57466 16.2484 5.57959 16.1769 5.58869C16.1126 5.58869 14.6092 5.65947 14.0922 6.37169C14.0159 6.47955 13.9729 6.60603 13.968 6.7365C13.9631 6.86698 13.9967 6.99612 14.0647 7.10898L16.625 10.5005C16.651 10.5359 16.7779 10.7099 16.9095 10.7099C16.9269 10.7099 16.9441 10.7065 16.9601 10.6999C16.9762 10.6933 16.9907 10.6837 17.0027 10.6716C17.0624 10.6126 17.0853 10.4902 17.0777 10.2867V6.09152C17.081 6.03174 17.0721 5.97191 17.0513 5.91548C17.0306 5.85904 16.9985 5.80712 16.9569 5.76269Z" fill="#FFB506"/>
<path d="M20.5891 6.76245C20.5569 6.55896 20.3857 6.36726 20.0828 6.19621C20.0431 6.16967 19.1116 5.54887 18.301 5.54887C18.1757 5.54787 18.0509 5.56527 17.9309 5.60048C17.801 5.64183 17.6859 5.71803 17.5992 5.82013C17.5126 5.92224 17.4579 6.04604 17.4415 6.17704L17.3497 10.3663C17.3389 10.4779 17.3663 10.5898 17.4277 10.6848C17.4395 10.6974 17.4539 10.7074 17.47 10.7143C17.4861 10.7212 17.5035 10.7247 17.521 10.7247C17.6097 10.7247 17.7137 10.6406 17.8437 10.4607L20.482 7.12225C20.5252 7.07296 20.557 7.01541 20.5755 6.9534C20.5939 6.89139 20.5986 6.82631 20.5891 6.76245Z" fill="#FFB506"/>
<path d="M22.8375 8.70004C22.8145 8.64253 22.2685 7.29033 21.4029 7.0426C21.2716 7.00654 21.1323 7.00736 21.0014 7.04497C20.8706 7.08259 20.7536 7.15543 20.6642 7.25494L18.1467 10.6716C18.1177 10.7084 17.9785 10.9001 18.0381 11.0151C18.0531 11.0407 18.0757 11.0614 18.1029 11.0745C18.1302 11.0877 18.1609 11.0927 18.1911 11.0889C18.2964 11.0818 18.3998 11.0579 18.497 11.0181L22.6264 9.69096C22.6923 9.67433 22.7537 9.64427 22.8064 9.6028C22.8592 9.56134 22.9021 9.50943 22.9323 9.4506C23.018 9.2589 22.9889 9.00675 22.8375 8.70004Z" fill="#FFB506"/>
<path d="M16.3907 10.673L13.8687 7.25051C13.8018 7.17705 13.7195 7.11814 13.6272 7.07772C13.5349 7.03729 13.4348 7.01627 13.3334 7.01605C13.2656 7.01587 13.1982 7.02481 13.133 7.0426C12.2674 7.29033 11.7214 8.64252 11.7015 8.70003C11.5485 9.00969 11.518 9.26184 11.6097 9.44617C11.6387 9.50348 11.6799 9.55433 11.7304 9.59547C11.781 9.6366 11.8399 9.66711 11.9034 9.68505L16.0328 11.0122C16.1299 11.0525 16.2333 11.0769 16.3387 11.0844C16.3689 11.0882 16.3996 11.0832 16.4269 11.0701C16.4541 11.057 16.4767 11.0363 16.4917 11.0107C16.5589 10.9001 16.4182 10.7084 16.3907 10.673Z" fill="#FFB506"/>
<path d="M17.0774 17.0373V12.8377C17.0774 12.6327 17.0621 12.5104 17.0025 12.4514C16.9905 12.4391 16.976 12.4292 16.96 12.4224C16.944 12.4156 16.9267 12.4119 16.9092 12.4116C16.7838 12.4116 16.6507 12.587 16.6247 12.621L14.0614 16.0125C13.9936 16.1256 13.9605 16.2549 13.9659 16.3854C13.9713 16.5159 14.015 16.6423 14.092 16.7498C14.6089 17.462 16.1124 17.5313 16.172 17.5328C16.2451 17.5417 16.3186 17.5467 16.3922 17.5475C16.4948 17.5562 16.5981 17.5439 16.6954 17.5114C16.7926 17.4789 16.8817 17.4269 16.9566 17.3588C17.0392 17.2711 17.0826 17.1556 17.0774 17.0373Z" fill="#FFB506"/>
<path d="M20.485 16.0051L17.8452 12.6652C17.7137 12.4838 17.6097 12.3998 17.521 12.3998C17.5034 12.3997 17.486 12.4033 17.4699 12.4101C17.4538 12.417 17.4394 12.427 17.4277 12.4396C17.3664 12.5342 17.339 12.6456 17.3497 12.7566L17.443 16.9548C17.46 17.0845 17.5149 17.2068 17.6013 17.3076C17.6877 17.4083 17.8019 17.4834 17.9308 17.524C18.0508 17.5592 18.1756 17.5766 18.301 17.5756C19.1116 17.5756 20.043 16.9548 20.0782 16.9312C20.384 16.7572 20.5569 16.5655 20.589 16.362C20.5986 16.2988 20.5944 16.2344 20.5765 16.1729C20.5585 16.1114 20.5274 16.0542 20.485 16.0051Z" fill="#FFB506"/>
<path d="M22.9261 13.6797C22.8973 13.6229 22.8567 13.5724 22.8067 13.5315C22.7566 13.4907 22.6983 13.4603 22.6355 13.4423L18.506 12.1152C18.4089 12.0749 18.3055 12.0505 18.2001 12.0429C18.1699 12.0391 18.1392 12.0441 18.112 12.0573C18.0847 12.0704 18.0622 12.0911 18.0472 12.1167C17.9875 12.2317 18.1267 12.4234 18.1542 12.4588L20.6778 15.8813C20.7445 15.9545 20.8266 16.0132 20.9186 16.0536C21.0106 16.094 21.1105 16.1152 21.2116 16.1157C21.2799 16.1161 21.348 16.1067 21.4135 16.0877C22.2776 15.8414 22.8236 14.4893 22.845 14.4347C22.9888 14.1177 23.0178 13.8611 22.9261 13.6797Z" fill="#FFB506"/>
<path d="M23.4812 10.791C23.3619 10.1747 23.0499 10.0818 22.8694 10.0818C22.8172 10.0822 22.7655 10.0911 22.7164 10.1083L18.5625 11.3735C18.3086 11.4398 18.1893 11.5209 18.1863 11.6168C18.1863 11.7554 18.4356 11.8395 18.4845 11.8542L22.614 13.1902C22.6643 13.2002 22.7155 13.2057 22.7669 13.2064C22.8754 13.207 22.9825 13.1833 23.0799 13.1373C23.1773 13.0912 23.2623 13.024 23.3282 12.941C23.8803 12.2494 23.4964 10.8471 23.4812 10.791Z" fill="#FFB506"/>
<path d="M16.4979 12.1093C16.4829 12.0837 16.4603 12.063 16.4331 12.0499C16.4058 12.0368 16.3751 12.0318 16.3449 12.0356C16.2396 12.0426 16.1362 12.0665 16.039 12.1063L11.9096 13.4408C11.844 13.4576 11.7828 13.4875 11.7301 13.5287C11.6774 13.5699 11.6343 13.6213 11.6037 13.6797C11.5119 13.8655 11.5425 14.1221 11.6939 14.417C11.7153 14.4745 12.2614 15.8267 13.127 16.073C13.192 16.092 13.2595 16.1014 13.3274 16.101C13.4297 16.1002 13.5308 16.0785 13.6239 16.0373C13.7169 15.9961 13.7999 15.9364 13.8673 15.8621L16.3847 12.4455C16.4183 12.416 16.559 12.2243 16.4979 12.1093Z" fill="#FFB506"/>
<path d="M15.978 11.2673L11.8272 10.005C11.7742 9.98674 11.7183 9.97727 11.662 9.97702C11.4876 9.97702 11.1772 10.0699 11.0502 10.6819C11.0334 10.7423 10.6495 12.1447 11.2032 12.8348C11.2689 12.9181 11.3538 12.9854 11.4512 13.0315C11.5487 13.0776 11.6559 13.1011 11.7645 13.1002C11.8199 13.1001 11.8753 13.0947 11.9296 13.084L16.0499 11.7568C16.0989 11.7406 16.3558 11.658 16.3558 11.5194C16.3512 11.4133 16.2319 11.3351 15.978 11.2673Z" fill="#FFB506"/>
</svg>
