<svg width="40" height="43" viewBox="0 0 40 43" fill="none" xmlns="http://www.w3.org/2000/svg">
<path d="M6.77718 14.7418C15.4383 12.6485 24.5049 12.9155 33.0269 15.5149C34.038 15.8276 35.206 16.3184 35.4414 17.3478C35.5079 17.7656 35.4506 18.1938 35.2764 18.5796C35.1022 18.9654 34.8187 19.2921 34.4608 19.5195C33.7385 19.9645 32.9336 20.2599 32.0942 20.3882C26.9733 21.5349 21.7913 22.6859 16.5614 22.5122C13.8838 22.447 11.2345 21.9497 8.7166 21.0397C7.60089 20.6271 1.89594 18.2208 2.80682 16.6963C3.4867 15.5105 5.56559 15.0371 6.77718 14.7418Z" fill="#D88121"/>
<path d="M37.0452 1.33775C37.2729 0.945082 37.5679 0.595214 37.9168 0.304011C38.0986 0.160758 38.3137 0.065387 38.5422 0.026677C38.7706 -0.012033 39.0052 0.00716235 39.2243 0.0824959C39.4532 0.19534 39.6465 0.36904 39.7826 0.584418C39.9187 0.799797 39.9925 1.04848 39.9957 1.303C39.9864 1.81016 39.8721 2.30993 39.6601 2.77108C38.3227 6.2882 36.2418 9.47747 33.5586 12.1225C32.822 12.8478 31.1703 14.7286 31.2051 12.5959C31.2356 10.8586 32.5126 9.0126 33.3015 7.50977C34.4318 5.38386 35.6817 3.32324 37.0452 1.33775Z" fill="#AED5C2"/>
<path d="M26.4199 13.0736C26.849 12.0676 27.5978 11.2299 28.551 10.6891C29.2617 10.3661 30.0537 10.2641 30.8234 10.3966C31.5932 10.5291 32.3049 10.8899 32.8657 11.4318C33.409 11.9913 33.806 12.6753 34.0218 13.4236C34.2377 14.1719 34.2657 14.9615 34.1034 15.7231C33.7521 17.2526 32.8256 18.5896 31.5146 19.4585C30.3074 20.2881 26.7511 21.9951 25.9317 19.945C25.1124 17.8949 25.4654 15.0369 26.4199 13.0736Z" fill="#AED5C2"/>
<path d="M27.3263 13.747C27.6428 13.0127 28.1925 12.4023 28.8909 12.0096C29.4128 11.7718 29.9947 11.6969 30.5601 11.7945C31.1256 11.8922 31.6482 12.1579 32.0594 12.5569C32.4594 12.9666 32.7518 13.4683 32.9107 14.0176C33.0696 14.5669 33.09 15.1468 32.9702 15.7059C32.7136 16.8311 32.0334 17.8152 31.07 18.4553C30.1984 19.0634 27.5834 20.3143 26.9689 18.8114C26.3544 17.3086 26.6246 15.202 27.3263 13.747Z" fill="#8CB5A0"/>
<path d="M7.18239 13.4255C8.45064 11.5883 9.83221 9.65543 11.9024 8.80846C13.6457 8.10482 15.5764 8.26118 17.3938 8.64775C20.7486 9.38316 23.9034 10.835 26.6407 12.9031C29.378 14.9712 31.6326 17.6064 33.2491 20.6269C28.816 23.8735 23.4097 25.527 17.9124 25.3179C14.146 25.1486 10.4708 24.1076 7.17804 22.2774C6.06668 21.6607 3.12051 20.2664 3.35585 18.9634C3.4866 18.1729 4.75049 16.9394 5.2299 16.2705L7.18239 13.4255Z" fill="white"/>
<path d="M19.0108 20.7573C24.3324 20.7209 29.5694 19.4258 34.2908 16.9785C34.4927 16.8738 34.7195 16.8264 34.9466 16.8415C35.1737 16.8565 35.3923 16.9334 35.5785 17.0639C35.7646 17.1943 35.9113 17.3732 36.0024 17.5811C36.0935 17.7889 36.1256 18.0177 36.0951 18.2425L34.3518 31.0339C34.099 32.8972 33.7547 34.943 32.3426 36.1765C31.0787 37.2884 29.2919 37.4795 27.5965 37.6272C22.5642 38.0239 17.5304 38.286 12.4952 38.4134C10.1504 38.4742 7.59214 38.4134 5.77039 36.9583C4.18399 35.6553 3.5259 33.5878 3.06828 31.5985C2.06486 27.247 1.64427 22.7822 1.81746 18.3206C1.93514 15.3932 3.96608 17.3347 5.76604 18.0948C7.71953 18.919 9.74627 19.5588 11.8196 20.0059C14.1821 20.5161 16.5934 20.7681 19.0108 20.7573Z" fill="#F7A32D"/>
<path d="M2.01367 25.1051C2.17929 26.8424 2.4495 28.5277 2.77201 30.2129C13.3031 32.7887 24.3512 32.3369 34.6352 28.9099L35.3543 23.6544C24.6926 27.7284 12.991 28.2375 2.01367 25.1051Z" fill="#FFB966"/>
<path d="M9.11323 30.4041C8.96388 30.4058 8.8157 30.3777 8.6774 30.3215C8.49007 30.2524 8.32776 30.129 8.21127 29.9673C8.09479 29.8055 8.02946 29.6128 8.02367 29.4138C8.02799 29.2932 8.05825 29.175 8.11239 29.0671C8.16652 28.9592 8.24328 28.8641 8.33746 28.7883C8.42025 28.7187 8.51767 28.6685 8.62252 28.6415C8.72737 28.6144 8.83697 28.6111 8.94326 28.6319C8.99071 28.6365 9.03667 28.6509 9.07817 28.6743C9.11966 28.6977 9.15576 28.7295 9.18411 28.7677C9.21247 28.8058 9.23245 28.8496 9.24275 28.8959C9.25306 28.9423 9.25346 28.9903 9.24394 29.0369C9.23441 29.0834 9.21517 29.1275 9.18746 29.1661C9.15975 29.2048 9.1242 29.2372 9.0831 29.2613C9.042 29.2853 8.99629 29.3005 8.94892 29.3058C8.90155 29.3112 8.85359 29.3065 8.80815 29.2921C8.79383 29.2886 8.77888 29.2886 8.76457 29.2921C8.74748 29.3051 8.73325 29.3214 8.72275 29.3401C8.71226 29.3588 8.70572 29.3794 8.70355 29.4007C8.71361 29.4623 8.7399 29.52 8.77972 29.5681C8.81954 29.6162 8.87147 29.6529 8.93018 29.6744C9.00139 29.6984 9.07675 29.7077 9.15168 29.7017C9.22661 29.6957 9.29954 29.6746 9.36601 29.6396C9.45409 29.5967 9.53217 29.5359 9.59523 29.4611C9.65828 29.3863 9.70491 29.2991 9.7321 29.2053C9.77149 29.0143 9.75077 28.8159 9.67277 28.6371C9.59477 28.4583 9.46328 28.3078 9.29627 28.2063C9.0713 28.0786 8.81087 28.0269 8.55397 28.059C8.29707 28.0911 8.0575 28.2053 7.87113 28.3844C7.75752 28.5102 7.65678 28.6469 7.57041 28.7926C7.495 28.9139 7.41355 29.0313 7.32635 29.1445C6.97553 29.6015 6.45944 29.9039 5.88812 29.9871C5.59388 30.0288 5.29388 29.9988 5.0138 29.8997C4.73372 29.8006 4.48191 29.6354 4.27993 29.4181C4.06992 29.1863 3.93246 28.8983 3.88446 28.5896C3.83645 28.281 3.87999 27.9651 4.00972 27.6807C4.14835 27.3926 4.38015 27.1593 4.66787 27.0183C4.95559 26.8773 5.28251 26.8368 5.59612 26.9033C5.77383 26.9442 5.93906 27.0271 6.07787 27.145C6.21667 27.263 6.32499 27.4124 6.39368 27.5808C6.46741 27.7722 6.47394 27.9829 6.41222 28.1785C6.35049 28.3741 6.22414 28.5431 6.05374 28.658C5.95244 28.7185 5.83903 28.7561 5.72155 28.7681C5.60406 28.7801 5.48537 28.7662 5.37385 28.7275C5.27001 28.6935 5.17508 28.6368 5.09593 28.5617C5.01678 28.4866 4.95539 28.3949 4.91624 28.2932C4.89728 28.2508 4.88725 28.2051 4.88675 28.1587C4.88626 28.1124 4.89532 28.0664 4.91336 28.0237C4.93141 27.9809 4.95806 27.9424 4.99167 27.9103C5.02528 27.8783 5.06513 27.8534 5.10875 27.8374C5.15238 27.8213 5.19885 27.8143 5.2453 27.8168C5.29174 27.8194 5.33717 27.8314 5.37877 27.8521C5.42037 27.8729 5.45725 27.9019 5.48714 27.9374C5.51703 27.9729 5.53929 28.0142 5.55254 28.0586C5.56296 28.0707 5.57654 28.0797 5.59176 28.0847C5.60759 28.0915 5.62464 28.095 5.64188 28.095C5.65912 28.095 5.67618 28.0915 5.692 28.0847C5.72982 28.0532 5.75656 28.0105 5.76832 27.9629C5.78008 27.9152 5.77625 27.8651 5.75738 27.8197C5.72922 27.7524 5.68452 27.6933 5.62739 27.6477C5.57027 27.6022 5.50256 27.5717 5.43051 27.5591C5.26922 27.5301 5.10285 27.5543 4.95658 27.628C4.81031 27.7016 4.69211 27.8208 4.61987 27.9674C4.54061 28.1371 4.51484 28.3267 4.54596 28.5112C4.57709 28.6958 4.66364 28.8666 4.7942 29.0011C4.92346 29.1357 5.08291 29.2377 5.25945 29.2989C5.43598 29.36 5.62455 29.3786 5.80968 29.353C6.20525 29.292 6.56156 29.0802 6.80336 28.7622C6.87309 28.671 6.93846 28.5668 7.00819 28.4625C7.11858 28.2794 7.24706 28.1077 7.39172 27.95C7.68538 27.659 8.06768 27.4733 8.47864 27.4222C8.88961 27.3712 9.30596 27.4575 9.66237 27.6677C9.95208 27.8443 10.1792 28.1066 10.312 28.4181C10.4449 28.7296 10.4768 29.0746 10.4033 29.4051C10.3491 29.5872 10.257 29.756 10.1332 29.9004C10.0093 30.0448 9.85629 30.1617 9.68416 30.2434C9.50872 30.3398 9.31338 30.3948 9.11323 30.4041Z" fill="#D88121"/>
<path d="M13.9465 30.9556C13.7627 30.9563 13.5795 30.9329 13.4017 30.8861C13.1652 30.8257 12.9437 30.7174 12.751 30.568C12.5583 30.4185 12.3985 30.2311 12.2817 30.0174C12.1567 29.7846 12.1037 29.5201 12.1293 29.2574C12.1549 28.9946 12.258 28.7452 12.4255 28.5407C12.6149 28.3309 12.8767 28.2 13.1587 28.1743C13.4407 28.1485 13.722 28.2297 13.9465 28.4017C14.064 28.506 14.1544 28.6371 14.2098 28.7839C14.2652 28.9307 14.284 29.0887 14.2647 29.2443C14.2571 29.3892 14.2133 29.5299 14.1372 29.6536C14.061 29.7772 13.955 29.8799 13.8288 29.9523C13.7132 30.0135 13.5848 30.0469 13.4539 30.0499C13.323 30.0529 13.1932 30.0254 13.0749 29.9697C13.2184 30.094 13.3883 30.1845 13.5717 30.2346C13.895 30.3066 14.2328 30.2732 14.5357 30.1395C14.8385 30.0058 15.0903 29.7788 15.254 29.4919C15.3202 29.3505 15.3784 29.2055 15.4283 29.0575C15.5267 28.7183 15.7045 28.4072 15.947 28.1497C16.1251 27.987 16.3411 27.8712 16.5756 27.8128C16.81 27.7544 17.0553 27.7553 17.2893 27.8153C17.7313 27.9324 18.1145 28.2077 18.3658 28.5884C18.4902 28.7613 18.5793 28.9569 18.6279 29.1641C18.6765 29.3713 18.6837 29.586 18.6491 29.7959C18.6076 30.0298 18.4971 30.246 18.3318 30.4169C18.1664 30.5879 17.9537 30.7059 17.7208 30.7558C17.5856 30.778 17.4473 30.7721 17.3146 30.7384C17.1818 30.7048 17.0575 30.6442 16.9493 30.5604C16.7607 30.4166 16.6369 30.2042 16.605 29.9697C16.5932 29.8225 16.6204 29.6748 16.6839 29.5414C16.7474 29.408 16.845 29.2936 16.9668 29.2095C17.0749 29.1265 17.2029 29.0728 17.3381 29.0537C17.4733 29.0347 17.6112 29.051 17.7382 29.101C17.8171 29.1391 17.8782 29.2061 17.9087 29.288C17.9392 29.3699 17.9367 29.4604 17.9019 29.5406C17.867 29.6208 17.8024 29.6844 17.7215 29.7183C17.6407 29.7521 17.5498 29.7534 17.468 29.7221C17.4494 29.7187 17.4302 29.7197 17.4121 29.725C17.3939 29.7303 17.3773 29.7397 17.3634 29.7525C17.3395 29.7684 17.3196 29.7897 17.3052 29.8145C17.2908 29.8394 17.2824 29.8672 17.2806 29.8958C17.2848 29.9265 17.2955 29.9559 17.312 29.9822C17.3286 30.0084 17.3505 30.0308 17.3765 30.0478C17.4104 30.0751 17.4495 30.0952 17.4914 30.1072C17.5334 30.1191 17.5772 30.1225 17.6205 30.1173C17.7195 30.09 17.8083 30.0343 17.8757 29.9571C17.9432 29.8798 17.9863 29.7845 17.9997 29.683C18.0353 29.4341 17.9711 29.1813 17.821 28.9793C17.6665 28.7372 17.4273 28.5608 17.1498 28.4842C17.0242 28.4531 16.8927 28.4535 16.7673 28.4853C16.6418 28.5171 16.5262 28.5794 16.4307 28.6666C16.269 28.8564 16.1501 29.0786 16.0821 29.3181C16.0243 29.488 15.9544 29.6534 15.8729 29.8133C15.6804 30.1552 15.4011 30.4408 15.063 30.6413C14.7249 30.8418 14.3399 30.9502 13.9465 30.9556ZM13.1228 28.8708C13.1688 28.9102 13.2033 28.9613 13.2224 29.0186C13.2416 29.076 13.2448 29.1375 13.2318 29.1965C13.2318 29.2356 13.2623 29.2877 13.3059 29.3181C13.3316 29.3423 13.3634 29.3591 13.3979 29.3668C13.4324 29.3744 13.4684 29.3726 13.502 29.3616C13.5314 29.3407 13.5557 29.3134 13.5731 29.2818C13.5904 29.2502 13.6004 29.2151 13.6022 29.1791C13.6082 29.132 13.6035 29.0841 13.5884 29.0389C13.5733 28.9938 13.5483 28.9527 13.5151 28.9185C13.4566 28.8744 13.3874 28.8467 13.3146 28.8383C13.2418 28.8298 13.168 28.8411 13.101 28.8708H13.1228Z" fill="#D88121"/>
<path d="M21.1507 30.6257C20.9125 30.6297 20.6767 30.5785 20.4619 30.4759C20.247 30.3734 20.0591 30.2224 19.913 30.035C19.738 29.7977 19.6488 29.5085 19.6599 29.2143C19.6709 28.9201 19.7817 28.6383 19.974 28.4149C20.0244 28.3567 20.0939 28.3183 20.1701 28.3063C20.3803 28.2735 20.5954 28.2924 20.7967 28.3613C20.998 28.4301 21.1793 28.5469 21.325 28.7015C21.3594 28.733 21.3869 28.7711 21.4058 28.8136C21.4247 28.8561 21.4346 28.902 21.435 28.9485C21.4354 28.9949 21.4261 29.041 21.4078 29.0837C21.3896 29.1265 21.3627 29.1651 21.3288 29.197C21.2949 29.229 21.2548 29.2536 21.211 29.2695C21.1672 29.2854 21.1205 29.292 21.074 29.2892C21.0274 29.2863 20.982 29.2739 20.9404 29.2527C20.8989 29.2316 20.8622 29.2022 20.8325 29.1663C20.718 29.0475 20.5619 28.9775 20.3967 28.9708C20.3499 29.0784 20.3332 29.1967 20.3486 29.3129C20.3639 29.4292 20.4107 29.5392 20.4839 29.631C20.5814 29.7506 20.7091 29.8422 20.8538 29.8964C20.9986 29.9506 21.1552 29.9654 21.3076 29.9394C21.6474 29.8727 21.9468 29.6743 22.14 29.3878C22.2613 29.2024 22.3649 29.006 22.4495 28.8014C22.5105 28.6624 22.5802 28.5191 22.6543 28.3671C22.7573 28.1446 22.9071 27.9468 23.0936 27.7872C23.2801 27.6275 23.4989 27.5098 23.7351 27.4419C23.9402 27.4054 24.1506 27.4117 24.3532 27.4603C24.5557 27.5089 24.7459 27.5987 24.9119 27.7242C25.1949 27.9455 25.4368 28.2145 25.6266 28.5191C25.7617 28.7145 26.167 29.3139 25.9143 29.8829C25.8063 30.0886 25.6432 30.2604 25.4432 30.3792C25.2432 30.4981 25.014 30.5593 24.7811 30.5562C24.3948 30.5971 24.0066 30.4985 23.6872 30.2782C23.5024 30.1507 23.3632 29.9679 23.2895 29.7563C23.2159 29.5447 23.2117 29.3152 23.2775 29.1011C23.3298 28.9763 23.4106 28.8653 23.5135 28.7771C23.6164 28.6888 23.7386 28.6258 23.8702 28.5929C23.9868 28.5595 24.1097 28.5543 24.2287 28.5777C24.3477 28.6012 24.4594 28.6525 24.5545 28.7276C24.6238 28.7852 24.6674 28.8679 24.6756 28.9575C24.6837 29.0471 24.6559 29.1362 24.5981 29.2054C24.5403 29.2745 24.4573 29.3179 24.3674 29.326C24.2775 29.3342 24.188 29.3064 24.1187 29.2488C24.1057 29.2429 24.0915 29.2399 24.0773 29.2399C24.063 29.2399 24.0489 29.2429 24.0359 29.2488C24.0081 29.2565 23.9823 29.2697 23.9598 29.2876C23.9373 29.3055 23.9187 29.3278 23.9051 29.353C23.8893 29.4291 23.8966 29.5082 23.9261 29.5802C23.9556 29.6521 24.006 29.7137 24.0707 29.757C24.2598 29.8766 24.4851 29.9258 24.707 29.896C24.9206 29.896 25.1908 29.8048 25.2692 29.631C25.3477 29.4573 25.2692 29.2444 25.0383 28.9187C24.8931 28.6786 24.7056 28.4667 24.4848 28.2932C24.3971 28.2225 24.2957 28.1705 24.187 28.1406C24.0782 28.1107 23.9645 28.1035 23.8528 28.1195C23.7137 28.1708 23.5864 28.2496 23.4786 28.3511C23.3708 28.4526 23.2846 28.5747 23.2252 28.7102C23.1599 28.8318 23.1032 28.9578 23.0378 29.0924C22.9359 29.3349 22.8119 29.5675 22.6674 29.7874C22.5195 30.0032 22.33 30.1877 22.1101 30.3301C21.8902 30.4725 21.6441 30.57 21.386 30.617C21.3078 30.624 21.2292 30.6269 21.1507 30.6257Z" fill="#D88121"/>
<path d="M29.1612 29.8393C29.0035 29.8393 28.8465 29.8174 28.6949 29.7741C28.3243 29.6626 28.0015 29.4313 27.7774 29.1167C27.5533 28.8022 27.4406 28.4222 27.4572 28.0368C27.461 27.7558 27.5697 27.4863 27.7622 27.281C27.8859 27.1542 28.0496 27.0737 28.2259 27.0531C28.4021 27.0325 28.5801 27.0731 28.7298 27.1681C28.8078 27.225 28.8735 27.2971 28.9229 27.3799C28.9723 27.4628 29.0045 27.5547 29.0174 27.6502C29.0325 27.7822 29.021 27.9159 28.9835 28.0434C28.9461 28.171 28.8836 28.2898 28.7995 28.3929C28.7417 28.4618 28.6592 28.5054 28.5696 28.5143C28.48 28.5232 28.3904 28.4968 28.3201 28.4407C28.2513 28.3839 28.2077 28.3024 28.1987 28.2138C28.1897 28.1252 28.2161 28.0366 28.2722 27.9673C28.3004 27.934 28.3208 27.895 28.3321 27.8529C28.3434 27.8109 28.3453 27.7669 28.3375 27.724C28.319 27.7236 28.3007 27.7268 28.2835 27.7336C28.2663 27.7403 28.2506 27.7503 28.2373 27.7631C28.1691 27.8496 28.1337 27.9572 28.137 28.0672C28.1169 28.302 28.1778 28.5367 28.3098 28.7323C28.4417 28.9278 28.6368 29.0726 28.8627 29.1426C29.0885 29.2125 29.3315 29.2035 29.5515 29.1169C29.7715 29.0303 29.9552 28.8714 30.0721 28.6666C30.1843 28.4286 30.2607 28.1754 30.2987 27.9151C30.348 27.5235 30.4851 27.148 30.6997 26.8163C30.8799 26.5719 31.1296 26.3872 31.4165 26.2861C31.7034 26.1851 32.0142 26.1724 32.3084 26.2497C32.6027 26.327 32.8668 26.4907 33.0664 26.7195C33.2661 26.9484 33.392 27.2318 33.428 27.5329C33.4632 27.794 33.4164 28.0595 33.2938 28.2929C33.1713 28.5263 32.9791 28.716 32.7437 28.836C32.5988 28.8973 32.4416 28.9245 32.2843 28.9155C32.1271 28.9064 31.9741 28.8614 31.8372 28.7838C31.7146 28.7169 31.6094 28.6223 31.53 28.5077C31.4505 28.3931 31.399 28.2616 31.3796 28.1236C31.3738 28.0384 31.4006 27.9541 31.4546 27.8877C31.5086 27.8213 31.5858 27.7776 31.6707 27.7655C31.7556 27.7535 31.8419 27.7738 31.9124 27.8225C31.9829 27.8712 32.0323 27.9446 32.0508 28.0281C32.0592 28.0605 32.0745 28.0908 32.0955 28.117C32.1165 28.1432 32.1429 28.1647 32.1728 28.1801C32.219 28.2053 32.27 28.2207 32.3226 28.2252C32.3751 28.2297 32.428 28.2232 32.4779 28.2062C32.5816 28.1432 32.6643 28.051 32.7155 27.9412C32.7667 27.8315 32.7841 27.709 32.7655 27.5894C32.7462 27.4226 32.6769 27.2655 32.5665 27.1386C32.4562 27.0117 32.31 26.9209 32.147 26.8782C31.9841 26.8355 31.812 26.8428 31.6533 26.8992C31.4946 26.9556 31.3567 27.0584 31.2575 27.1941C31.1038 27.4469 31.0072 27.73 30.9743 28.0237C30.9239 28.3563 30.821 28.6789 30.6692 28.9793C30.5152 29.2415 30.295 29.4589 30.0304 29.6098C29.7658 29.7607 29.4661 29.8399 29.1612 29.8393Z" fill="#D88121"/>
<path d="M4.35824 22.6902C4.21711 22.7026 4.08576 22.7672 3.99007 22.8713C3.89438 22.9755 3.84131 23.1115 3.84131 23.2527C3.84131 23.3939 3.89438 23.53 3.99007 23.6341C4.08576 23.7382 4.21711 23.8028 4.35824 23.8152C4.49936 23.8028 4.63072 23.7382 4.7264 23.6341C4.82209 23.53 4.87517 23.3939 4.87517 23.2527C4.87517 23.1115 4.82209 22.9755 4.7264 22.8713C4.63072 22.7672 4.49936 22.7026 4.35824 22.6902Z" fill="#E8E8E8"/>
<path d="M10.0457 21.248C9.90461 21.2604 9.77326 21.325 9.67757 21.4291C9.58188 21.5332 9.52881 21.6693 9.52881 21.8105C9.52881 21.9516 9.58188 22.0877 9.67757 22.1918C9.77326 22.2959 9.90461 22.3606 10.0457 22.3729C10.1869 22.3606 10.3182 22.2959 10.4139 22.1918C10.5096 22.0877 10.5627 21.9516 10.5627 21.8105C10.5627 21.6693 10.5096 21.5332 10.4139 21.4291C10.3182 21.325 10.1869 21.2604 10.0457 21.248Z" fill="#E8E8E8"/>
<path d="M11.9242 23.8281C11.783 23.8405 11.6517 23.9051 11.556 24.0092C11.4603 24.1133 11.4072 24.2494 11.4072 24.3906C11.4072 24.5318 11.4603 24.6679 11.556 24.772C11.6517 24.8761 11.783 24.9407 11.9242 24.9531C12.0653 24.9407 12.1966 24.8761 12.2923 24.772C12.388 24.6679 12.4411 24.5318 12.4411 24.3906C12.4411 24.2494 12.388 24.1133 12.2923 24.0092C12.1966 23.9051 12.0653 23.8405 11.9242 23.8281Z" fill="#E8E8E8"/>
<path d="M19.6121 24.5708C19.471 24.5832 19.3397 24.6478 19.244 24.7519C19.1483 24.856 19.0952 24.9921 19.0952 25.1333C19.0952 25.2745 19.1483 25.4105 19.244 25.5146C19.3397 25.6188 19.471 25.6834 19.6121 25.6957C19.7533 25.6834 19.8846 25.6188 19.9803 25.5146C20.076 25.4105 20.1291 25.2745 20.1291 25.1333C20.1291 24.9921 20.076 24.856 19.9803 24.7519C19.8846 24.6478 19.7533 24.5832 19.6121 24.5708Z" fill="#E8E8E8"/>
<path d="M25.1429 21.9474C25.0018 21.9598 24.8704 22.0244 24.7747 22.1286C24.6791 22.2327 24.626 22.3687 24.626 22.5099C24.626 22.6511 24.6791 22.7872 24.7747 22.8913C24.8704 22.9954 25.0018 23.06 25.1429 23.0724C25.284 23.06 25.4154 22.9954 25.5111 22.8913C25.6068 22.7872 25.6598 22.6511 25.6598 22.5099C25.6598 22.3687 25.6068 22.2327 25.5111 22.1286C25.4154 22.0244 25.284 21.9598 25.1429 21.9474Z" fill="#E8E8E8"/>
<path d="M7.51359 32.528C7.36333 32.528 7.21922 32.5874 7.11297 32.6933C7.00671 32.7992 6.94702 32.9428 6.94702 33.0926C6.94702 33.2424 7.00671 33.386 7.11297 33.4919C7.21922 33.5978 7.36333 33.6572 7.51359 33.6572C7.66386 33.6572 7.80797 33.5978 7.91422 33.4919C8.02047 33.386 8.08017 33.2424 8.08017 33.0926C8.08017 32.9428 8.02047 32.7992 7.91422 32.6933C7.80797 32.5874 7.66386 32.528 7.51359 32.528Z" fill="#E8E8E8"/>
<path d="M9.5577 34.0394C9.41657 34.0518 9.28522 34.1164 9.18953 34.2205C9.09385 34.3246 9.04077 34.4607 9.04077 34.6019C9.04077 34.7431 9.09385 34.8792 9.18953 34.9833C9.28522 35.0874 9.41657 35.152 9.5577 35.1644C9.69883 35.152 9.83018 35.0874 9.92587 34.9833C10.0216 34.8792 10.0746 34.7431 10.0746 34.6019C10.0746 34.4607 10.0216 34.3246 9.92587 34.2205C9.83018 34.1164 9.69883 34.0518 9.5577 34.0394Z" fill="#E8E8E8"/>
<path d="M15.1449 32.9319C14.9947 32.9319 14.8506 32.9914 14.7443 33.0973C14.6381 33.2032 14.5784 33.3468 14.5784 33.4966C14.5784 33.6463 14.6381 33.79 14.7443 33.8959C14.8506 34.0017 14.9947 34.0612 15.1449 34.0612C15.2952 34.0612 15.4393 34.0017 15.5456 33.8959C15.6518 33.79 15.7115 33.6463 15.7115 33.4966C15.7115 33.3468 15.6518 33.2032 15.5456 33.0973C15.4393 32.9914 15.2952 32.9319 15.1449 32.9319Z" fill="#E8E8E8"/>
<path d="M21.3773 35.4902C21.2362 35.5025 21.1048 35.5672 21.0091 35.6713C20.9134 35.7754 20.8604 35.9115 20.8604 36.0526C20.8604 36.1938 20.9134 36.3299 21.0091 36.434C21.1048 36.5381 21.2362 36.6028 21.3773 36.6151C21.5184 36.6028 21.6498 36.5381 21.7454 36.434C21.8411 36.3299 21.8942 36.1938 21.8942 36.0526C21.8942 35.9115 21.8411 35.7754 21.7454 35.6713C21.6498 35.5672 21.5184 35.5025 21.3773 35.4902Z" fill="#E8E8E8"/>
<path d="M26.5853 32.9796C26.4442 32.9919 26.3128 33.0565 26.2171 33.1607C26.1214 33.2648 26.0684 33.4008 26.0684 33.542C26.0684 33.6832 26.1214 33.8193 26.2171 33.9234C26.3128 34.0275 26.4442 34.0921 26.5853 34.1045C26.7264 34.0921 26.8578 34.0275 26.9535 33.9234C27.0491 33.8193 27.1022 33.6832 27.1022 33.542C27.1022 33.4008 27.0491 33.2648 26.9535 33.1607C26.8578 33.0565 26.7264 32.9919 26.5853 32.9796Z" fill="#E8E8E8"/>
<path d="M30.5819 34.0264C30.4407 34.0388 30.3094 34.1034 30.2137 34.2075C30.118 34.3117 30.0649 34.4477 30.0649 34.5889C30.0649 34.7301 30.118 34.8662 30.2137 34.9703C30.3094 35.0744 30.4407 35.139 30.5819 35.1514C30.723 35.139 30.8543 35.0744 30.95 34.9703C31.0457 34.8662 31.0988 34.7301 31.0988 34.5889C31.0988 34.4477 31.0457 34.3117 30.95 34.2075C30.8543 34.1034 30.723 34.0388 30.5819 34.0264Z" fill="#E8E8E8"/>
<path d="M32.2511 21.6779C32.1099 21.6903 31.9786 21.7549 31.8829 21.859C31.7872 21.9631 31.7341 22.0992 31.7341 22.2404C31.7341 22.3816 31.7872 22.5176 31.8829 22.6218C31.9786 22.7259 32.1099 22.7905 32.2511 22.8029C32.3922 22.7905 32.5235 22.7259 32.6192 22.6218C32.7149 22.5176 32.768 22.3816 32.768 22.2404C32.768 22.0992 32.7149 21.9631 32.6192 21.859C32.5235 21.7549 32.3922 21.6903 32.2511 21.6779Z" fill="#E8E8E8"/>
<path d="M28.991 23.0201C28.8606 22.9473 28.7068 22.9284 28.5626 22.9673C28.4184 23.0063 28.2952 23.1001 28.2196 23.2286C28.1981 23.2648 28.1792 23.3026 28.163 23.3415C28.1189 23.4056 28.0887 23.4782 28.0743 23.5546C28.06 23.631 28.0617 23.7095 28.0794 23.7852C28.0971 23.8609 28.1304 23.9321 28.1772 23.9942C28.224 24.0564 28.2833 24.1082 28.3513 24.1463C28.4192 24.1844 28.4944 24.208 28.572 24.2156C28.6497 24.2232 28.728 24.2146 28.8021 24.1904C28.8762 24.1661 28.9445 24.1268 29.0025 24.0749C29.0605 24.023 29.1071 23.9596 29.1392 23.8888C29.1392 23.8497 29.1784 23.8149 29.1959 23.7758C29.2642 23.6474 29.281 23.498 29.243 23.3577C29.205 23.2174 29.1149 23.0967 28.991 23.0201Z" fill="#E8E8E8"/>
<path d="M33.6066 19.1892C33.4563 19.1892 33.3122 19.2487 33.206 19.3546C33.0997 19.4605 33.04 19.6041 33.04 19.7539C33.04 19.9036 33.0997 20.0472 33.206 20.1531C33.3122 20.259 33.4563 20.3185 33.6066 20.3185C33.7569 20.3185 33.901 20.259 34.0072 20.1531C34.1135 20.0472 34.1732 19.9036 34.1732 19.7539C34.1732 19.6041 34.1135 19.4605 34.0072 19.3546C33.901 19.2487 33.7569 19.1892 33.6066 19.1892Z" fill="#E8E8E8"/>
<g style="mix-blend-mode:multiply">
<path d="M27.5835 37.6226C29.2614 37.488 31.0701 37.2838 32.3297 36.1719C33.7417 34.9254 34.073 32.8926 34.3388 31.0293L36.0821 18.2379C36.1117 18.0135 36.0789 17.7852 35.9875 17.5781C35.896 17.3709 35.7492 17.1927 35.5632 17.0628C35.3772 16.9329 35.159 16.8564 34.9324 16.8415C34.7057 16.8266 34.4793 16.8739 34.2778 16.9783C33.5979 17.3344 32.9049 17.6602 32.1989 17.9642C32.2033 18.0119 32.2033 18.0599 32.1989 18.1076C32.1405 19.1581 31.9829 20.2008 31.7282 21.2218C31.1225 23.6265 30.0294 25.8821 28.5162 27.8499C25.4306 31.8632 20.8457 34.5735 15.9732 35.9939C12.8511 36.8718 9.62847 37.3448 6.38501 37.4011C8.12831 38.4349 10.3859 38.4653 12.4866 38.4131C17.5276 38.2857 22.5599 38.0222 27.5835 37.6226Z" fill="#E8E8E8"/>
</g>
</svg>
