<?xml version="1.0" standalone="no"?>
<!DOCTYPE svg PUBLIC "-//W3C//DTD SVG 20010904//EN"
 "http://www.w3.org/TR/2001/REC-SVG-20010904/DTD/svg10.dtd">
<svg version="1.0" xmlns="http://www.w3.org/2000/svg"
 width="512.000000pt" height="512.000000pt" viewBox="0 0 512.000000 512.000000"
 preserveAspectRatio="xMidYMid meet">

<g transform="translate(0.000000,512.000000) scale(0.100000,-0.100000)"
fill="#000000" stroke="none">
<path d="M1130 5114 c-119 -22 -242 -94 -356 -208 -329 -330 -557 -989 -636
-1841 -17 -187 -17 -824 0 -1010 80 -856 306 -1508 637 -1841 135 -136 260
-200 410 -211 162 -11 317 54 462 196 l61 59 4 -83 c5 -137 49 -175 205 -175
82 0 95 3 119 23 35 31 38 82 5 109 -18 14 -40 18 -102 18 l-79 0 0 110 0 110
1135 0 1135 0 0 -110 0 -110 -916 -2 -917 -3 -20 -27 c-23 -30 -18 -67 13 -98
20 -20 37 -20 954 -20 l933 0 33 23 c69 47 75 62 78 228 l4 150 117 117 c179
179 288 331 397 557 105 215 174 459 190 668 6 72 4 88 -15 124 -22 43 -82 93
-112 93 -12 0 -19 12 -24 39 -18 108 -112 234 -214 286 -60 30 -71 51 -59 114
22 111 -16 233 -102 325 -71 75 -141 113 -244 131 -42 7 -83 18 -91 25 -8 7
-29 42 -47 79 -40 84 -112 160 -185 196 -81 40 -210 47 -300 16 -34 -12 -69
-21 -78 -21 -8 0 -35 15 -60 34 -55 42 -134 73 -211 81 -57 7 -102 -1 -222
-37 -39 -11 -50 -10 -105 9 -86 31 -153 37 -223 23 -59 -12 -145 -50 -175 -77
-32 -27 -71 -31 -139 -11 -36 10 -74 18 -86 18 -19 0 -22 11 -43 166 -28 205
-77 452 -96 481 -32 48 -117 34 -131 -22 -3 -13 8 -93 25 -177 29 -149 76
-457 69 -462 -2 -1 -23 -14 -48 -28 -65 -37 -133 -114 -174 -196 -39 -78 -56
-92 -111 -92 -49 0 -149 -35 -200 -70 -131 -90 -202 -251 -175 -397 11 -58 11
-66 -6 -84 -11 -12 -37 -30 -59 -41 -99 -51 -172 -140 -201 -245 -14 -52 -21
-62 -43 -66 -38 -8 -99 -74 -112 -121 -8 -30 -8 -65 0 -131 58 -450 259 -863
573 -1177 l87 -88 -48 -58 c-100 -120 -201 -191 -316 -219 -225 -55 -467 133
-657 511 -174 347 -289 797 -345 1356 -24 245 -24 815 0 1060 74 732 252 1295
518 1633 77 96 151 159 242 203 169 81 329 42 493 -121 131 -129 265 -356 354
-600 39 -104 62 -135 102 -135 34 0 78 39 78 70 0 33 -67 203 -135 345 -150
311 -356 535 -557 605 -61 21 -202 34 -258 24z m1746 -2019 c88 -29 158 -32
212 -10 105 45 183 41 264 -11 126 -80 171 -89 273 -54 113 39 221 18 281 -53
15 -18 40 -59 56 -93 31 -66 75 -117 119 -140 15 -8 60 -18 99 -24 81 -12 121
-29 168 -74 69 -64 79 -102 72 -271 -5 -91 36 -158 120 -200 80 -41 130 -96
150 -165 l9 -30 -1701 0 -1700 0 7 28 c3 15 19 43 34 62 28 35 48 50 135 102
24 14 57 46 73 69 27 41 28 47 28 173 0 126 1 133 28 179 44 74 138 126 227
127 38 0 113 31 143 58 11 9 36 51 57 93 21 42 50 90 65 107 53 63 155 88 245
62 118 -36 187 -29 267 26 55 37 119 62 165 63 15 1 62 -10 104 -24z m1824
-1284 l145 -6 -3 -55 c-8 -179 -82 -428 -189 -640 -93 -185 -178 -304 -327
-457 l-119 -123 -1206 0 -1207 0 -70 64 c-271 248 -473 611 -548 986 -31 154
-35 218 -15 231 16 10 3304 10 3539 0z"/>
<path d="M2465 2824 c-73 -26 -94 -77 -54 -128 22 -28 58 -34 106 -15 82 31
100 110 32 144 -33 18 -33 18 -84 -1z"/>
<path d="M3490 2748 c-39 -42 -22 -96 40 -128 64 -32 112 -22 131 27 14 38 -4
76 -50 101 -50 28 -94 28 -121 0z"/>
<path d="M2945 2708 c-26 -20 -27 -25 -22 -76 7 -67 35 -102 83 -102 47 0 78
41 70 92 -9 55 -25 84 -53 97 -34 16 -47 14 -78 -11z"/>
<path d="M1830 2490 c-25 -25 -27 -81 -2 -102 28 -25 79 -48 107 -48 35 0 65
33 65 73 0 74 -119 128 -170 77z"/>
<path d="M4070 2413 c-17 -21 -20 -35 -15 -63 10 -53 27 -83 58 -100 24 -13
30 -13 55 0 44 25 54 58 37 118 -17 55 -36 72 -84 72 -20 0 -36 -8 -51 -27z"/>
<path d="M2467 2322 c-27 -29 -22 -87 9 -111 31 -24 104 -37 131 -22 33 17 47
64 31 98 -23 48 -138 72 -171 35z"/>
<path d="M3372 2323 c-23 -8 -47 -24 -53 -34 -17 -33 -7 -80 24 -103 l28 -20
57 19 c84 29 104 85 49 135 -24 23 -46 24 -105 3z"/>
<path d="M1120 4717 c-34 -17 -53 -58 -41 -89 16 -42 159 -205 186 -212 43
-11 95 33 95 80 0 27 -153 212 -186 224 -30 12 -24 12 -54 -3z"/>
<path d="M883 4157 c-77 -77 -93 -98 -93 -124 0 -46 30 -77 74 -77 32 0 46 9
117 80 44 43 87 91 95 106 28 53 -8 108 -70 108 -24 0 -47 -17 -123 -93z"/>
<path d="M1513 4117 c-77 -77 -93 -98 -93 -124 0 -46 30 -77 75 -77 33 0 45 9
131 96 72 72 94 101 94 122 0 38 -41 76 -81 76 -28 0 -47 -14 -126 -93z"/>
<path d="M1185 3818 c-68 -37 -61 -75 34 -190 90 -109 93 -111 133 -110 51 1
86 50 69 95 -12 30 -156 203 -177 211 -22 8 -36 7 -59 -6z"/>
<path d="M784 3584 c-184 -98 -221 -133 -193 -186 34 -64 70 -62 196 12 111
65 138 93 128 133 -15 60 -65 76 -131 41z"/>
<path d="M1708 3488 c-23 -18 -138 -219 -138 -241 0 -25 53 -77 79 -77 11 0
31 10 45 23 31 27 136 209 136 235 0 11 -9 31 -21 46 -23 29 -73 36 -101 14z"/>
<path d="M995 3213 c-60 -31 -115 -63 -122 -72 -19 -24 -15 -69 7 -91 38 -38
61 -35 178 24 112 56 142 82 142 124 0 30 -42 72 -72 72 -13 0 -72 -26 -133
-57z"/>
<path d="M1263 2908 c-43 -46 -126 -202 -127 -237 0 -57 71 -93 117 -58 25 19
137 219 137 245 0 32 -43 72 -78 72 -17 0 -37 -9 -49 -22z"/>
<path d="M565 2815 c-41 -40 -33 -65 56 -172 84 -102 109 -120 152 -109 32 8
61 58 51 89 -7 22 -121 168 -157 200 -28 25 -73 22 -102 -8z"/>
<path d="M705 2165 c-106 -58 -125 -75 -125 -112 0 -32 43 -73 75 -73 35 0
242 105 255 129 15 30 12 56 -11 85 -32 41 -76 35 -194 -29z"/>
<path d="M617 1659 c-28 -16 -40 -58 -27 -90 13 -30 210 -149 248 -149 34 0
62 18 73 47 18 48 -3 74 -117 141 -104 62 -141 72 -177 51z"/>
<path d="M858 1042 c-108 -108 -118 -133 -73 -177 44 -45 69 -35 177 73 108
108 118 133 73 177 -44 45 -69 35 -177 -73z"/>
<path d="M1095 695 c-44 -43 -35 -72 57 -171 45 -49 92 -95 105 -102 48 -27
103 13 103 74 0 26 -16 48 -92 128 -103 107 -128 117 -173 71z"/>
</g>
</svg>
