<svg width="16" height="18" viewBox="0 0 16 18" fill="none" xmlns="http://www.w3.org/2000/svg">
<path d="M7.99917 18.0002C4.10456 18.0002 0.936035 14.8239 0.936035 10.9198C0.936035 7.88353 2.31592 5.17614 4.3419 2.95265C6.0082 1.12389 7.65735 0.116877 7.72671 0.0749351C8.09226 -0.146198 8.58287 0.155091 8.58287 0.562552V5.41289L11.0644 3.09683C11.2798 2.89577 11.6208 2.90969 11.8183 3.13297C12.7614 4.19908 13.5122 5.32489 14.0497 6.47917C17.0476 12.9171 12.9149 18.0002 7.99917 18.0002Z" fill="#FE4E33"/>
<path d="M14.0495 6.47921C13.512 5.32493 12.7612 4.19912 11.8181 3.13301C11.6206 2.90969 11.2796 2.89581 11.0642 3.09687L8.58269 5.41292V0.562592C8.58269 0.255819 8.30464 0.00933838 8.01123 0.000549316V18.0001C12.9216 17.9917 17.0449 12.9118 14.0495 6.47921Z" fill="#FE1600"/>
<path d="M7.99913 18.0001C6.51905 18.0001 5.31494 16.793 5.31494 15.3094C5.31494 12.912 7.64257 11.4924 7.74164 11.4332C7.91531 11.3293 8.13276 11.3342 8.30165 11.4455C8.39889 11.5096 10.6833 13.0418 10.6833 15.3094C10.6833 16.793 9.47921 18.0001 7.99913 18.0001Z" fill="#FEC356"/>
<path d="M10.6832 15.3094C10.6832 13.0418 8.39876 11.5096 8.30155 11.4455C8.21359 11.3875 8.11248 11.3587 8.01123 11.3588V17.9997C9.48565 17.9931 10.6832 16.7889 10.6832 15.3094Z" fill="#FEB020"/>
</svg>
