<svg width="14" height="14" viewBox="0 0 14 14" fill="none" xmlns="http://www.w3.org/2000/svg">
<path fill-rule="evenodd" clip-rule="evenodd" d="M9.5666 0.667129C9.98726 0.667129 10.4073 0.726462 10.8066 0.860462C13.2673 1.66046 14.1539 4.36046 13.4133 6.72046C12.9933 7.92646 12.3066 9.02713 11.4073 9.92646C10.1199 11.1731 8.70726 12.2798 7.1866 13.2331L7.01993 13.3338L6.8466 13.2265C5.3206 12.2798 3.89993 11.1731 2.6006 9.9198C1.70726 9.02046 1.01993 7.92646 0.593263 6.72046C-0.16007 4.36046 0.726596 1.66046 3.21393 0.846462C3.40726 0.779796 3.6066 0.733129 3.8066 0.707129H3.8866C4.07393 0.679796 4.25993 0.667129 4.4466 0.667129H4.51993C4.93993 0.679796 5.3466 0.753129 5.7406 0.887129H5.77993C5.8066 0.899796 5.8266 0.913796 5.83993 0.926463C5.98726 0.973796 6.1266 1.02713 6.25993 1.10046L6.51326 1.2138C6.57448 1.24644 6.64319 1.29633 6.70257 1.33944C6.74019 1.36676 6.77407 1.39136 6.79993 1.40713C6.81081 1.41355 6.82187 1.42 6.83301 1.42651C6.89018 1.45988 6.94972 1.49464 6.99993 1.53313C7.7406 0.967129 8.63993 0.660462 9.5666 0.667129ZM11.3399 5.46713C11.6133 5.4598 11.8466 5.24046 11.8666 4.9598V4.88046C11.8866 3.94646 11.3206 3.10046 10.4599 2.7738C10.1866 2.6798 9.8866 2.82713 9.7866 3.10713C9.69326 3.38713 9.83993 3.6938 10.1199 3.79313C10.5473 3.95313 10.8333 4.3738 10.8333 4.8398V4.86046C10.8206 5.01313 10.8666 5.16046 10.9599 5.2738C11.0533 5.38713 11.1933 5.45313 11.3399 5.46713Z" fill="#FF0000"/>
</svg>
