<?xml version="1.0" standalone="no"?>
<!DOCTYPE svg PUBLIC "-//W3C//DTD SVG 20010904//EN"
 "http://www.w3.org/TR/2001/REC-SVG-20010904/DTD/svg10.dtd">
<svg version="1.0" xmlns="http://www.w3.org/2000/svg"
 width="64.000000pt" height="64.000000pt" viewBox="0 0 64.000000 64.000000"
 preserveAspectRatio="xMidYMid meet">

<g transform="translate(0.000000,64.000000) scale(0.100000,-0.100000)"
fill="#000000" stroke="none">
<path d="M97 604 c-14 -14 -7 -36 24 -74 l32 -39 -32 -27 c-79 -66 -110 -182
-76 -284 18 -54 98 -150 125 -150 27 0 107 96 125 150 34 102 3 218 -76 284
l-32 27 32 40 c48 60 40 73 -45 77 -38 1 -73 0 -77 -4z m167 -380 c9 -3 16
-13 16 -21 0 -40 -79 -143 -110 -143 -31 0 -110 103 -110 144 0 8 6 17 13 19
18 8 172 8 191 1z"/>
<path d="M390 593 c-51 -27 -80 -76 -80 -137 0 -49 5 -61 54 -130 21 -29 46
-123 46 -172 0 -17 -7 -37 -15 -44 -18 -15 -20 -54 -2 -67 14 -12 116 -12 135
0 17 11 15 52 -3 67 -19 16 -19 46 -1 134 10 44 23 78 39 95 14 14 30 37 37
49 16 33 15 104 -4 140 -36 70 -136 101 -206 65z m100 -447 c0 -30 5 -46 15
-50 20 -7 19 -35 -1 -43 -11 -4 -22 1 -30 12 -14 18 -14 18 -28 0 -8 -11 -19
-16 -30 -12 -20 8 -21 36 -1 43 10 4 15 20 15 50 0 42 1 44 30 44 29 0 30 -2
30 -44z"/>
</g>
</svg>
