<?xml version="1.0" standalone="no"?>
<!DOCTYPE svg PUBLIC "-//W3C//DTD SVG 20010904//EN"
 "http://www.w3.org/TR/2001/REC-SVG-20010904/DTD/svg10.dtd">
<svg version="1.0" xmlns="http://www.w3.org/2000/svg"
 width="512.000000pt" height="512.000000pt" viewBox="0 0 512.000000 512.000000"
 preserveAspectRatio="xMidYMid meet">

<g transform="translate(0.000000,512.000000) scale(0.100000,-0.100000)"
fill="#000000" stroke="none">
<path d="M1098 4686 c-387 -167 -681 -416 -823 -696 -92 -183 -121 -335 -112
-590 24 -668 208 -1156 584 -1551 121 -126 126 -138 131 -279 l3 -115 -120
-280 c-67 -153 -121 -290 -121 -303 0 -29 42 -72 72 -72 12 0 127 35 255 77
l233 78 233 -78 c128 -42 243 -77 255 -77 30 0 72 43 72 72 0 13 -54 150 -121
303 l-120 280 3 115 c4 139 11 155 117 265 42 44 94 102 116 128 l38 48 79
-78 c107 -105 119 -130 129 -275 16 -210 75 -344 214 -483 125 -125 247 -185
419 -209 l90 -12 12 -64 c35 -187 145 -331 319 -415 106 -51 184 -69 305 -69
163 0 294 44 420 140 l65 50 50 -14 c78 -20 232 -26 340 -12 353 44 594 206
695 465 20 49 24 79 24 165 0 118 -18 178 -82 280 -149 238 -479 378 -843 357
l-108 -6 -3 1032 -3 1032 -27 80 c-40 116 -92 199 -183 290 -91 91 -175 144
-290 182 l-80 27 -414 4 c-448 4 -528 -2 -665 -45 -89 -27 -215 -88 -283 -135
l-44 -30 -66 62 c-156 146 -391 292 -593 369 -71 27 -80 26 -172 -13z m2272
-395 c173 -61 299 -187 362 -361 l23 -65 3 -1044 c2 -703 -1 -1048 -8 -1055
-7 -7 -19 -2 -37 16 -16 14 -47 38 -70 53 l-43 27 -2 1002 -3 1001 -27 58
c-38 80 -117 161 -197 200 l-66 32 -412 3 c-385 3 -418 1 -498 -17 -79 -19
-183 -65 -249 -110 l-29 -19 -40 65 -39 66 23 19 c42 32 178 97 251 119 114
34 174 37 593 35 391 -1 402 -2 465 -25z m-317 -644 c98 -74 82 -219 -29 -272
-107 -50 -235 43 -221 161 13 121 155 184 250 111z m-1853 -317 c0 -141 21
-202 94 -276 127 -126 325 -126 452 0 73 74 94 135 94 276 l0 110 119 0 118 0
-4 -72 c-34 -629 -196 -1049 -546 -1416 -51 -53 -102 -113 -114 -132 -33 -55
-53 -137 -53 -222 l0 -78 -160 0 -160 0 0 78 c0 128 -41 230 -124 311 l-36 35
0 748 0 748 160 0 160 0 0 -110z m1093 -1360 c19 -39 22 -67 28 -220 5 -161 7
-180 32 -233 58 -127 192 -224 324 -235 52 -4 63 -8 59 -21 -3 -9 -8 -44 -11
-79 l-7 -63 -57 7 c-217 25 -401 175 -470 382 -13 38 -24 102 -27 160 -6 108
-25 190 -57 242 -11 19 -64 80 -118 135 l-97 100 46 78 45 78 144 -143 c89
-88 152 -160 166 -188z m1223 -255 c183 -90 302 -312 320 -600 18 -276 -81
-444 -306 -521 -99 -33 -179 -39 -270 -20 -269 57 -396 240 -376 543 13 209
79 382 188 499 133 142 287 176 444 99z m704 -46 c197 -24 332 -82 441 -188
94 -93 134 -176 134 -281 0 -105 -40 -188 -134 -281 -111 -108 -245 -164 -451
-190 -87 -10 -239 -7 -260 6 -4 3 4 38 18 77 25 69 27 83 26 253 -1 162 -3
190 -27 280 -15 55 -47 142 -71 192 -52 107 -54 104 57 128 77 17 158 18 267
4z"/>
</g>
</svg>
