<svg width="9" height="13" viewBox="0 0 9 13" fill="none" xmlns="http://www.w3.org/2000/svg">
<path d="M8.5 2.78125V11.2188C8.5 11.5171 8.38147 11.8033 8.1705 12.0142C7.95952 12.2252 7.67337 12.3438 7.375 12.3438H4.5625C3.96576 12.3438 3.39347 12.1067 2.97151 11.6847C2.54955 11.2628 2.3125 10.6905 2.3125 10.0938V9.99725C2.3125 9.8495 2.2834 9.70321 2.22686 9.56671C2.17032 9.43022 2.08745 9.3062 1.98298 9.20173L0.95452 8.17327C0.850049 8.0688 0.767178 7.94478 0.710639 7.80829C0.654099 7.67179 0.624999 7.5255 0.625 7.37775V3.90625C0.625 3.01114 0.980579 2.1527 1.61351 1.51976C2.24645 0.886829 3.10489 0.53125 4 0.53125H6.25C6.84674 0.53125 7.41903 0.768303 7.84099 1.19026C8.26295 1.61222 8.5 2.18451 8.5 2.78125Z" fill="#FC9495"/>
</svg>
